<svg width="100" height="22" viewBox="0 0 100 22" fill="none" xmlns="http://www.w3.org/2000/svg">
<path d="M10.1356 2.27771C10.4736 1.44668 11.6503 1.44668 11.9883 2.27771L13.701 6.48916C13.8448 6.84258 14.1771 7.08341 14.5577 7.11L19.1045 7.42768C20.0029 7.49045 20.367 8.61567 19.6758 9.19286L16.1935 12.1004C15.8991 12.3463 15.7712 12.7388 15.8644 13.1109L16.9645 17.5046C17.1827 18.3762 16.2302 19.071 15.4669 18.5971L11.5894 16.1895C11.2664 15.9889 10.8575 15.9889 10.5344 16.1895L6.65699 18.5971C5.89372 19.071 4.94122 18.3762 5.15943 17.5046L6.25952 13.1109C6.35268 12.7388 6.22481 12.3463 5.93039 12.1004L2.44813 9.19286C1.75686 8.61567 2.12099 7.49045 3.01936 7.42768L7.56624 7.11C7.94683 7.08341 8.27913 6.84258 8.42286 6.48916L10.1356 2.27771Z" fill="#1E1B19"/>
<path d="M49.0736 2.27771C49.4116 1.44668 50.5883 1.44668 50.9263 2.27771L52.639 6.48916C52.7827 6.84258 53.115 7.08341 53.4956 7.11L58.0425 7.42768C58.9409 7.49045 59.305 8.61567 58.6138 9.19286L55.1315 12.1004C54.8371 12.3463 54.7092 12.7388 54.8024 13.1109L55.9024 17.5046C56.1207 18.3762 55.1682 19.071 54.4049 18.5971L50.5274 16.1895C50.2044 15.9889 49.7955 15.9889 49.4724 16.1895L45.595 18.5971C44.8317 19.071 43.8792 18.3762 44.0974 17.5046L45.1975 13.1109C45.2907 12.7388 45.1628 12.3463 44.8684 12.1004L41.3861 9.19286C40.6948 8.61567 41.059 7.49045 41.9573 7.42768L46.5042 7.11C46.8848 7.08341 47.2171 6.84258 47.3609 6.48916L49.0736 2.27771Z" fill="#1E1B19"/>
<path d="M29.6044 2.27771C29.9423 1.44668 31.119 1.44668 31.457 2.27771L33.1698 6.48916C33.3135 6.84258 33.6458 7.08341 34.0264 7.11L38.5733 7.42768C39.4716 7.49045 39.8358 8.61567 39.1445 9.19286L35.6623 12.1004C35.3678 12.3463 35.24 12.7388 35.3331 13.1109L36.4332 17.5046C36.6514 18.3762 35.6989 19.071 34.9357 18.5971L31.0582 16.1895C30.7351 15.9889 30.3263 15.9889 30.0032 16.1895L26.1257 18.5971C25.3625 19.071 24.41 18.3762 24.6282 17.5046L25.7283 13.1109C25.8214 12.7388 25.6936 12.3463 25.3991 12.1004L21.9169 9.19286C21.2256 8.61567 21.5897 7.49045 22.4881 7.42768L27.035 7.11C27.4156 7.08341 27.7479 6.84258 27.8916 6.48916L29.6044 2.27771Z" fill="#1E1B19"/>
<path d="M68.5424 2.27771C68.8803 1.44668 70.057 1.44668 70.395 2.27771L72.1078 6.48916C72.2515 6.84258 72.5838 7.08341 72.9644 7.11L77.5113 7.42768C78.4096 7.49045 78.7738 8.61567 78.0825 9.19286L74.6002 12.1004C74.3058 12.3463 74.1779 12.7388 74.2711 13.1109L75.3712 17.5046C75.5894 18.3762 74.6369 19.071 73.8736 18.5971L69.9962 16.1895C69.6731 15.9889 69.2642 15.9889 68.9412 16.1895L65.0637 18.5971C64.3005 19.071 63.348 18.3762 63.5662 17.5046L64.6663 13.1109C64.7594 12.7388 64.6316 12.3463 64.3371 12.1004L60.8549 9.19286C60.1636 8.61567 60.5277 7.49045 61.4261 7.42768L65.973 7.11C66.3536 7.08341 66.6859 6.84258 66.8296 6.48916L68.5424 2.27771Z" fill="#1E1B19"/>
<path d="M88.0116 2.27771C88.3496 1.44668 89.5263 1.44668 89.8642 2.27771L91.577 6.48916C91.7207 6.84258 92.053 7.08341 92.4336 7.11L96.9805 7.42768C97.8789 7.49045 98.243 8.61567 97.5517 9.19286L94.0695 12.1004C93.7751 12.3463 93.6472 12.7388 93.7403 13.1109L94.8404 17.5046C95.0586 18.3762 94.1062 19.071 93.3429 18.5971L89.4654 16.1895C89.1424 15.9889 88.7335 15.9889 88.4104 16.1895L84.533 18.5971C83.7697 19.071 82.8172 18.3762 83.0354 17.5046L84.1355 13.1109C84.2287 12.7388 84.1008 12.3463 83.8064 12.1004L80.3241 9.19286C79.6328 8.61567 79.997 7.49045 80.8953 7.42768L85.4422 7.11C85.8228 7.08341 86.1551 6.84258 86.2988 6.48916L88.0116 2.27771Z" fill="#1E1B19"/>
</svg>
