<svg width="235" height="48" viewBox="0 0 235 48" fill="none" xmlns="http://www.w3.org/2000/svg">
<path d="M17.8603 24.5195L22.6743 34.0996H16.7289L12.6427 25.7645C12.1022 25.7907 11.6314 25.793 11.2903 25.793H5.48421V34.0996H0V9.15137H5.48421V9.17036C6.82463 9.16561 10.8099 9.15137 12.304 9.15137C15.3356 9.15137 22.0665 9.14186 22.0665 17.4817C22.0665 21.7894 20.1328 23.3505 17.8627 24.5171L17.8603 24.5195ZM16.9787 17.4746C16.9787 14.0127 13.6709 14.0127 11.9629 14.0127H5.4818V20.9459H11.8788C13.4427 20.9459 16.9763 20.965 16.9787 17.4746Z" fill="#F8F8F8"/>
<path d="M43.7654 25.3604H27.4521C27.8316 28.0335 29.4675 29.3569 33.0564 29.3569C36.369 29.3569 38.0097 28.4564 38.5214 27.1448H43.8927C43.3258 31.4359 39.7753 34.1018 33.0564 34.1018C26.3375 34.1018 22.064 30.6566 22.064 24.0014C22.064 17.3461 26.1477 13.9009 33.0564 13.9009C35.951 13.9009 38.2523 14.6089 39.9819 15.7874V15.7803C43.9335 18.3868 44.289 22.6161 43.972 25.3581H43.7678L43.7654 25.3604ZM27.6635 21.7774H38.4589C38.0049 20.2805 37.0032 18.6482 33.054 18.6482C29.9888 18.6482 28.3025 19.7506 27.6635 21.7774Z" fill="#F8F8F8"/>
<path d="M52.3582 14.0931H60.2157V18.5601H52.3029V34.1017H46.8163V18.5601H44.0586V14.0931H46.8788C47.2007 8.34317 48.9158 7.02686 52.9996 7.02686C56.4755 7.02686 60.5689 7.54007 60.5689 7.54007V12.1377C60.5689 12.1377 57.0496 11.8692 54.9718 11.8692C53.05 11.8692 52.5071 12.304 52.3582 14.0908V14.0931Z" fill="#F8F8F8"/>
<path d="M82.5657 23.916C82.5657 30.9324 77.5475 34.102 71.566 34.102C65.5846 34.102 60.5664 30.8326 60.5664 23.916C60.5664 16.9994 65.5846 13.73 71.566 13.73C77.5475 13.73 82.5657 16.9923 82.5657 23.916ZM77.3049 23.9136C77.3049 20.2284 74.9171 18.6769 71.566 18.6769C68.215 18.6769 65.8272 20.1643 65.8272 23.9136C65.8272 27.663 68.215 29.1504 71.566 29.1504C74.9171 29.1504 77.3049 27.5442 77.3049 23.9136Z" fill="#F8F8F8"/>
<path d="M99.9529 14.4642L99.0785 19.5821C98.5668 19.442 97.8077 19.2828 96.0757 19.2828C92.0112 19.2828 90.7957 22.4215 90.7957 25.1302V34.102H85.3091V14.103H90.7957V17.0422H91.1368C92.2634 15.1271 93.5102 14.103 96.9837 14.103C98.4563 14.103 99.0016 14.2551 99.9504 14.4618L99.9529 14.4642Z" fill="#F8F8F8"/>
<path d="M132.049 9.15576V34.104H126.564V15.5354H126.017L120.97 34.104H112.903L107.856 15.5354H107.308V34.104H101.824V9.15576H110.09V9.17953H111.452L116.593 29.1381H117.107L122.25 9.17953H123.987V9.15576H132.051H132.049Z" fill="#F8F8F8"/>
<path d="M151.348 17.0329V14.0938H156.842V34.1023H151.348V31.3104H151.18C149.842 33.0497 147.723 34.1023 144.012 34.1023C135.724 34.1023 134.79 26.7912 134.79 24.0968C134.79 21.1814 135.671 14.0938 144.026 14.0938C147.68 14.0938 149.782 15.2604 151.122 17.0329H151.345H151.348ZM151.146 24.0992C151.146 21.3905 150.2 18.7603 145.575 18.7603C140.444 18.7603 139.904 22.5429 139.904 24.0992C139.904 25.5367 140.478 29.4381 145.566 29.4381C150.2 29.4381 151.146 27.1239 151.146 24.0992Z" fill="#F8F8F8"/>
<path d="M174.853 14.6115L173.979 19.7295C173.467 19.5893 172.081 19.2828 170.349 19.2828C166.285 19.2828 165.069 22.4215 165.069 25.1302V34.102H159.583V14.103H165.069V17.0422H165.41C166.537 15.1271 167.784 14.103 171.257 14.103C172.73 14.103 173.902 14.4024 174.851 14.6091L174.853 14.6115Z" fill="#F8F8F8"/>
<path d="M4.30882 39.4829C6.75729 39.4829 8.61765 40.9923 8.61765 43.7476C8.61765 46.5029 6.75729 48.0003 4.30882 48.0003C1.86036 48.0003 0 46.5508 0 43.7476C0 40.9923 1.86036 39.4829 4.30882 39.4829ZM4.30882 46.1435C5.7611 46.1435 6.8293 45.3529 6.8293 43.7476C6.8293 42.1064 5.7611 41.3397 4.30882 41.3397C2.85655 41.3397 1.78834 42.0825 1.78834 43.7476C1.78834 45.4128 2.85655 46.1435 4.30882 46.1435Z" fill="#F8F8F8"/>
<path d="M21.6211 43.7117C22.3772 43.9752 22.7973 44.5143 22.7973 45.6164C22.7973 47.2336 21.7171 48.0003 20.4329 48.0003C19.5207 48.0003 15.2959 48.0003 15.2959 48.0003V39.6147H18.5245C18.7646 39.6147 19.1006 39.6147 19.5687 39.6147C21.309 39.6147 22.4373 40.3215 22.4373 42.0106C22.4373 42.921 22.1492 43.4242 21.6211 43.7117ZM19.0406 41.2798C18.5725 41.2798 17.3723 41.2798 17.1202 41.2798V43.0408C17.7924 43.0408 18.6565 43.0408 19.1246 43.0408C19.9648 43.0408 20.6489 43.0049 20.6489 42.1663C20.6489 41.3278 19.9288 41.2798 19.0406 41.2798ZM19.4247 46.3472C20.3249 46.3472 21.009 46.2873 21.009 45.4247C21.009 44.6341 20.5049 44.5023 19.6647 44.5023C19.0886 44.5023 17.6123 44.5023 17.1202 44.5023V46.3472H18.6445C19.3647 46.3472 18.8126 46.3472 19.4247 46.3472Z" fill="#F8F8F8"/>
<path d="M36.659 42.4179C36.659 43.8674 36.0109 44.3945 35.2548 44.7898L36.8631 48.0003H34.8827L33.5144 45.2091C33.3344 45.2091 33.1784 45.2091 33.0703 45.2091C32.7583 45.2091 31.51 45.2091 31.138 45.2091V48.0003H29.3136V39.6147H31.138V39.6267C31.5821 39.6267 32.9143 39.6147 33.4064 39.6147C34.4146 39.6147 36.659 39.6147 36.659 42.4179ZM33.2624 43.5799C33.7905 43.5799 34.9667 43.5919 34.9667 42.4179C34.9667 41.2559 33.8625 41.2559 33.2984 41.2559C32.9623 41.2559 31.6181 41.2559 31.138 41.2559V43.5799C31.5341 43.5799 33.1064 43.5799 33.2624 43.5799Z" fill="#F8F8F8"/>
<path d="M48.7959 39.6267L51.7965 48.0003H49.9001L49.408 46.6227H45.1232L44.6191 48.0003H42.7347L45.7353 39.6267H48.7959ZM45.7113 44.9575H48.8079L47.4996 41.2798H47.0315L45.7113 44.9575Z" fill="#F8F8F8"/>
<path d="M61.5926 42.921C63.4769 43.2325 65.6253 43.508 65.6253 45.4008C65.6253 47.4852 64.2331 48.0003 61.7726 48.0003C57.6318 48.0003 57.6438 45.7122 57.6438 44.9096C58.0159 44.9096 58.484 44.9096 59.5162 44.9096C59.5162 46.1675 60.6324 46.3711 61.7246 46.3711C63.1049 46.3711 63.681 46.0477 63.681 45.4008C63.681 44.8377 63.1049 44.7299 61.4605 44.4903C58.9401 44.119 57.8119 43.6039 57.8119 42.0705C57.8119 40.8845 58.688 39.5188 61.4365 39.5188C64.7012 39.5188 65.3493 41.3397 65.3493 42.6096C65.3493 42.6096 64.077 42.6096 63.4289 42.6096C63.4289 42.0345 63.1769 41.172 61.4365 41.172C60.0203 41.172 59.6962 41.6752 59.6962 42.0825C59.6962 42.5257 60.1883 42.6934 61.5926 42.921Z" fill="#F8F8F8"/>
<path d="M82.1876 39.6147H89.0889V41.2679H84.0119V42.9929H89.0889V44.6341H84.0119V46.3352H89.0889V48.0003H82.1876V39.6147Z" fill="#F8F8F8"/>
<path d="M101.481 43.8195L104.457 48.0003H102.165L100.053 44.9575H99.8486L97.7362 48.0003H95.4557L98.4203 43.8195L95.4557 39.6267H97.7362L99.8486 42.6695H100.053L102.165 39.6267H104.457L101.481 43.8195Z" fill="#F8F8F8"/>
<path d="M114.872 39.6147C115.88 39.6147 118.46 39.6267 118.46 42.6455C118.46 45.7721 115.664 45.6643 114.872 45.6643C114.56 45.6643 113.311 45.6643 112.939 45.6643V48.0003H111.115V39.6147H112.939V39.6267C113.383 39.6267 114.38 39.6147 114.872 39.6147ZM114.932 44.083C115.424 44.083 116.744 44.1549 116.744 42.6455C116.744 41.196 115.58 41.196 114.968 41.196C114.632 41.196 113.431 41.196 112.939 41.196V44.083C113.347 44.083 114.776 44.083 114.932 44.083Z" fill="#F8F8F8"/>
<path d="M132.384 42.4179C132.384 43.8674 131.736 44.3945 130.98 44.7898L132.588 48.0003H130.608L129.24 45.2091C129.06 45.2091 128.904 45.2091 128.796 45.2091C128.484 45.2091 127.235 45.2091 126.863 45.2091V48.0003H125.039V39.6147H126.863V39.6267C127.307 39.6267 128.64 39.6147 129.132 39.6147C130.14 39.6147 132.384 39.6147 132.384 42.4179ZM128.988 43.5799C129.516 43.5799 130.692 43.5919 130.692 42.4179C130.692 41.2559 129.588 41.2559 129.024 41.2559C128.688 41.2559 127.343 41.2559 126.863 41.2559V43.5799C127.259 43.5799 128.832 43.5799 128.988 43.5799Z" fill="#F8F8F8"/>
<path d="M139.034 39.6147H145.936V41.2679H140.859V42.9929H145.936V44.6341H140.859V46.3352H145.936V48.0003H139.034V39.6147Z" fill="#F8F8F8"/>
<path d="M156.298 42.921C158.183 43.2325 160.331 43.508 160.331 45.4008C160.331 47.4852 158.939 48.0003 156.478 48.0003C152.337 48.0003 152.349 45.7122 152.349 44.9096C152.721 44.9096 153.19 44.9096 154.222 44.9096C154.222 46.1675 155.338 46.3711 156.43 46.3711C157.81 46.3711 158.387 46.0477 158.387 45.4008C158.387 44.8377 157.81 44.7299 156.166 44.4903C153.646 44.119 152.517 43.6039 152.517 42.0705C152.517 40.8845 153.394 39.5188 156.142 39.5188C159.407 39.5188 160.055 41.3397 160.055 42.6096C160.055 42.6096 158.783 42.6096 158.135 42.6096C158.135 42.0345 157.882 41.172 156.142 41.172C154.726 41.172 154.402 41.6752 154.402 42.0825C154.402 42.5257 154.894 42.6934 156.298 42.921Z" fill="#F8F8F8"/>
<path d="M170.82 42.921C172.705 43.2325 174.853 43.508 174.853 45.4008C174.853 47.4852 173.461 48.0003 171.001 48.0003C166.86 48.0003 166.872 45.7122 166.872 44.9096C167.244 44.9096 167.712 44.9096 168.744 44.9096C168.744 46.1675 169.86 46.3711 170.952 46.3711C172.333 46.3711 172.909 46.0477 172.909 45.4008C172.909 44.8377 172.333 44.7299 170.688 44.4903C168.168 44.119 167.04 43.6039 167.04 42.0705C167.04 40.8845 167.916 39.5188 170.664 39.5188C173.929 39.5188 174.577 41.3397 174.577 42.6096C174.577 42.6096 173.305 42.6096 172.657 42.6096C172.657 42.0345 172.405 41.172 170.664 41.172C169.248 41.172 168.924 41.6752 168.924 42.0825C168.924 42.5257 169.416 42.6934 170.82 42.921Z" fill="#F8F8F8"/>
<g clip-path="url(#clip0_318_260)">
<mask id="mask0_318_260" style="mask-type:luminance" maskUnits="userSpaceOnUse" x="186" y="0" width="49" height="48">
<path d="M231.805 0H190.03C188.265 0 186.835 1.42556 186.835 3.18408V44.8143C186.835 46.5728 188.265 47.9984 190.03 47.9984H231.805C233.569 47.9984 235 46.5728 235 44.8143V3.18408C235 1.42556 233.569 0 231.805 0Z" fill="white"/>
</mask>
<g mask="url(#mask0_318_260)">
<path d="M190.08 67.9177C201.109 67.9177 210.05 59.0079 210.05 48.0172C210.05 37.0265 201.109 28.1167 190.08 28.1167C179.052 28.1167 170.111 37.0265 170.111 48.0172C170.111 59.0079 179.052 67.9177 190.08 67.9177Z" stroke="#0A33F1" stroke-width="2" stroke-miterlimit="10"/>
<path d="M190.081 63.938C198.904 63.938 206.056 56.8102 206.056 48.0176C206.056 39.225 198.904 32.0972 190.081 32.0972C181.258 32.0972 174.105 39.225 174.105 48.0176C174.105 56.8102 181.258 63.938 190.081 63.938Z" stroke="#0A33F1" stroke-width="2" stroke-miterlimit="10"/>
<path d="M190.08 59.9577C196.698 59.9577 202.062 54.6119 202.062 48.0174C202.062 41.423 196.698 36.0771 190.08 36.0771C183.463 36.0771 178.099 41.423 178.099 48.0174C178.099 54.6119 183.463 59.9577 190.08 59.9577Z" stroke="#0A33F1" stroke-width="2" stroke-miterlimit="10"/>
<path d="M190.08 75.8781C205.521 75.8781 218.038 63.4045 218.038 48.0174C218.038 32.6304 205.521 20.1567 190.08 20.1567C174.64 20.1567 162.123 32.6304 162.123 48.0174C162.123 63.4045 174.64 75.8781 190.08 75.8781Z" stroke="#0A33F1" stroke-width="2" stroke-miterlimit="10"/>
<path d="M190.081 71.8979C203.315 71.8979 214.044 61.2062 214.044 48.0173C214.044 34.8284 203.315 24.1367 190.081 24.1367C176.846 24.1367 166.117 34.8284 166.117 48.0173C166.117 61.2062 176.846 71.8979 190.081 71.8979Z" stroke="#0A33F1" stroke-width="2" stroke-miterlimit="10"/>
<path d="M190.081 55.9775C194.492 55.9775 198.068 52.4136 198.068 48.0173C198.068 43.621 194.492 40.0571 190.081 40.0571C185.669 40.0571 182.093 43.621 182.093 48.0173C182.093 52.4136 185.669 55.9775 190.081 55.9775Z" stroke="#0A33F1" stroke-width="2" stroke-miterlimit="10"/>
<mask id="mask1_318_260" style="mask-type:luminance" maskUnits="userSpaceOnUse" x="156" y="-17" width="62" height="51">
<path d="M217.638 13.9676C217.638 19.2786 216.283 24.2728 213.898 28.6279C208.258 21.7566 199.683 17.3706 190.081 17.3706C178.426 17.3706 168.284 23.8318 163.068 33.3562C158.733 28.0738 156.132 21.3236 156.132 13.9676C156.132 -2.95821 169.901 -16.6792 186.885 -16.6792C203.87 -16.6792 217.638 -2.95821 217.638 13.9676Z" fill="white"/>
</mask>
<g mask="url(#mask1_318_260)">
<path d="M186.886 37.8488C197.914 37.8488 206.855 28.9391 206.855 17.9483C206.855 6.95761 197.914 -1.95215 186.886 -1.95215C175.857 -1.95215 166.916 6.95761 166.916 17.9483C166.916 28.9391 175.857 37.8488 186.886 37.8488Z" stroke="#0A33F1" stroke-width="2" stroke-miterlimit="10"/>
<path d="M186.886 33.8691C195.709 33.8691 202.861 26.7413 202.861 17.9487C202.861 9.15613 195.709 2.02832 186.886 2.02832C178.063 2.02832 170.91 9.15613 170.91 17.9487C170.91 26.7413 178.063 33.8691 186.886 33.8691Z" stroke="#0A33F1" stroke-width="2" stroke-miterlimit="10"/>
<path d="M186.886 29.8889C193.503 29.8889 198.867 24.543 198.867 17.9486C198.867 11.3542 193.503 6.0083 186.886 6.0083C180.268 6.0083 174.904 11.3542 174.904 17.9486C174.904 24.543 180.268 29.8889 186.886 29.8889Z" stroke="#0A33F1" stroke-width="2" stroke-miterlimit="10"/>
<path d="M186.886 45.8093C202.326 45.8093 214.843 33.3356 214.843 17.9486C214.843 2.56155 202.326 -9.91211 186.886 -9.91211C171.445 -9.91211 158.928 2.56155 158.928 17.9486C158.928 33.3356 171.445 45.8093 186.886 45.8093Z" stroke="#0A33F1" stroke-width="2" stroke-miterlimit="10"/>
<path d="M186.886 41.8291C200.12 41.8291 210.849 31.1374 210.849 17.9485C210.849 4.75958 200.12 -5.93213 186.886 -5.93213C173.651 -5.93213 162.922 4.75958 162.922 17.9485C162.922 31.1374 173.651 41.8291 186.886 41.8291Z" stroke="#0A33F1" stroke-width="2" stroke-miterlimit="10"/>
<path d="M186.886 25.9087C191.297 25.9087 194.874 22.3448 194.874 17.9485C194.874 13.5522 191.297 9.98828 186.886 9.98828C182.474 9.98828 178.898 13.5522 178.898 17.9485C178.898 22.3448 182.474 25.9087 186.886 25.9087Z" stroke="#0A33F1" stroke-width="2" stroke-miterlimit="10"/>
</g>
<mask id="mask2_318_260" style="mask-type:luminance" maskUnits="userSpaceOnUse" x="211" y="-11" width="55" height="62">
<path d="M265.711 20.1765C265.711 37.1023 251.942 50.8233 234.958 50.8233C229.863 50.8233 225.058 49.5887 220.826 47.4028C220.701 40.9845 218.595 35.0494 215.09 30.1801C216.729 26.4333 217.638 22.2964 217.638 17.9477C217.638 11.2428 215.478 5.04103 211.813 -0.00414562C217.45 -6.41927 225.729 -10.4702 234.958 -10.4702C251.942 -10.4702 265.711 3.25078 265.711 20.1765Z" fill="white"/>
</mask>
<g mask="url(#mask2_318_260)">
<path d="M234.958 40.0779C245.987 40.0779 254.928 31.1681 254.928 20.1774C254.928 9.18661 245.987 0.276855 234.958 0.276855C223.929 0.276855 214.989 9.18661 214.989 20.1774C214.989 31.1681 223.929 40.0779 234.958 40.0779Z" stroke="#0A33F1" stroke-width="2" stroke-miterlimit="10"/>
<path d="M234.959 36.0981C243.782 36.0981 250.934 28.9703 250.934 20.1777C250.934 11.3851 243.782 4.25732 234.959 4.25732C226.135 4.25732 218.983 11.3851 218.983 20.1777C218.983 28.9703 226.135 36.0981 234.959 36.0981Z" stroke="#0A33F1" stroke-width="2" stroke-miterlimit="10"/>
<path d="M234.958 32.1179C241.576 32.1179 246.94 26.772 246.94 20.1776C246.94 13.5832 241.576 8.2373 234.958 8.2373C228.341 8.2373 222.977 13.5832 222.977 20.1776C222.977 26.772 228.341 32.1179 234.958 32.1179Z" stroke="#0A33F1" stroke-width="2" stroke-miterlimit="10"/>
<path d="M234.958 48.0383C250.399 48.0383 262.916 35.5646 262.916 20.1776C262.916 4.79055 250.399 -7.68311 234.958 -7.68311C219.518 -7.68311 207.001 4.79055 207.001 20.1776C207.001 35.5646 219.518 48.0383 234.958 48.0383Z" stroke="#0A33F1" stroke-width="2" stroke-miterlimit="10"/>
<path d="M234.959 44.0581C248.193 44.0581 258.922 33.3664 258.922 20.1775C258.922 6.98858 248.193 -3.70312 234.959 -3.70312C221.724 -3.70312 210.995 6.98858 210.995 20.1775C210.995 33.3664 221.724 44.0581 234.959 44.0581Z" stroke="#0A33F1" stroke-width="2" stroke-miterlimit="10"/>
<path d="M234.959 28.1377C239.37 28.1377 242.946 24.5738 242.946 20.1775C242.946 15.7812 239.37 12.2173 234.959 12.2173C230.547 12.2173 226.971 15.7812 226.971 20.1775C226.971 24.5738 230.547 28.1377 234.959 28.1377Z" stroke="#0A33F1" stroke-width="2" stroke-miterlimit="10"/>
</g>
</g>
</g>
<defs>
<clipPath id="clip0_318_260">
<rect width="48.1649" height="47.9984" fill="white" transform="translate(186.835)"/>
</clipPath>
</defs>
</svg>
