<svg width="193" height="192" viewBox="0 0 193 192" fill="none" xmlns="http://www.w3.org/2000/svg">
<g clip-path="url(#clip0_541_1199)">
<mask id="mask0_541_1199" style="mask-type:luminance" maskUnits="userSpaceOnUse" x="0" y="0" width="193" height="192">
<path d="M179.763 0H13.2367C6.20243 0 0.5 5.70243 0.5 12.7367V179.263C0.5 186.298 6.20243 192 13.2367 192H179.763C186.798 192 192.5 186.298 192.5 179.263V12.7367C192.5 5.70243 186.798 0 179.763 0Z" fill="white"/>
</mask>
<g mask="url(#mask0_541_1199)">
<path d="M13.4376 271.681C57.4021 271.681 93.0423 236.041 93.0423 192.076C93.0423 148.112 57.4021 112.472 13.4376 112.472C-30.5268 112.472 -66.167 148.112 -66.167 192.076C-66.167 236.041 -30.5268 271.681 13.4376 271.681Z" stroke="#B5B5B5" stroke-width="8" stroke-miterlimit="10"/>
<path d="M13.4376 255.76C48.6092 255.76 77.1213 227.248 77.1213 192.076C77.1213 156.905 48.6092 128.393 13.4376 128.393C-21.7339 128.393 -50.2461 156.905 -50.2461 192.076C-50.2461 227.248 -21.7339 255.76 13.4376 255.76Z" stroke="#B5B5B5" stroke-width="8" stroke-miterlimit="10"/>
<path d="M13.4376 239.839C39.8162 239.839 61.2004 218.455 61.2004 192.076C61.2004 165.698 39.8162 144.313 13.4376 144.313C-12.9411 144.313 -34.3252 165.698 -34.3252 192.076C-34.3252 218.455 -12.9411 239.839 13.4376 239.839Z" stroke="#B5B5B5" stroke-width="8" stroke-miterlimit="10"/>
<path d="M13.4377 303.523C74.9879 303.523 124.884 253.627 124.884 192.076C124.884 130.526 74.9879 80.6299 13.4377 80.6299C-48.1125 80.6299 -98.0088 130.526 -98.0088 192.076C-98.0088 253.627 -48.1125 303.523 13.4377 303.523Z" stroke="#B5B5B5" stroke-width="8" stroke-miterlimit="10"/>
<path d="M13.4377 287.602C66.195 287.602 108.963 244.834 108.963 192.076C108.963 139.319 66.195 96.5508 13.4377 96.5508C-39.3196 96.5508 -82.0879 139.319 -82.0879 192.076C-82.0879 244.834 -39.3196 287.602 13.4377 287.602Z" stroke="#B5B5B5" stroke-width="8" stroke-miterlimit="10"/>
<path d="M13.4376 223.918C31.0233 223.918 45.2794 209.662 45.2794 192.076C45.2794 174.49 31.0233 160.234 13.4376 160.234C-4.14821 160.234 -18.4043 174.49 -18.4043 192.076C-18.4043 209.662 -4.14821 223.918 13.4376 223.918Z" stroke="#B5B5B5" stroke-width="8" stroke-miterlimit="10"/>
<mask id="mask1_541_1199" style="mask-type:luminance" maskUnits="userSpaceOnUse" x="-122" y="-67" width="246" height="201">
<path d="M123.292 55.8729C123.292 77.1178 117.888 97.0954 108.38 114.516C85.8966 87.0301 51.7175 69.4853 13.4373 69.4853C-33.0232 69.4853 -73.4496 95.3313 -94.2423 133.43C-111.523 112.3 -121.891 85.2979 -121.891 55.8729C-121.891 -11.8325 -67.0048 -66.7183 0.700508 -66.7183C68.4058 -66.7183 123.292 -11.8325 123.292 55.8729Z" fill="white"/>
</mask>
<g mask="url(#mask1_541_1199)">
<path d="M0.700333 151.402C44.6648 151.402 80.305 115.761 80.305 71.797C80.305 27.8326 44.6648 -7.80762 0.700333 -7.80762C-43.2641 -7.80762 -78.9043 27.8326 -78.9043 71.797C-78.9043 115.761 -43.2641 151.402 0.700333 151.402Z" stroke="#B5B5B5" stroke-width="8" stroke-miterlimit="10"/>
<path d="M0.70031 135.481C35.8718 135.481 64.384 106.969 64.384 71.797C64.384 36.6254 35.8718 8.11328 0.70031 8.11328C-34.4712 8.11328 -62.9834 36.6254 -62.9834 71.797C-62.9834 106.969 -34.4712 135.481 0.70031 135.481Z" stroke="#B5B5B5" stroke-width="8" stroke-miterlimit="10"/>
<path d="M0.700279 119.56C27.0789 119.56 48.4631 98.1756 48.4631 71.797C48.4631 45.4183 27.0789 24.0342 0.700279 24.0342C-25.6784 24.0342 -47.0625 45.4183 -47.0625 71.797C-47.0625 98.1756 -25.6784 119.56 0.700279 119.56Z" stroke="#B5B5B5" stroke-width="8" stroke-miterlimit="10"/>
<path d="M0.700401 183.244C62.2506 183.244 112.147 133.347 112.147 71.7971C112.147 10.2469 62.2506 -39.6494 0.700401 -39.6494C-60.8498 -39.6494 -110.746 10.2469 -110.746 71.7971C-110.746 133.347 -60.8498 183.244 0.700401 183.244Z" stroke="#B5B5B5" stroke-width="8" stroke-miterlimit="10"/>
<path d="M0.700363 167.323C53.4577 167.323 96.2259 124.554 96.2259 71.7971C96.2259 19.0397 53.4577 -23.7285 0.700363 -23.7285C-52.0569 -23.7285 -94.8252 19.0397 -94.8252 71.7971C-94.8252 124.554 -52.0569 167.323 0.700363 167.323Z" stroke="#B5B5B5" stroke-width="8" stroke-miterlimit="10"/>
<path d="M0.700253 103.639C18.286 103.639 32.5421 89.3827 32.5421 71.7969C32.5421 54.2112 18.286 39.9551 0.700253 39.9551C-16.8855 39.9551 -31.1416 54.2112 -31.1416 71.7969C-31.1416 89.3827 -16.8855 103.639 0.700253 103.639Z" stroke="#B5B5B5" stroke-width="8" stroke-miterlimit="10"/>
</g>
<mask id="mask2_541_1199" style="mask-type:luminance" maskUnits="userSpaceOnUse" x="100" y="-42" width="215" height="246">
<path d="M314.922 80.7093C314.922 148.415 260.036 203.3 192.331 203.3C172.022 203.3 152.866 198.362 136 189.618C135.5 163.944 127.103 140.203 113.134 120.725C119.668 105.737 123.292 89.1888 123.292 71.7936C123.292 44.9732 114.678 20.1652 100.069 -0.0161705C122.54 -25.6775 155.541 -41.8818 192.331 -41.8818C260.036 -41.8818 314.922 13.004 314.922 80.7093Z" fill="white"/>
</mask>
<g mask="url(#mask2_541_1199)">
<path d="M192.334 160.317C236.299 160.317 271.939 124.677 271.939 80.7125C271.939 36.7481 236.299 1.10791 192.334 1.10791C148.37 1.10791 112.729 36.7481 112.729 80.7125C112.729 124.677 148.37 160.317 192.334 160.317Z" stroke="#B5B5B5" stroke-width="8" stroke-miterlimit="10"/>
<path d="M192.334 144.396C227.506 144.396 256.018 115.884 256.018 80.7125C256.018 45.541 227.506 17.0288 192.334 17.0288C157.163 17.0288 128.65 45.541 128.65 80.7125C128.65 115.884 157.163 144.396 192.334 144.396Z" stroke="#B5B5B5" stroke-width="8" stroke-miterlimit="10"/>
<path d="M192.334 128.475C218.713 128.475 240.097 107.091 240.097 80.7125C240.097 54.3338 218.713 32.9497 192.334 32.9497C165.955 32.9497 144.571 54.3338 144.571 80.7125C144.571 107.091 165.955 128.475 192.334 128.475Z" stroke="#B5B5B5" stroke-width="8" stroke-miterlimit="10"/>
<path d="M192.334 192.159C253.884 192.159 303.781 142.263 303.781 80.7126C303.781 19.1624 253.884 -30.7339 192.334 -30.7339C130.784 -30.7339 80.8877 19.1624 80.8877 80.7126C80.8877 142.263 130.784 192.159 192.334 192.159Z" stroke="#B5B5B5" stroke-width="8" stroke-miterlimit="10"/>
<path d="M192.334 176.238C245.091 176.238 287.86 133.47 287.86 80.7126C287.86 27.9553 245.091 -14.813 192.334 -14.813C139.577 -14.813 96.8086 27.9553 96.8086 80.7126C96.8086 133.47 139.577 176.238 192.334 176.238Z" stroke="#B5B5B5" stroke-width="8" stroke-miterlimit="10"/>
<path d="M192.334 112.554C209.92 112.554 224.176 98.2982 224.176 80.7125C224.176 63.1267 209.92 48.8706 192.334 48.8706C174.748 48.8706 160.492 63.1267 160.492 80.7125C160.492 98.2982 174.748 112.554 192.334 112.554Z" stroke="#B5B5B5" stroke-width="8" stroke-miterlimit="10"/>
</g>
</g>
</g>
<defs>
<clipPath id="clip0_541_1199">
<rect width="192" height="192" fill="white" transform="translate(0.5)"/>
</clipPath>
</defs>
</svg>
