<svg width="944" height="194" viewBox="0 0 944 194" fill="none" xmlns="http://www.w3.org/2000/svg">
<g clip-path="url(#clip0_248_9067)">
<path d="M72.6307 101.136L91.9488 140.027H68.0903L51.6931 106.19C49.5241 106.296 47.6347 106.306 46.2659 106.306H22.9666V140.027H0.958984V38.748H22.9666V38.8252C28.3456 38.8059 44.3379 38.748 50.3339 38.748C62.4993 38.748 89.5099 38.7095 89.5099 72.5656C89.5099 90.0531 81.7499 96.3902 72.6403 101.126L72.6307 101.136ZM69.0929 72.5366C69.0929 58.4829 55.8189 58.4829 48.965 58.4829H22.9569V86.6288H48.6276C54.9031 86.6288 69.0832 86.706 69.0929 72.5366Z" fill="#F8F8F8"/>
<path d="M176.586 104.551H111.122C112.645 115.402 119.21 120.775 133.612 120.775C146.905 120.775 153.489 117.119 155.542 111.795H177.097C174.822 129.215 160.574 140.037 133.612 140.037C106.649 140.037 89.5 126.051 89.5 99.0338C89.5 72.0164 105.888 58.0303 133.612 58.0303C145.227 58.0303 154.462 60.9047 161.403 65.6889V65.6599C177.26 76.2412 178.687 93.4104 177.415 104.541H176.595L176.586 104.551ZM111.97 90.0055H155.291C153.469 83.9287 149.45 77.3022 133.602 77.3022C121.302 77.3022 114.534 81.7777 111.97 90.0055Z" fill="#F8F8F8"/>
<path d="M211.067 58.8111H242.599V76.9448H210.845V140.037H188.828V76.9448H177.762V58.8111H189.079C190.371 35.4687 197.253 30.125 213.641 30.125C227.59 30.125 244.016 32.2084 244.016 32.2084V50.8727C244.016 50.8727 229.894 49.7828 221.555 49.7828C213.843 49.7828 211.665 51.5479 211.067 58.8014V58.8111Z" fill="#F8F8F8"/>
<path d="M332.287 98.6867C332.287 127.17 312.149 140.037 288.146 140.037C264.143 140.037 244.006 126.765 244.006 98.6867C244.006 70.6083 264.143 57.3359 288.146 57.3359C312.149 57.3359 332.287 70.5794 332.287 98.6867ZM311.176 98.6771C311.176 83.7167 301.594 77.4181 288.146 77.4181C274.699 77.4181 265.117 83.4563 265.117 98.6771C265.117 113.898 274.699 119.936 288.146 119.936C301.594 119.936 311.176 113.416 311.176 98.6771Z" fill="#F8F8F8"/>
<path d="M402.059 60.3158L398.55 81.0924C396.497 80.5233 393.451 79.877 386.5 79.877C370.19 79.877 365.312 92.6189 365.312 103.615V140.037H343.295V58.8496H365.312V70.7812H366.681C371.202 63.0069 376.205 58.8496 390.144 58.8496C396.053 58.8496 398.242 59.4669 402.049 60.3061L402.059 60.3158Z" fill="#F8F8F8"/>
<path d="M530.856 38.7676V140.047H508.848V64.6661H506.65L486.397 140.047H454.027L433.774 64.6661H431.576V140.047H409.568V38.7676H442.739V38.8641H448.205L468.834 119.887H470.897L491.535 38.8641H498.505V38.7676H530.866H530.856Z" fill="#F8F8F8"/>
<path d="M608.302 70.7441V58.8125H630.349V140.038H608.302V128.705H607.628C602.258 135.765 593.756 140.038 578.863 140.038C545.605 140.038 541.855 110.359 541.855 99.4205C541.855 87.5853 545.393 58.8125 578.92 58.8125C593.582 58.8125 602.017 63.5485 607.396 70.7441H608.293H608.302ZM607.493 99.4302C607.493 88.4342 603.695 77.7565 585.138 77.7565C564.548 77.7565 562.379 93.1123 562.379 99.4302C562.379 105.266 564.682 121.104 585.1 121.104C603.695 121.104 607.493 111.709 607.493 99.4302Z" fill="#F8F8F8"/>
<path d="M702.628 60.9138L699.119 81.6904C697.065 81.1213 691.503 79.877 684.553 79.877C668.243 79.877 663.365 92.6189 663.365 103.615V140.037H641.348V58.8496H663.365V70.7812H664.734C669.255 63.0069 674.258 58.8496 688.197 58.8496C694.106 58.8496 698.81 60.065 702.618 60.9041L702.628 60.9138Z" fill="#F8F8F8"/>
<path d="M18.2538 159.286C28.0793 159.286 35.5447 165.364 35.5447 176.459C35.5447 187.554 28.0793 193.584 18.2538 193.584C8.42832 193.584 0.962891 187.747 0.962891 176.459C0.962891 165.364 8.42832 159.286 18.2538 159.286ZM18.2538 186.107C24.0816 186.107 28.3682 182.923 28.3682 176.459C28.3682 169.851 24.0816 166.763 18.2538 166.763C12.4259 166.763 8.13934 169.754 8.13934 176.459C8.13934 183.165 12.4259 186.107 18.2538 186.107Z" fill="#F8F8F8"/>
<path d="M87.7263 176.315C90.7606 177.376 92.4464 179.547 92.4464 183.985C92.4464 190.497 88.1116 193.584 82.9581 193.584C79.2976 193.584 62.3438 193.584 62.3438 193.584V159.817H75.3C76.2633 159.817 77.6118 159.817 79.4902 159.817C86.474 159.817 91.0014 162.663 91.0014 169.465C91.0014 173.131 89.8455 175.157 87.7263 176.315ZM77.371 166.522C75.4926 166.522 70.6762 166.522 69.6648 166.522V173.613C72.362 173.613 75.8298 173.613 77.7082 173.613C81.0797 173.613 83.825 173.468 83.825 170.092C83.825 166.715 80.9352 166.522 77.371 166.522ZM78.9123 186.927C82.5246 186.927 85.2699 186.686 85.2699 183.213C85.2699 180.029 83.247 179.498 79.8756 179.498C77.5637 179.498 71.6395 179.498 69.6648 179.498V186.927H75.7816C78.6715 186.927 76.4559 186.927 78.9123 186.927Z" fill="#F8F8F8"/>
<path d="M148.072 171.105C148.072 176.942 145.471 179.064 142.437 180.656L148.891 193.584H140.944L135.453 182.345C134.731 182.345 134.105 182.345 133.671 182.345C132.419 182.345 127.41 182.345 125.917 182.345V193.584H118.596V159.817H125.917V159.865C127.699 159.865 133.045 159.817 135.02 159.817C139.065 159.817 148.072 159.817 148.072 171.105ZM134.442 175.784C136.561 175.784 141.281 175.832 141.281 171.105C141.281 166.426 136.85 166.426 134.586 166.426C133.238 166.426 127.843 166.426 125.917 166.426V175.784C127.506 175.784 133.816 175.784 134.442 175.784Z" fill="#F8F8F8"/>
<path d="M196.776 159.865L208.817 193.584H201.207L199.232 188.037H182.038L180.015 193.584H172.453L184.494 159.865H196.776ZM184.398 181.331H196.824L191.574 166.522H189.696L184.398 181.331Z" fill="#F8F8F8"/>
<path d="M248.128 173.131C255.69 174.385 264.311 175.495 264.311 183.116C264.311 191.51 258.724 193.584 248.85 193.584C232.234 193.584 232.282 184.371 232.282 181.139C233.775 181.139 235.654 181.139 239.796 181.139C239.796 186.204 244.275 187.024 248.658 187.024C254.197 187.024 256.509 185.721 256.509 183.116C256.509 180.849 254.197 180.415 247.598 179.45C237.484 177.955 232.956 175.88 232.956 169.706C232.956 164.93 236.472 159.431 247.502 159.431C260.603 159.431 263.203 166.763 263.203 171.877C263.203 171.877 258.098 171.877 255.497 171.877C255.497 169.561 254.486 166.088 247.502 166.088C241.819 166.088 240.518 168.114 240.518 169.754C240.518 171.539 242.493 172.214 248.128 173.131Z" fill="#F8F8F8"/>
<path d="M330.774 159.817H358.468V166.474H338.095V173.42H358.468V180.029H338.095V186.879H358.468V193.584H330.774V159.817Z" fill="#F8F8F8"/>
<path d="M408.196 176.749L420.141 193.584H410.941L402.464 181.331H401.646L393.169 193.584H384.018L395.914 176.749L384.018 159.865H393.169L401.646 172.118H402.464L410.941 159.865H420.141L408.196 176.749Z" fill="#F8F8F8"/>
<path d="M461.932 159.817C465.978 159.817 476.333 159.865 476.333 172.021C476.333 184.612 465.111 184.178 461.932 184.178C460.68 184.178 455.671 184.178 454.178 184.178V193.584H446.857V159.817H454.178V159.865C455.96 159.865 459.957 159.817 461.932 159.817ZM462.173 177.81C464.148 177.81 469.446 178.099 469.446 172.021C469.446 166.184 464.774 166.184 462.317 166.184C460.969 166.184 456.152 166.184 454.178 166.184V177.81C455.815 177.81 461.547 177.81 462.173 177.81Z" fill="#F8F8F8"/>
<path d="M532.209 171.105C532.209 176.942 529.608 179.064 526.573 180.656L533.027 193.584H525.08L519.59 182.345C518.867 182.345 518.241 182.345 517.808 182.345C516.555 182.345 511.546 182.345 510.053 182.345V193.584H502.732V159.817H510.053V159.865C511.835 159.865 517.181 159.817 519.156 159.817C523.202 159.817 532.209 159.817 532.209 171.105ZM518.578 175.784C520.697 175.784 525.418 175.832 525.418 171.105C525.418 166.426 520.986 166.426 518.723 166.426C517.374 166.426 511.98 166.426 510.053 166.426V175.784C511.643 175.784 517.952 175.784 518.578 175.784Z" fill="#F8F8F8"/>
<path d="M558.895 159.817H586.589V166.474H566.215V173.42H586.589V180.029H566.215V186.879H586.589V193.584H558.895V159.817Z" fill="#F8F8F8"/>
<path d="M628.173 173.131C635.734 174.385 644.356 175.495 644.356 183.116C644.356 191.51 638.769 193.584 628.895 193.584C612.278 193.584 612.327 184.371 612.327 181.139C613.82 181.139 615.698 181.139 619.84 181.139C619.84 186.204 624.319 187.024 628.702 187.024C634.241 187.024 636.553 185.721 636.553 183.116C636.553 180.849 634.241 180.415 627.643 179.45C617.528 177.955 613.001 175.88 613.001 169.706C613.001 164.93 616.517 159.431 627.546 159.431C640.647 159.431 643.248 166.763 643.248 171.877C643.248 171.877 638.142 171.877 635.542 171.877C635.542 169.561 634.53 166.088 627.546 166.088C621.863 166.088 620.563 168.114 620.563 169.754C620.563 171.539 622.537 172.214 628.173 173.131Z" fill="#F8F8F8"/>
<path d="M686.449 173.131C694.011 174.385 702.632 175.495 702.632 183.116C702.632 191.51 697.045 193.584 687.172 193.584C670.555 193.584 670.603 184.371 670.603 181.139C672.096 181.139 673.975 181.139 678.117 181.139C678.117 186.204 682.596 187.024 686.979 187.024C692.518 187.024 694.83 185.721 694.83 183.116C694.83 180.849 692.518 180.415 685.919 179.45C675.805 177.955 671.277 175.88 671.277 169.706C671.277 164.93 674.793 159.431 685.823 159.431C698.924 159.431 701.524 166.763 701.524 171.877C701.524 171.877 696.419 171.877 693.818 171.877C693.818 169.561 692.807 166.088 685.823 166.088C680.14 166.088 678.839 168.114 678.839 169.754C678.839 171.539 680.814 172.214 686.449 173.131Z" fill="#F8F8F8"/>
<g clip-path="url(#clip1_248_9067)">
<mask id="mask0_248_9067" style="mask-type:luminance" maskUnits="userSpaceOnUse" x="750" y="0" width="194" height="194">
<path d="M931.176 0.301758H763.539C756.457 0.301758 750.717 6.04224 750.717 13.1235V180.761C750.717 187.842 756.457 193.583 763.539 193.583H931.176C938.258 193.583 943.998 187.842 943.998 180.761V13.1235C943.998 6.04224 938.258 0.301758 931.176 0.301758Z" fill="white"/>
</mask>
<g mask="url(#mask0_248_9067)">
<path d="M763.743 273.795C808.001 273.795 843.879 237.917 843.879 193.659C843.879 149.401 808.001 113.523 763.743 113.523C719.485 113.523 683.607 149.401 683.607 193.659C683.607 237.917 719.485 273.795 763.743 273.795Z" stroke="#F8F8F8" stroke-width="8.01358" stroke-miterlimit="10"/>
<path d="M763.743 257.768C799.15 257.768 827.852 229.066 827.852 193.659C827.852 158.253 799.15 129.551 763.743 129.551C728.337 129.551 699.635 158.253 699.635 193.659C699.635 229.066 728.337 257.768 763.743 257.768Z" stroke="#F8F8F8" stroke-width="8.01358" stroke-miterlimit="10"/>
<path d="M763.742 241.74C790.296 241.74 811.823 220.213 811.823 193.659C811.823 167.104 790.296 145.577 763.742 145.577C737.187 145.577 715.66 167.104 715.66 193.659C715.66 220.213 737.187 241.74 763.742 241.74Z" stroke="#F8F8F8" stroke-width="8.01358" stroke-miterlimit="10"/>
<path d="M763.743 305.849C825.704 305.849 875.933 255.62 875.933 193.659C875.933 131.698 825.704 81.4688 763.743 81.4688C701.782 81.4688 651.553 131.698 651.553 193.659C651.553 255.62 701.782 305.849 763.743 305.849Z" stroke="#F8F8F8" stroke-width="8.01358" stroke-miterlimit="10"/>
<path d="M763.743 289.821C816.852 289.821 859.906 246.767 859.906 193.658C859.906 140.549 816.852 97.4951 763.743 97.4951C710.634 97.4951 667.58 140.549 667.58 193.658C667.58 246.767 710.634 289.821 763.743 289.821Z" stroke="#F8F8F8" stroke-width="8.01358" stroke-miterlimit="10"/>
<path d="M763.744 225.714C781.447 225.714 795.798 211.363 795.798 193.66C795.798 175.957 781.447 161.605 763.744 161.605C746.041 161.605 731.689 175.957 731.689 193.66C731.689 211.363 746.041 225.714 763.744 225.714Z" stroke="#F8F8F8" stroke-width="8.01358" stroke-miterlimit="10"/>
<mask id="mask1_248_9067" style="mask-type:luminance" maskUnits="userSpaceOnUse" x="627" y="-67" width="248" height="202">
<path d="M874.33 56.5459C874.33 77.9325 868.89 98.0434 859.319 115.58C836.685 87.911 802.278 70.2491 763.743 70.2491C716.972 70.2491 676.276 96.2676 655.344 134.621C637.949 113.349 627.512 86.1673 627.512 56.5459C627.512 -11.6112 682.764 -66.8633 750.921 -66.8633C819.078 -66.8633 874.33 -11.6112 874.33 56.5459Z" fill="white"/>
</mask>
<g mask="url(#mask1_248_9067)">
<path d="M750.923 152.711C795.181 152.711 831.059 116.833 831.059 72.5753C831.059 28.3175 795.181 -7.56055 750.923 -7.56055C706.665 -7.56055 670.787 28.3175 670.787 72.5753C670.787 116.833 706.665 152.711 750.923 152.711Z" stroke="#F8F8F8" stroke-width="8.01358" stroke-miterlimit="10"/>
<path d="M750.923 136.684C786.329 136.684 815.032 107.982 815.032 72.5755C815.032 37.1692 786.329 8.4668 750.923 8.4668C715.517 8.4668 686.814 37.1692 686.814 72.5755C686.814 107.982 715.517 136.684 750.923 136.684Z" stroke="#F8F8F8" stroke-width="8.01358" stroke-miterlimit="10"/>
<path d="M750.921 120.656C777.476 120.656 799.003 99.1293 799.003 72.5747C799.003 46.02 777.476 24.4932 750.921 24.4932C724.367 24.4932 702.84 46.02 702.84 72.5747C702.84 99.1293 724.367 120.656 750.921 120.656Z" stroke="#F8F8F8" stroke-width="8.01358" stroke-miterlimit="10"/>
<path d="M750.923 184.765C812.883 184.765 863.113 134.536 863.113 72.5749C863.113 10.614 812.883 -39.6152 750.923 -39.6152C688.962 -39.6152 638.732 10.614 638.732 72.5749C638.732 134.536 688.962 184.765 750.923 184.765Z" stroke="#F8F8F8" stroke-width="8.01358" stroke-miterlimit="10"/>
<path d="M750.923 168.738C804.032 168.738 847.086 125.684 847.086 72.5751C847.086 19.4657 804.032 -23.5879 750.923 -23.5879C697.813 -23.5879 654.76 19.4657 654.76 72.5751C654.76 125.684 697.813 168.738 750.923 168.738Z" stroke="#F8F8F8" stroke-width="8.01358" stroke-miterlimit="10"/>
<path d="M750.923 104.63C768.627 104.63 782.978 90.2789 782.978 72.5758C782.978 54.8727 768.627 40.5215 750.923 40.5215C733.22 40.5215 718.869 54.8727 718.869 72.5758C718.869 90.2789 733.22 104.63 750.923 104.63Z" stroke="#F8F8F8" stroke-width="8.01358" stroke-miterlimit="10"/>
</g>
<mask id="mask2_248_9067" style="mask-type:luminance" maskUnits="userSpaceOnUse" x="850" y="-42" width="218" height="247">
<path d="M1067.24 81.5517C1067.24 149.709 1011.99 204.961 943.832 204.961C923.388 204.961 904.104 199.989 887.125 191.187C886.622 165.342 878.169 141.442 864.107 121.834C870.685 106.746 874.332 90.0878 874.332 72.5765C874.332 45.5772 865.662 20.6036 850.955 0.287609C873.576 -25.545 906.797 -41.8574 943.832 -41.8574C1011.99 -41.8574 1067.24 13.3946 1067.24 81.5517Z" fill="white"/>
</mask>
<g mask="url(#mask2_248_9067)">
<path d="M943.831 161.692C988.089 161.692 1023.97 125.814 1023.97 81.5557C1023.97 37.298 988.089 1.41992 943.831 1.41992C899.573 1.41992 863.695 37.298 863.695 81.5557C863.695 125.814 899.573 161.692 943.831 161.692Z" stroke="#F8F8F8" stroke-width="8.01358" stroke-miterlimit="10"/>
<path d="M943.831 145.665C979.238 145.665 1007.94 116.962 1007.94 81.5559C1007.94 46.1497 979.238 17.4473 943.831 17.4473C908.425 17.4473 879.723 46.1497 879.723 81.5559C879.723 116.962 908.425 145.665 943.831 145.665Z" stroke="#F8F8F8" stroke-width="8.01358" stroke-miterlimit="10"/>
<path d="M943.83 129.637C970.384 129.637 991.911 108.11 991.911 81.5551C991.911 55.0005 970.384 33.4736 943.83 33.4736C917.275 33.4736 895.748 55.0005 895.748 81.5551C895.748 108.11 917.275 129.637 943.83 129.637Z" stroke="#F8F8F8" stroke-width="8.01358" stroke-miterlimit="10"/>
<path d="M943.831 193.746C1005.79 193.746 1056.02 143.516 1056.02 81.5554C1056.02 19.5945 1005.79 -30.6348 943.831 -30.6348C881.87 -30.6348 831.641 19.5945 831.641 81.5554C831.641 143.516 881.87 193.746 943.831 193.746Z" stroke="#F8F8F8" stroke-width="8.01358" stroke-miterlimit="10"/>
<path d="M943.831 177.719C996.94 177.719 1039.99 134.665 1039.99 81.5556C1039.99 28.4462 996.94 -14.6074 943.831 -14.6074C890.722 -14.6074 847.668 28.4462 847.668 81.5556C847.668 134.665 890.722 177.719 943.831 177.719Z" stroke="#F8F8F8" stroke-width="8.01358" stroke-miterlimit="10"/>
<path d="M943.832 113.611C961.535 113.611 975.886 99.2594 975.886 81.5563C975.886 63.8532 961.535 49.502 943.832 49.502C926.129 49.502 911.777 63.8532 911.777 81.5563C911.777 99.2594 926.129 113.611 943.832 113.611Z" stroke="#F8F8F8" stroke-width="8.01358" stroke-miterlimit="10"/>
</g>
</g>
</g>
</g>
<defs>
<clipPath id="clip0_248_9067">
<rect width="944" height="193.405" fill="white" transform="translate(0 0.297852)"/>
</clipPath>
<clipPath id="clip1_248_9067">
<rect width="193.281" height="193.281" fill="white" transform="translate(750.711 0.298828)"/>
</clipPath>
</defs>
</svg>
