<svg width="56" height="56" viewBox="0 0 56 56" fill="none" xmlns="http://www.w3.org/2000/svg">
<g clip-path="url(#clip0_452_139)">
<path d="M55.125 16.623H28.875C28.3911 16.623 28 17.0142 28 17.498C28 17.9819 28.3911 18.373 28.875 18.373V19.2332C28.875 23.5662 30.9942 27.403 34.2405 29.7944L29.7824 46.1447C29.7719 46.184 29.7797 46.2217 29.7745 46.261C29.7692 46.2995 29.7517 46.3345 29.7517 46.3748C29.7517 46.3949 29.7622 46.4115 29.7631 46.4308C29.7675 46.4929 29.7824 46.5489 29.799 46.6075C29.8139 46.6609 29.8261 46.7108 29.8506 46.7598C29.8751 46.8097 29.9084 46.8508 29.9416 46.8954C29.9766 46.9409 30.009 46.9855 30.0528 47.0232C30.0921 47.0582 30.1376 47.0835 30.1822 47.1115C30.2356 47.143 30.2855 47.1728 30.345 47.1938C30.3634 47.1999 30.3774 47.2139 30.3975 47.2192C30.4728 47.2402 30.5489 47.2489 30.625 47.2498H30.6267H33.2517C33.3602 47.2498 33.4653 47.2253 33.5633 47.1868C33.5965 47.1737 33.6245 47.1544 33.656 47.1378C33.7173 47.1054 33.7741 47.0695 33.8258 47.0232C33.8555 46.9969 33.8809 46.9681 33.9071 46.9383C33.9491 46.8884 33.9841 46.8359 34.0148 46.7773C34.0349 46.7397 34.0533 46.7038 34.0681 46.6635C34.0751 46.6425 34.0891 46.6259 34.0952 46.604L35.3509 41.9998H48.6474L49.9039 46.6049C49.91 46.6268 49.924 46.6434 49.931 46.6644C49.9459 46.7047 49.9634 46.7405 49.9844 46.7782C50.015 46.8359 50.05 46.8893 50.092 46.9392C50.1183 46.9689 50.1436 46.9969 50.1734 47.024C50.2259 47.0704 50.2819 47.1063 50.3431 47.1387C50.3746 47.1553 50.4026 47.1745 50.4359 47.1877C50.5347 47.2253 50.6389 47.2498 50.7474 47.2498H53.3733H53.375C53.4511 47.2489 53.5273 47.2402 53.6034 47.2192C53.6226 47.2139 53.6366 47.1999 53.6559 47.1938C53.7145 47.1737 53.7652 47.143 53.8186 47.1115C53.865 47.0844 53.9096 47.0582 53.9481 47.0232C53.9919 46.9855 54.0243 46.9409 54.0593 46.8954C54.0925 46.8517 54.1258 46.8097 54.1503 46.7607C54.1748 46.7117 54.1879 46.6609 54.2027 46.6084C54.2194 46.5498 54.2342 46.4929 54.2386 46.4317C54.2395 46.4124 54.25 46.3958 54.25 46.3757C54.25 46.3354 54.2316 46.3004 54.2272 46.2619C54.222 46.2225 54.2299 46.1849 54.2194 46.1455L49.7612 29.7953C53.0057 27.403 55.125 23.567 55.125 19.2332V18.373C55.6089 18.373 56 17.9819 56 17.498C56 17.0142 55.6089 16.623 55.125 16.623ZM36.4998 31.134L32.5832 45.4998H31.7713L35.7831 30.7884C36.0159 30.9144 36.2583 31.0229 36.4998 31.134ZM45.8605 31.7772L47.4582 37.6353H36.5409L38.1377 31.7763C39.3592 32.1534 40.6569 32.3582 42 32.3582C43.3431 32.3582 44.6399 32.1543 45.8605 31.7772ZM35.8286 40.2498L36.064 39.3862H47.9351L48.1714 40.2498H35.8286ZM52.2279 45.4998H51.4159L47.4985 31.1349C47.7391 31.0229 47.9832 30.9144 48.2151 30.7884L52.2279 45.4998ZM42 30.6082C35.728 30.6082 30.625 25.5052 30.625 19.2332V18.373H50.75V19.2332C50.75 24.0579 46.8247 27.9832 42 27.9832C41.5161 27.9832 41.125 28.3743 41.125 28.8582C41.125 29.342 41.5161 29.7332 42 29.7332C47.7899 29.7332 52.5 25.023 52.5 19.2332V18.373H53.375V19.2332C53.375 25.5052 48.272 30.6082 42 30.6082Z" fill="#F8F8F8"/>
<path d="M27.1268 24.5009H26.2491V22.75C26.2491 22.2661 25.858 21.875 25.3741 21.875H24.0161C24.045 21.7333 24.0607 21.5871 24.0607 21.4375C24.0607 20.9431 23.8901 20.4916 23.6119 20.125C23.8892 19.7584 24.0607 19.3069 24.0607 18.8125C24.0607 17.6059 23.0799 16.625 21.8732 16.625H17.9375C16.7309 16.625 15.75 17.6059 15.75 18.8125C15.75 19.3069 15.9206 19.7584 16.1989 20.125C15.9206 20.4916 15.75 20.9431 15.75 21.4375C15.75 21.5871 15.7658 21.7333 15.7946 21.875H14.875C14.3911 21.875 14 22.2661 14 22.75V24.5009H13.125V19.2404C13.125 18.2753 12.3401 17.4904 11.375 17.4904V16.625C11.375 16.1411 10.9839 15.75 10.5 15.75C10.0161 15.75 9.625 16.1411 9.625 16.625V17.4904C8.65987 17.4904 7.875 18.2753 7.875 19.2404V24.5009H7V19.2404C7 18.2753 6.21513 17.4904 5.25 17.4904V16.625C5.25 16.1411 4.85887 15.75 4.375 15.75C3.89112 15.75 3.5 16.1411 3.5 16.625V17.4904C2.53487 17.4904 1.75 18.2753 1.75 19.2404V24.5009H0.875C0.391125 24.5009 0 24.892 0 25.3759V28C0 28.4839 0.391125 28.875 0.875 28.875H1.75V46.3733C1.75 46.8571 2.14112 47.2483 2.625 47.2483H5.25C5.73387 47.2483 6.125 46.8571 6.125 46.3733V28.875H21.8741V46.3733C21.8741 46.8571 22.2653 47.2483 22.7491 47.2483H25.3741C25.858 47.2483 26.2491 46.8571 26.2491 46.3733V28.875H27.1268C27.6106 28.875 28.0017 28.4839 28.0017 28V25.3759C28.0017 24.892 27.6106 24.5009 27.1268 24.5009ZM17.9375 19.25C17.6969 19.25 17.5 19.0531 17.5 18.8125C17.5 18.5719 17.6969 18.375 17.9375 18.375H21.8732C22.1139 18.375 22.3107 18.5719 22.3107 18.8125C22.3107 19.0531 22.1139 19.25 21.8732 19.25H17.9375ZM17.5 21.4375C17.5 21.1969 17.6969 21 17.9375 21H21.8732C22.1139 21 22.3107 21.1969 22.3107 21.4375C22.3107 21.6781 22.1139 21.875 21.8732 21.875H17.9375C17.6969 21.875 17.5 21.6781 17.5 21.4375ZM15.75 23.625H24.4991V24.5009H15.75V23.625ZM9.625 19.2404H11.375L11.3724 24.5009H9.625V19.2404ZM3.5 19.2404H5.25L5.24738 24.5009H3.5V19.2404ZM3.5 26.2509H5.25H9.625H11.375H26.2518V27.125H1.75V26.2509H3.5ZM4.375 45.4983H3.5V28.875H4.375V45.4983ZM24.4991 45.4983H23.6241V28.875H24.4991V45.4983Z" fill="#F8F8F8"/>
<path d="M35.6546 9.04442C35.3334 8.68217 34.7804 8.64979 34.4199 8.97179C34.3578 9.02692 32.9237 10.3412 34.2388 12.6792C34.8312 13.7327 34.4409 14.1947 34.4199 14.2218C34.0586 14.542 34.0262 15.0959 34.3473 15.4564C34.5197 15.6515 34.7603 15.7504 35.0009 15.7504C35.2074 15.7504 35.4157 15.6778 35.5819 15.529C35.6441 15.4739 37.0782 14.1597 35.7631 11.8217C35.1821 10.7883 35.5452 10.3237 35.6029 10.2598C35.9442 9.93604 35.9687 9.39792 35.6546 9.04442Z" fill="#F8F8F8"/>
<path d="M42.6546 9.04442C42.3334 8.68217 41.7796 8.64979 41.4199 8.97179C41.3578 9.02692 39.9237 10.3412 41.2388 12.6792C41.8312 13.7327 41.4409 14.1947 41.4199 14.2218C41.0586 14.542 41.0262 15.0959 41.3473 15.4564C41.5197 15.6515 41.7603 15.7504 42.0009 15.7504C42.2074 15.7504 42.4157 15.6778 42.5819 15.529C42.6441 15.4739 44.0782 14.1597 42.7631 11.8217C42.1821 10.7883 42.5452 10.3237 42.6029 10.2598C42.9442 9.93604 42.9687 9.39792 42.6546 9.04442Z" fill="#F8F8F8"/>
<path d="M49.6546 9.04442C49.3343 8.68217 48.7796 8.64979 48.4199 8.97179C48.3578 9.02692 46.9237 10.3412 48.2388 12.6792C48.8312 13.7327 48.4409 14.1947 48.4199 14.2218C48.0586 14.542 48.0262 15.0959 48.3473 15.4564C48.5197 15.6515 48.7603 15.7504 49.0009 15.7504C49.2074 15.7504 49.4157 15.6778 49.5819 15.529C49.6441 15.4739 51.0782 14.1597 49.7631 11.8217C49.1821 10.7883 49.5452 10.3237 49.6029 10.2598C49.9442 9.93604 49.9687 9.39792 49.6546 9.04442Z" fill="#F8F8F8"/>
</g>
<defs>
<clipPath id="clip0_452_139">
<rect width="56" height="56" fill="white"/>
</clipPath>
</defs>
</svg>
