<svg width="56" height="56" viewBox="0 0 56 56" fill="none" xmlns="http://www.w3.org/2000/svg">
<g clip-path="url(#clip0_452_113)">
<path d="M53.2 30H52.2667V9.00001C52.2667 3.99997 48.5334 0 43.8667 0C39.7356 0 36.7644 3.28196 36.432 8.09075C34.2632 8.52997 32.6667 10.5313 32.6667 13C32.6667 13.6 33.04 13.9999 33.6 13.9999H41.0667C41.6267 13.9999 42 13.6 42 13C42 10.5586 40.4388 8.57392 38.3067 8.1054C38.5856 4.92774 40.3669 1.99992 43.8667 1.99992C47.5067 1.99992 50.4 5.09989 50.4 8.99989V29.9999H22.3098C21.8876 27.6936 20.0262 26 17.7334 26C16.8001 24.8 15.4934 23.9999 14.0001 23.9999C12.2268 23.9999 10.6401 25.1 9.89341 26.6999C9.1467 26.3 8.3067 26 7.4667 26C5.17387 26 3.31253 27.6936 2.89034 29.9999H2.8C1.2133 29.9999 0 31.2999 0 32.9999C0 34.7 1.2133 35.9999 2.8 35.9999H3.92164L6.44 46.7C7.1867 49.7999 9.8 52 12.7867 52H13.5334L12.3201 54.6001C12.0401 55.1001 12.2268 55.7001 12.6934 55.9C12.7867 56 12.9734 56 13.0667 56C13.44 56 13.72 55.8 13.9067 55.5L15.54 52H41.44L43.0267 55.4C43.2134 55.8 43.4934 56 43.8667 56C44.0534 56 44.1467 56 44.24 55.8C44.6133 55.5999 44.8 54.9999 44.6133 54.5L43.4442 51.9946C46.3338 51.8847 48.8327 49.7224 49.56 46.7999L52.1019 35.9999H53.2C54.7867 35.9999 56 34.7 56 32.9999C56 31.3 54.7867 30 53.2 30ZM40.04 12H34.72C35.0933 10.8 36.2133 9.99997 37.4267 9.99997C38.6401 9.99997 39.6667 10.8 40.04 12ZM7.4667 28C8.3067 28 9.05341 28.4 9.7067 29.1C9.89341 29.4 10.2667 29.5 10.64 29.4C11.0133 29.3001 11.2 29.0001 11.2933 28.6C11.5733 27.1 12.6933 26 14.0933 26C15.12 26 16.0533 26.5 16.52 27.5C16.7067 27.8999 17.1733 28.1 17.5467 28C17.64 28 17.7334 28 17.8267 28C19.04 28 20.0667 28.8 20.44 30H4.8533C5.2267 28.8 6.2533 28 7.4667 28ZM47.88 46.2001C47.32 48.4 45.4533 50.0001 43.3067 50.0001H12.88C10.7333 50.0001 8.8667 48.4001 8.3067 46.2001L5.88 36H50.12L47.88 46.2001ZM53.2 34H51.3333H4.6667H2.8C2.24 34 1.8667 33.6 1.8667 33C1.8667 32.4 2.24 32.0001 2.8 32.0001H3.7333H21.4666H53.2C53.76 32.0001 54.1333 32.4 54.1333 33C54.1333 33.6 53.76 34 53.2 34Z" fill="#F8F8F8"/>
<path d="M33.5993 18.5C34.1593 18.5 34.5326 18.1 34.5326 17.5V17C34.5326 16.4 34.1593 16 33.5993 16C33.0393 16 32.666 16.4 32.666 17V17.5C32.666 18.1 33.0393 18.5 33.5993 18.5Z" fill="#F8F8F8"/>
<path d="M33.5993 23.1C34.1593 23.1 34.5326 22.5999 34.5326 22.1V21C34.5326 20.4 34.1593 20 33.5993 20C33.0393 20 32.666 20.4 32.666 21V22.1C32.666 22.6999 33.0393 23.1 33.5993 23.1Z" fill="#F8F8F8"/>
<path d="M33.5993 27C34.1593 27 34.5326 26.6 34.5326 26V25.5C34.5326 24.9 34.1593 24.5 33.5993 24.5C33.0393 24.5 32.666 24.9 32.666 25.5V26C32.666 26.5999 33.0393 27 33.5993 27Z" fill="#F8F8F8"/>
<path d="M37.3337 18.5C37.8937 18.5 38.267 18.1 38.267 17.5V17C38.267 16.4 37.8937 16 37.3337 16C36.7737 16 36.4004 16.4 36.4004 17V17.5C36.4004 18.1 36.7737 18.5 37.3337 18.5Z" fill="#F8F8F8"/>
<path d="M36.4004 22.1C36.4004 22.7 36.7737 23.1 37.3337 23.1C37.8937 23.1 38.267 22.5999 38.267 22.1V21C38.267 20.4 37.8937 20 37.3337 20C36.7737 20 36.4004 20.4 36.4004 21V22.1Z" fill="#F8F8F8"/>
<path d="M36.4004 26C36.4004 26.6 36.7737 27 37.3337 27C37.8937 27 38.267 26.6 38.267 26V25.5C38.267 24.9 37.8937 24.5 37.3337 24.5C36.7737 24.5 36.4004 24.9 36.4004 25.5V26Z" fill="#F8F8F8"/>
<path d="M41.0661 18.5C41.6261 18.5 41.9994 18.1 41.9994 17.5V17C41.9994 16.4 41.6261 16 41.0661 16C40.5061 16 40.1328 16.4 40.1328 17V17.5C40.1327 18.1 40.5061 18.5 41.0661 18.5Z" fill="#F8F8F8"/>
<path d="M40.1328 22.1C40.1328 22.7 40.5061 23.1 41.0661 23.1C41.6261 23.1 41.9995 22.6 41.9995 22.1V21C41.9995 20.4 41.6262 20 41.0662 20C40.5062 20 40.1329 20.4 40.1329 21L40.1328 22.1Z" fill="#F8F8F8"/>
<path d="M40.1328 26C40.1328 26.6 40.5061 27 41.0661 27C41.6261 27 41.9994 26.6 41.9994 26V25.5C41.9994 24.9 41.6261 24.5 41.0661 24.5C40.5061 24.5 40.1328 24.9 40.1328 25.5V26Z" fill="#F8F8F8"/>
</g>
<defs>
<clipPath id="clip0_452_113">
<rect width="56" height="56" fill="white"/>
</clipPath>
</defs>
</svg>
