<svg width="56" height="56" viewBox="0 0 56 56" fill="none" xmlns="http://www.w3.org/2000/svg">
<g clip-path="url(#clip0_452_526)">
<path d="M55.0667 11.1992H38.2667C37.7512 11.1992 37.3333 11.6171 37.3333 12.1326V33.5992H16.8V30.7992C16.8 30.2838 16.3821 29.8659 15.8667 29.8659H13.0667V31.7326H14.9333V33.5992H11.2V29.8659H9.33333V33.5992H5.6V31.7326H7.46667V29.8659H4.66667C4.15124 29.8659 3.73333 30.2838 3.73333 30.7992V33.5992H0.933333C0.417904 33.5992 0 34.0171 0 34.5326V55.0659C0 55.5813 0.417904 55.9992 0.933333 55.9992H55.0667C55.5821 55.9992 56 55.5813 56 55.0659V12.1326C56 11.6171 55.5821 11.1992 55.0667 11.1992ZM39.2 13.0659H54.1333V24.2659H39.2V13.0659ZM37.3333 39.1992H20.5333V35.4659H37.3333V39.1992ZM1.86667 35.4659H18.6667V39.1992H1.86667V35.4659ZM1.86667 41.0659H18.6667V54.1326H1.86667V41.0659ZM20.5333 41.0659H28V54.1326H20.5333V41.0659ZM29.8667 41.0659H37.3333V54.1326H29.8667V41.0659ZM39.2 54.1326V26.1326H54.1333V54.1326H39.2Z" fill="#F8F8F8"/>
<path d="M41.0664 16.8008H42.9331V20.5341H41.0664V16.8008Z" fill="#F8F8F8"/>
<path d="M41.0664 29.8672H42.9331V33.6005H41.0664V29.8672Z" fill="#F8F8F8"/>
<path d="M5.59909 37.3337C5.59909 37.8492 5.18119 38.2671 4.66576 38.2671C4.15033 38.2671 3.73242 37.8492 3.73242 37.3337C3.73242 36.8183 4.15033 36.4004 4.66576 36.4004C5.18119 36.4004 5.59909 36.8183 5.59909 37.3337Z" fill="#F8F8F8"/>
<path d="M9.33346 37.3337C9.33346 37.8492 8.91556 38.2671 8.40013 38.2671C7.8847 38.2671 7.4668 37.8492 7.4668 37.3337C7.4668 36.8183 7.8847 36.4004 8.40013 36.4004C8.91556 36.4004 9.33346 36.8183 9.33346 37.3337Z" fill="#F8F8F8"/>
<path d="M13.0659 37.3337C13.0659 37.8492 12.648 38.2671 12.1326 38.2671C11.6171 38.2671 11.1992 37.8492 11.1992 37.3337C11.1992 36.8183 11.6171 36.4004 12.1326 36.4004C12.648 36.4004 13.0659 36.8183 13.0659 37.3337Z" fill="#F8F8F8"/>
<path d="M16.8003 37.3337C16.8003 37.8492 16.3824 38.2671 15.8669 38.2671C15.3515 38.2671 14.9336 37.8492 14.9336 37.3337C14.9336 36.8183 15.3515 36.4004 15.8669 36.4004C16.3824 36.4004 16.8003 36.8183 16.8003 37.3337Z" fill="#F8F8F8"/>
<path d="M0.933333 17.7333H19.6C20.1154 17.7333 20.5333 17.3154 20.5333 16.8V14C20.5333 13.7525 20.4349 13.5151 20.2599 13.3401L16.5266 9.60677C16.3516 9.43177 16.1141 9.33333 15.8667 9.33333H14.9333V0.933333C14.9333 0.417904 14.5154 0 14 0H6.53333C6.0179 0 5.6 0.417904 5.6 0.933333V9.33333H4.66667C4.41921 9.33333 4.18177 9.43177 4.00677 9.60677L0.273438 13.3401C0.0984375 13.5151 0 13.7525 0 14V16.8C0 17.3154 0.417904 17.7333 0.933333 17.7333ZM7.46667 1.86667H13.0667V9.33333H7.46667V1.86667ZM1.86667 14.3865L5.05313 11.2H15.4802L18.6667 14.3865V15.8667H1.86667V14.3865Z" fill="#F8F8F8"/>
<path d="M15.8658 42.9336H4.66576C4.15033 42.9336 3.73242 43.3515 3.73242 43.8669V51.3336C3.73242 51.849 4.15033 52.2669 4.66576 52.2669H15.8658C16.3812 52.2669 16.7991 51.849 16.7991 51.3336V43.8669C16.7991 43.3515 16.3812 42.9336 15.8658 42.9336ZM14.9324 50.4003H5.59909V44.8003H14.9324V50.4003Z" fill="#F8F8F8"/>
<path d="M27.0664 36.4004H30.7997V38.2671H27.0664V36.4004Z" fill="#F8F8F8"/>
<path d="M24.2676 45.7324H26.1342V49.4658H24.2676V45.7324Z" fill="#F8F8F8"/>
<path d="M31.7324 45.7324H33.5991V49.4658H31.7324V45.7324Z" fill="#F8F8F8"/>
<path d="M22.4001 23.3333H28.0001C28.5156 23.3333 28.9335 22.9154 28.9335 22.4V21.4667C28.9271 19.7695 27.7768 18.2902 26.1335 17.866V0H24.2668V17.866C22.6234 18.2902 21.4732 19.7695 21.4668 21.4667V22.4C21.4668 22.9154 21.8847 23.3333 22.4001 23.3333ZM25.2001 19.6C26.231 19.6 27.0668 20.4358 27.0668 21.4667H23.3335C23.3335 20.4358 24.1693 19.6 25.2001 19.6Z" fill="#F8F8F8"/>
<path d="M28.9333 15.8667H34.5333C35.0488 15.8667 35.4667 15.4488 35.4667 14.9333V14C35.4603 12.3029 34.31 10.8236 32.6667 10.3993V0H30.8V10.3993C29.1566 10.8236 28.0064 12.3029 28 14V14.9333C28 15.4488 28.4179 15.8667 28.9333 15.8667ZM31.7333 12.1333C32.7642 12.1333 33.6 12.9691 33.6 14H29.8667C29.8667 12.9691 30.7025 12.1333 31.7333 12.1333Z" fill="#F8F8F8"/>
</g>
<defs>
<clipPath id="clip0_452_526">
<rect width="56" height="56" fill="white"/>
</clipPath>
</defs>
</svg>
