<svg width="57" height="56" viewBox="0 0 57 56" fill="none" xmlns="http://www.w3.org/2000/svg">
<path d="M19.911 21.875H11.875C11.6431 21.875 11.42 21.9669 11.2564 22.1314L8.01275 25.375H7.339C6.97675 24.3591 6.01425 23.625 4.875 23.625C3.42775 23.625 2.25 24.8027 2.25 26.25C2.25 27.6973 3.42775 28.875 4.875 28.875C6.01425 28.875 6.97675 28.1409 7.339 27.125H8.375C8.60687 27.125 8.83 27.0331 8.99362 26.8686L12.2372 23.625H19.911C20.2733 24.6409 21.2358 25.375 22.375 25.375C23.04 25.375 23.6403 25.1186 24.1031 24.71L27.6687 26.6936C27.6451 26.8345 27.625 26.9771 27.625 27.125C27.625 28.5723 28.8027 29.75 30.25 29.75C31.6973 29.75 32.875 28.5723 32.875 27.125C32.875 26.9771 32.8549 26.8345 32.8313 26.6936L36.3969 24.71C36.8598 25.1186 37.46 25.375 38.125 25.375C39.5723 25.375 40.75 24.1973 40.75 22.75C40.75 21.6108 40.0159 20.6482 39 20.286V16.4631C40.0159 16.1009 40.75 15.1384 40.75 13.9991C40.75 12.5519 39.5723 11.3741 38.125 11.3741C37.46 11.3741 36.8598 11.6305 36.3969 12.0391L32.8313 10.0555C32.8549 9.9155 32.875 9.77288 32.875 9.625C32.875 8.17775 31.6973 7 30.25 7C28.8027 7 27.625 8.17775 27.625 9.625C27.625 9.77288 27.6451 9.9155 27.6687 10.0564L24.1031 12.04C23.6403 11.6314 23.04 11.375 22.375 11.375C21.2358 11.375 20.2733 12.1091 19.911 13.125H12.2372L8.99362 9.88138C8.83 9.71688 8.60687 9.625 8.375 9.625H7.339C6.97675 8.60913 6.01425 7.875 4.875 7.875C3.42775 7.875 2.25 9.05275 2.25 10.5C2.25 11.9472 3.42775 13.125 4.875 13.125C6.01425 13.125 6.97675 12.3909 7.339 11.375H8.01275L11.2564 14.6186C11.42 14.7831 11.6431 14.875 11.875 14.875H19.911C20.1752 15.6161 20.7589 16.1997 21.5 16.464V17.5H7.339C6.97675 16.4841 6.01425 15.75 4.875 15.75C3.42775 15.75 2.25 16.9277 2.25 18.375C2.25 19.8223 3.42775 21 4.875 21C6.01425 21 6.97675 20.2659 7.339 19.25H21.5V20.286C20.7589 20.5503 20.1752 21.1339 19.911 21.875ZM4.875 27.125C4.39287 27.125 4 26.7321 4 26.25C4 25.7679 4.39287 25.375 4.875 25.375C5.35713 25.375 5.75 25.7679 5.75 26.25C5.75 26.7321 5.35713 27.125 4.875 27.125ZM4.875 11.375C4.39287 11.375 4 10.9821 4 10.5C4 10.0179 4.39287 9.625 4.875 9.625C5.35713 9.625 5.75 10.0179 5.75 10.5C5.75 10.9821 5.35713 11.375 4.875 11.375ZM4.875 19.25C4.39287 19.25 4 18.8571 4 18.375C4 17.8929 4.39287 17.5 4.875 17.5C5.35713 17.5 5.75 17.8929 5.75 18.375C5.75 18.8571 5.35713 19.25 4.875 19.25ZM22.375 23.625C21.8929 23.625 21.5 23.2321 21.5 22.75C21.5 22.2679 21.8929 21.875 22.375 21.875C22.8571 21.875 23.25 22.2679 23.25 22.75C23.25 23.2321 22.8571 23.625 22.375 23.625ZM24.1031 15.96L27.6687 17.9436C27.6451 18.0845 27.625 18.2271 27.625 18.375C27.625 18.5229 27.6451 18.6655 27.6687 18.8064L24.1031 20.79C23.8546 20.5712 23.5676 20.3997 23.25 20.286V16.4631C23.5676 16.3503 23.8555 16.1796 24.1031 15.96ZM36.3969 20.79L32.8313 18.8064C32.8549 18.6655 32.875 18.5229 32.875 18.375C32.875 18.2271 32.8549 18.0845 32.8313 17.9436L36.3969 15.96C36.6454 16.1788 36.9324 16.3503 37.25 16.464V20.2869C36.9324 20.3997 36.6445 20.5704 36.3969 20.79ZM24.9563 22.3186L28.5219 20.335C28.7704 20.5538 29.0574 20.7253 29.375 20.839V24.6619C29.0574 24.7756 28.7695 24.9462 28.5219 25.1659L24.9563 23.1822C24.9799 23.0405 25 22.8979 25 22.75C25 22.6021 24.9799 22.4595 24.9563 22.3186ZM30.25 17.5C30.7321 17.5 31.125 17.8929 31.125 18.375C31.125 18.8571 30.7321 19.25 30.25 19.25C29.7679 19.25 29.375 18.8571 29.375 18.375C29.375 17.8929 29.7679 17.5 30.25 17.5ZM31.125 20.839C31.4426 20.7253 31.7305 20.5546 31.9781 20.335L35.5438 22.3186C35.5201 22.4595 35.5 22.6021 35.5 22.75C35.5 22.8979 35.5201 23.0405 35.5438 23.1814L31.9781 25.165C31.7296 24.9463 31.4426 24.7747 31.125 24.661V20.839ZM35.5438 14.4314L31.9781 16.415C31.7296 16.1962 31.4426 16.0247 31.125 15.911V12.0881C31.4426 11.9744 31.7305 11.8038 31.9781 11.5841L35.5438 13.5677C35.5201 13.7095 35.5 13.8521 35.5 14C35.5 14.1479 35.5201 14.2905 35.5438 14.4314ZM29.375 15.911C29.0574 16.0247 28.7695 16.1954 28.5219 16.415L24.9563 14.4314C24.9799 14.2905 25 14.1479 25 14C25 13.8521 24.9799 13.7095 24.9563 13.5686L28.5219 11.585C28.7704 11.8038 29.0574 11.9752 29.375 12.089V15.911ZM30.25 28C29.7679 28 29.375 27.6071 29.375 27.125C29.375 26.6429 29.7679 26.25 30.25 26.25C30.7321 26.25 31.125 26.6429 31.125 27.125C31.125 27.6071 30.7321 28 30.25 28ZM38.125 23.625C37.6429 23.625 37.25 23.2321 37.25 22.75C37.25 22.2679 37.6429 21.875 38.125 21.875C38.6071 21.875 39 22.2679 39 22.75C39 23.2321 38.6071 23.625 38.125 23.625ZM38.125 13.125C38.6071 13.125 39 13.5179 39 14C39 14.4821 38.6071 14.875 38.125 14.875C37.6429 14.875 37.25 14.4821 37.25 14C37.25 13.5179 37.6429 13.125 38.125 13.125ZM30.25 8.75C30.7321 8.75 31.125 9.14287 31.125 9.625C31.125 10.1071 30.7321 10.5 30.25 10.5C29.7679 10.5 29.375 10.1071 29.375 9.625C29.375 9.14287 29.7679 8.75 30.25 8.75ZM22.375 13.125C22.8571 13.125 23.25 13.5179 23.25 14C23.25 14.4821 22.8571 14.875 22.375 14.875C21.8929 14.875 21.5 14.4821 21.5 14C21.5 13.5179 21.8929 13.125 22.375 13.125Z" fill="#F8F8F8"/>
<path d="M20.6252 54.2504H34.6252C35.1082 54.2504 35.5002 53.8584 35.5002 53.3754V47.2504H46.8752C47.3582 47.2504 47.7502 46.8584 47.7502 46.3754V35.8754H53.8752C54.1535 35.8754 54.4151 35.7433 54.5805 35.5184C54.7458 35.2935 54.794 35.0048 54.7109 34.7388L50.3481 20.779C50.1731 15.4695 47.9314 10.5695 44.0184 6.95838C40.0599 3.30613 34.9017 1.47213 29.5056 1.78538C23.2948 2.1485 17.5408 5.55663 14.1135 10.9029L15.587 11.847C18.7134 6.97063 23.9546 3.86263 29.6088 3.53188C34.5272 3.24225 39.2268 4.91788 42.831 8.24463C46.4473 11.581 48.4975 16.1266 48.6042 21.0433C48.6077 21.1946 48.6524 21.3373 48.7276 21.4606L52.6852 34.1254H46.8752C46.3922 34.1254 46.0002 34.5174 46.0002 35.0004V38.5004H43.3752C41.928 38.5004 40.7502 37.3226 40.7502 35.8754H39.0002C39.0002 38.2878 40.9629 40.2504 43.3752 40.2504H46.0002V45.5004H34.6252C34.1422 45.5004 33.7502 45.8924 33.7502 46.3754V52.5004H21.5002V51.6543C21.5002 44.5746 19.3722 37.3358 15.3455 30.7199C14.4547 29.2569 13.7818 27.6775 13.3443 26.0264L11.6521 26.4744C12.1325 28.2883 12.8718 30.0225 13.8501 31.6299C17.7097 37.9719 19.7502 44.8958 19.7502 51.6543V53.3754C19.7502 53.8584 20.1422 54.2504 20.6252 54.2504Z" fill="#F8F8F8"/>
</svg>
