<svg width="57" height="56" viewBox="0 0 57 56" fill="none" xmlns="http://www.w3.org/2000/svg">
<path d="M46.3888 26.4448C46.3887 23.3722 45.5971 20.3514 44.0905 17.6736C42.5838 14.9958 40.4128 12.7511 37.7867 11.156C35.1606 9.56095 32.1679 8.66916 29.097 8.56661C26.0261 8.46406 22.9806 9.15421 20.2539 10.5705C17.5272 11.9869 15.2113 14.0817 13.5293 16.653C11.8474 19.2244 10.856 22.1856 10.6509 25.2513C10.4458 28.3171 11.0338 31.384 12.3582 34.1565C13.6827 36.929 15.6989 39.3136 18.2126 41.0805C18.2961 41.1394 18.3903 41.1812 18.49 41.2036C18.5896 41.2261 18.6927 41.2286 18.7934 41.2112C18.894 41.1938 18.9903 41.1567 19.0766 41.1021C19.1629 41.0475 19.2376 40.9764 19.2965 40.8929C19.3553 40.8094 19.3971 40.7152 19.4196 40.6155C19.442 40.5159 19.4446 40.4128 19.4271 40.3121C19.4097 40.2115 19.3726 40.1153 19.318 40.0289C19.2634 39.9426 19.1923 39.8679 19.1089 39.8091C15.9175 37.5668 13.6339 34.2566 12.6709 30.4771C11.7079 26.6976 12.1291 22.6982 13.8583 19.2022C15.5875 15.7062 18.5106 12.9444 22.0991 11.4161C25.6875 9.88788 29.7043 9.69412 33.4231 10.8699C37.142 12.0456 40.3174 14.5133 42.3751 17.8266C44.4328 21.1399 45.237 25.0802 44.6422 28.9348C44.0475 32.7895 42.0931 36.3041 39.1324 38.8431C36.1717 41.3822 32.4002 42.778 28.4999 42.7781H3.61103C3.40475 42.7781 3.20692 42.8601 3.06106 43.0059C2.9152 43.1518 2.83325 43.3496 2.83325 43.5559C2.83325 43.7622 2.9152 43.96 3.06106 44.1059C3.20692 44.2517 3.40475 44.3337 3.61103 44.3337H28.4999C33.2427 44.3284 37.7897 42.4419 41.1434 39.0883C44.4971 35.7346 46.3835 31.1876 46.3888 26.4448Z" fill="#F8F8F8"/>
<path d="M53.9386 43.0058L50.8275 39.8947C50.6812 39.751 50.4841 39.671 50.2791 39.6719C50.0741 39.6728 49.8777 39.7547 49.7327 39.8997C49.5877 40.0446 49.5059 40.241 49.5049 40.446C49.504 40.6511 49.5841 40.8482 49.7278 40.9945L51.5111 42.7779H37.8332C37.6269 42.7779 37.4291 42.8599 37.2832 43.0057C37.1374 43.1516 37.0554 43.3494 37.0554 43.5557C37.0554 43.762 37.1374 43.9598 37.2832 44.1057C37.4291 44.2515 37.6269 44.3335 37.8332 44.3335H51.5111L49.7277 46.1169C49.6547 46.189 49.5968 46.2747 49.5571 46.3693C49.5174 46.4638 49.4968 46.5653 49.4965 46.6678C49.4961 46.7704 49.5161 46.872 49.5552 46.9668C49.5943 47.0616 49.6517 47.1477 49.7243 47.2202C49.7968 47.2927 49.8829 47.3501 49.9777 47.3892C50.0725 47.4283 50.1741 47.4483 50.2766 47.448C50.3792 47.4476 50.4806 47.427 50.5752 47.3873C50.6697 47.3477 50.7555 47.2897 50.8275 47.2167L53.9386 44.1056C54.0109 44.0334 54.0682 43.9477 54.1073 43.8533C54.1464 43.759 54.1665 43.6578 54.1665 43.5557C54.1665 43.4536 54.1464 43.3524 54.1073 43.2581C54.0682 43.1637 54.0109 43.078 53.9386 43.0058Z" fill="#F8F8F8"/>
<path d="M28.4998 17.1112C30.2081 17.1072 31.8845 17.5741 33.3448 18.4606C34.8051 19.3471 35.9927 20.619 36.7774 22.1364C36.8725 22.3195 37.0364 22.4574 37.2331 22.5196C37.4298 22.5819 37.6432 22.5634 37.8263 22.4683C38.0094 22.3732 38.1473 22.2093 38.2095 22.0126C38.2718 21.8159 38.2533 21.6025 38.1582 21.4194C37.075 19.3362 35.3472 17.6591 33.2327 16.6383C31.1182 15.6175 28.7304 15.3077 26.4254 15.7552C24.1204 16.2026 22.0219 17.3833 20.4429 19.1211C18.864 20.8589 17.8891 23.0606 17.664 25.3978L16.6053 24.3391C16.5333 24.2658 16.4475 24.2075 16.3529 24.1676C16.2582 24.1276 16.1566 24.1068 16.0539 24.1063C15.9512 24.1059 15.8494 24.1258 15.7544 24.1649C15.6594 24.204 15.5731 24.2615 15.5005 24.3341C15.4279 24.4068 15.3703 24.4931 15.3312 24.5881C15.2921 24.683 15.2722 24.7848 15.2727 24.8876C15.2732 24.9903 15.294 25.0919 15.3339 25.1865C15.3739 25.2811 15.4322 25.3669 15.5055 25.4389L17.8388 27.7722C17.911 27.8445 17.9968 27.9018 18.0911 27.9409C18.1855 27.98 18.2866 28.0001 18.3887 28.0001C18.4909 28.0001 18.592 27.98 18.6864 27.9409C18.7807 27.9018 18.8664 27.8445 18.9386 27.7722L21.272 25.4389C21.3449 25.3669 21.4029 25.2811 21.4426 25.1865C21.4823 25.092 21.5029 24.9905 21.5032 24.888C21.5035 24.7854 21.4836 24.6839 21.4445 24.5891C21.4054 24.4943 21.3479 24.4081 21.2754 24.3356C21.2029 24.2631 21.1168 24.2057 21.022 24.1666C20.9272 24.1275 20.8256 24.1075 20.7231 24.1079C20.6205 24.1082 20.5191 24.1288 20.4245 24.1685C20.33 24.2082 20.2442 24.2662 20.1722 24.3391L19.2501 25.2612C19.5393 23.0112 20.6375 20.9434 22.3396 19.4436C24.0416 17.9439 26.2313 17.1149 28.4998 17.1112Z" fill="#F8F8F8"/>
<path d="M28.4999 37.3341C31.2053 37.3305 33.8127 36.3211 35.8154 34.5022C37.818 32.6832 39.0728 30.1846 39.3357 27.492L40.3944 28.5506C40.5407 28.6943 40.7378 28.7744 40.9429 28.7734C41.1479 28.7725 41.3443 28.6907 41.4893 28.5457C41.6342 28.4007 41.7161 28.2043 41.717 27.9993C41.718 27.7942 41.6379 27.5971 41.4942 27.4508L39.1609 25.1175C39.0887 25.0453 39.003 24.988 38.9086 24.9489C38.8142 24.9098 38.7131 24.8896 38.611 24.8896C38.5088 24.8896 38.4077 24.9098 38.3133 24.9489C38.219 24.988 38.1333 25.0453 38.0611 25.1175L35.7277 27.4508C35.5834 27.597 35.5028 27.7943 35.5034 27.9997C35.5041 28.2051 35.5859 28.402 35.7312 28.5472C35.8764 28.6924 36.0733 28.7743 36.2787 28.775C36.4841 28.7756 36.6814 28.695 36.8275 28.5506L37.7496 27.6285C37.4989 29.6001 36.6249 31.4401 35.2551 32.8801C33.8853 34.3201 32.0912 35.2849 30.1346 35.6337C28.178 35.9825 26.1611 35.6972 24.378 34.8193C22.5949 33.9414 21.1389 32.5168 20.2223 30.7533C20.1272 30.5702 19.9633 30.4324 19.7666 30.3701C19.5699 30.3079 19.3565 30.3263 19.1734 30.4214C18.9902 30.5165 18.8524 30.6804 18.7902 30.8771C18.7279 31.0738 18.7464 31.2872 18.8414 31.4703C19.757 33.241 21.1428 34.725 22.8467 35.7595C24.5505 36.7939 26.5066 37.3387 28.4999 37.3341Z" fill="#F8F8F8"/>
</svg>
