<svg width="56" height="56" viewBox="0 0 56 56" fill="none" xmlns="http://www.w3.org/2000/svg">
<g clip-path="url(#clip0_305_8532)">
<path d="M33.628 0.570213C33.3429 0.515783 33.0493 0.524827 32.7681 0.596704C32.4868 0.668581 32.2249 0.801525 32.0009 0.986087C31.7769 1.17065 31.5962 1.40229 31.4719 1.66456C31.3475 1.92682 31.2824 2.21327 31.2813 2.50353V25.8245C31.2806 26.0831 31.3312 26.3392 31.4301 26.5781C31.529 26.8171 31.6743 27.0341 31.8574 27.2166L48.3512 43.7103C48.5575 43.9147 48.8063 44.0711 49.0799 44.1685C49.3535 44.2659 49.6452 44.3018 49.9343 44.2737C50.2233 44.2455 50.5026 44.1541 50.7523 44.0059C51.002 43.8576 51.2161 43.6562 51.3791 43.4159C53.8977 39.5951 55.4416 35.2154 55.8757 30.6599C56.3098 26.1043 55.621 21.5118 53.8694 17.2841C52.1179 13.0564 49.357 9.32238 45.8283 6.40866C42.2997 3.49494 38.1107 1.49033 33.628 0.570213ZM50.2823 42.6918C50.2289 42.773 50.1578 42.8411 50.0743 42.8909C49.9909 42.9407 49.8972 42.9709 49.8004 42.9793C49.7036 42.9877 49.6061 42.9741 49.5153 42.9395C49.4245 42.9049 49.3427 42.8501 49.2761 42.7793L36.6625 30.1653C37.8472 28.7086 39.428 27.6257 41.2142 27.047C43.0005 26.4683 44.916 26.4186 46.7299 26.9038C48.5437 27.3891 50.1785 28.3886 51.4372 29.7819C52.6959 31.1752 53.5248 32.9028 53.8239 34.7565C53.0874 37.5782 51.8908 40.2593 50.2823 42.6918ZM40.1188 21.159C40.1187 20.3485 40.3589 19.5562 40.8091 18.8823C41.2593 18.2084 41.8992 17.6831 42.648 17.3729C43.3967 17.0627 44.2206 16.9815 45.0155 17.1396C45.8104 17.2976 46.5406 17.6879 47.1137 18.2609C47.6868 18.834 48.0771 19.5641 48.2352 20.359C48.3934 21.1538 48.3123 21.9778 48.0021 22.7265C47.692 23.4753 47.1668 24.1153 46.4929 24.5655C45.8191 25.0158 45.0268 25.2562 44.2164 25.2562C43.1301 25.255 42.0885 24.823 41.3204 24.0549C40.5522 23.2868 40.12 22.2453 40.1188 21.159ZM54.3865 32.0142C53.7329 30.4892 52.7477 29.1289 51.5026 28.0323C50.2575 26.9357 48.7837 26.1302 47.1883 25.6744C48.161 25.0349 48.9015 24.0987 49.2998 23.0048C49.6981 21.911 49.7329 20.7178 49.3991 19.6026C49.0654 18.4874 48.3808 17.5096 47.447 16.8144C46.5133 16.1192 45.3803 15.7437 44.2162 15.7437C43.0521 15.7437 41.919 16.1192 40.9853 16.8144C40.0516 17.5096 39.367 18.4874 39.0332 19.6026C38.6994 20.7178 38.7343 21.911 39.1325 23.0048C39.5308 24.0987 40.2713 25.0349 41.244 25.6744C39.0892 26.2771 37.1673 27.5182 35.7315 29.2343L32.7858 26.2887C32.7246 26.2278 32.6761 26.1554 32.643 26.0756C32.61 25.9959 32.5931 25.9104 32.5933 25.824V2.50353C32.5906 2.40663 32.6098 2.31038 32.6496 2.22197C32.6893 2.13357 32.7485 2.05529 32.8228 1.99301C32.8971 1.93073 32.9845 1.88606 33.0785 1.86234C33.1724 1.83861 33.2706 1.83646 33.3655 1.85603C40.0653 3.23364 45.9809 7.13009 49.8919 12.7416C53.803 18.3531 55.4112 25.2517 54.3848 32.0142H54.3865Z" fill="#1E1B19"/>
<path d="M26.5865 0.0350211C22.1074 0.262055 17.7483 1.5617 13.8762 3.82459C10.0041 6.08748 6.73218 9.24739 4.33587 13.0384C1.93955 16.8294 0.488937 21.1405 0.106108 25.609C-0.276721 30.0775 0.419436 34.5726 2.13599 38.716C3.85255 42.8593 6.53927 46.5297 9.97006 49.4183C13.4008 52.3068 17.4753 54.329 21.8505 55.3146C26.2257 56.3002 30.7737 56.2204 35.1117 55.082C39.4496 53.9435 43.4506 51.7796 46.778 48.7725C46.9743 48.5924 47.1323 48.3744 47.2424 48.1318C47.3526 47.8891 47.4126 47.6267 47.419 47.3604C47.4254 47.094 47.3779 46.829 47.2795 46.5814C47.1811 46.3337 47.0337 46.1085 46.8462 45.9191L28.6554 27.7283V2.00508C28.6538 1.73841 28.5984 1.47481 28.4926 1.23003C28.3868 0.985245 28.2327 0.764304 28.0396 0.580408C27.8465 0.396512 27.6182 0.253436 27.3686 0.159729C27.1189 0.0660224 26.8529 0.0236081 26.5865 0.0350211ZM1.31167 28C1.30345 21.1528 3.93058 14.5651 8.64839 9.60258C13.3662 4.64009 19.8128 1.68349 26.6517 1.34577C26.7407 1.34213 26.8296 1.35645 26.913 1.38789C26.9965 1.41933 27.0727 1.46724 27.1372 1.52876C27.2017 1.59029 27.2531 1.66417 27.2885 1.746C27.3238 1.82783 27.3424 1.91595 27.3429 2.00508V27.7301L22.624 32.4472C22.0149 30.8172 21.0294 29.3542 19.7476 28.1774C18.4658 27.0005 16.9242 26.1432 15.2482 25.6751C16.2209 25.0357 16.9613 24.0995 17.3595 23.0058C17.7578 21.912 17.7926 20.719 17.4588 19.6038C17.1251 18.4887 16.4406 17.511 15.5069 16.8158C14.5733 16.1207 13.4403 15.7452 12.2763 15.7452C11.1123 15.7452 9.97933 16.1207 9.04568 16.8158C8.11203 17.511 7.4275 18.4887 7.09375 19.6038C6.76 20.719 6.79483 21.912 7.19308 23.0058C7.59133 24.0995 8.33174 25.0357 9.30436 25.6751C7.55276 26.1742 5.94998 27.0944 4.63597 28.3556C3.32197 29.6168 2.33671 31.1804 1.76624 32.9101C1.46515 31.2907 1.31299 29.6472 1.31167 28ZM12.2767 25.2569C11.4664 25.2569 10.6742 25.0166 10.0005 24.5664C9.32668 24.1162 8.80153 23.4763 8.49143 22.7276C8.18132 21.979 8.10018 21.1552 8.25828 20.3604C8.41637 19.5656 8.80659 18.8356 9.37959 18.2626C9.95259 17.6896 10.6826 17.2993 11.4774 17.1412C12.2722 16.9832 13.096 17.0643 13.8447 17.3744C14.5933 17.6845 15.2332 18.2097 15.6834 18.8834C16.1336 19.5572 16.3739 20.3494 16.3739 21.1597C16.3727 22.246 15.9406 23.2874 15.1725 24.0555C14.4044 24.8235 13.363 25.2556 12.2767 25.2569ZM2.54499 36.0421C2.60755 33.7318 3.49038 31.5191 5.03541 29.8002C6.58045 28.0813 8.68683 26.9685 10.9775 26.6609C13.2681 26.3532 15.5935 26.8709 17.5373 28.1213C19.4811 29.3716 20.9164 31.273 21.5863 33.485L8.67349 46.3978C5.86576 43.4599 3.76919 39.9172 2.54499 36.0421ZM27.9992 54.6875C25.1286 54.6886 22.2766 54.2271 19.5528 53.3208C19.9265 51.3543 20.9746 49.5799 22.5165 48.3034C24.0584 47.027 25.9973 46.3285 27.999 46.3285C30.0006 46.3285 31.9395 47.027 33.4814 48.3034C35.0233 49.5799 36.0714 51.3543 36.4451 53.3208C33.7216 54.2275 30.8697 54.689 27.9992 54.6875ZM24.4147 41.4282C24.4148 40.7193 24.6251 40.0263 25.019 39.4369C25.413 38.8475 25.9728 38.3882 26.6278 38.1169C27.2827 37.8457 28.0034 37.7748 28.6987 37.9131C29.394 38.0515 30.0327 38.3929 30.5339 38.8942C31.0352 39.3955 31.3765 40.0342 31.5148 40.7295C31.653 41.4248 31.582 42.1455 31.3107 42.8005C31.0394 43.4554 30.58 44.0152 29.9905 44.409C29.4011 44.8029 28.7081 45.0131 27.9992 45.0131C27.0487 45.0123 26.1374 44.6343 25.4653 43.9622C24.7933 43.29 24.4154 42.3787 24.4147 41.4282ZM45.9183 46.8471C45.981 46.91 46.0303 46.985 46.0634 47.0674C46.0964 47.1499 46.1124 47.2381 46.1106 47.3269C46.1087 47.4157 46.0889 47.5032 46.0524 47.5842C46.0159 47.6652 45.9635 47.738 45.8982 47.7982C43.4946 49.9709 40.7155 51.6876 37.6968 52.8645C37.3209 51.1219 36.4837 49.5122 35.2729 48.2039C34.062 46.8955 32.5219 45.9365 30.8136 45.427C31.6654 44.8288 32.3044 43.9747 32.6379 42.9888C32.9714 42.0028 32.9821 40.9362 32.6684 39.9438C32.3547 38.9513 31.733 38.0846 30.8934 37.4695C30.0538 36.8543 29.04 36.5227 27.9992 36.5227C26.9583 36.5227 25.9446 36.8543 25.105 37.4695C24.2654 38.0846 23.6436 38.9513 23.3299 39.9438C23.0162 40.9362 23.0269 42.0028 23.3604 42.9888C23.694 43.9747 24.333 44.8288 25.1847 45.427C23.4759 45.9366 21.9355 46.896 20.7244 48.2048C19.5134 49.5137 18.6763 51.1239 18.3007 52.8671C15.0674 51.6039 12.1123 49.7209 9.60142 47.324L27.9992 28.928L45.9183 46.8471Z" fill="#1E1B19"/>
</g>
<defs>
<clipPath id="clip0_305_8532">
<rect width="56" height="56" fill="white"/>
</clipPath>
</defs>
</svg>
