<svg width="56" height="56" viewBox="0 0 56 56" fill="none" xmlns="http://www.w3.org/2000/svg">
<path d="M19.411 21.875H11.375C11.1431 21.875 10.92 21.9669 10.7564 22.1314L7.51275 25.375H6.839C6.47675 24.3591 5.51425 23.625 4.375 23.625C2.92775 23.625 1.75 24.8027 1.75 26.25C1.75 27.6973 2.92775 28.875 4.375 28.875C5.51425 28.875 6.47675 28.1409 6.839 27.125H7.875C8.10687 27.125 8.33 27.0331 8.49362 26.8686L11.7372 23.625H19.411C19.7733 24.6409 20.7358 25.375 21.875 25.375C22.54 25.375 23.1403 25.1186 23.6031 24.71L27.1687 26.6936C27.1451 26.8345 27.125 26.9771 27.125 27.125C27.125 28.5723 28.3027 29.75 29.75 29.75C31.1973 29.75 32.375 28.5723 32.375 27.125C32.375 26.9771 32.3549 26.8345 32.3313 26.6936L35.8969 24.71C36.3598 25.1186 36.96 25.375 37.625 25.375C39.0723 25.375 40.25 24.1973 40.25 22.75C40.25 21.6108 39.5159 20.6482 38.5 20.286V16.4631C39.5159 16.1009 40.25 15.1384 40.25 13.9991C40.25 12.5519 39.0723 11.3741 37.625 11.3741C36.96 11.3741 36.3598 11.6305 35.8969 12.0391L32.3313 10.0555C32.3549 9.9155 32.375 9.77288 32.375 9.625C32.375 8.17775 31.1973 7 29.75 7C28.3027 7 27.125 8.17775 27.125 9.625C27.125 9.77288 27.1451 9.9155 27.1687 10.0564L23.6031 12.04C23.1403 11.6314 22.54 11.375 21.875 11.375C20.7358 11.375 19.7733 12.1091 19.411 13.125H11.7372L8.49362 9.88138C8.33 9.71688 8.10687 9.625 7.875 9.625H6.839C6.47675 8.60913 5.51425 7.875 4.375 7.875C2.92775 7.875 1.75 9.05275 1.75 10.5C1.75 11.9472 2.92775 13.125 4.375 13.125C5.51425 13.125 6.47675 12.3909 6.839 11.375H7.51275L10.7564 14.6186C10.92 14.7831 11.1431 14.875 11.375 14.875H19.411C19.6752 15.6161 20.2589 16.1997 21 16.464V17.5H6.839C6.47675 16.4841 5.51425 15.75 4.375 15.75C2.92775 15.75 1.75 16.9277 1.75 18.375C1.75 19.8223 2.92775 21 4.375 21C5.51425 21 6.47675 20.2659 6.839 19.25H21V20.286C20.2589 20.5503 19.6752 21.1339 19.411 21.875ZM4.375 27.125C3.89287 27.125 3.5 26.7321 3.5 26.25C3.5 25.7679 3.89287 25.375 4.375 25.375C4.85713 25.375 5.25 25.7679 5.25 26.25C5.25 26.7321 4.85713 27.125 4.375 27.125ZM4.375 11.375C3.89287 11.375 3.5 10.9821 3.5 10.5C3.5 10.0179 3.89287 9.625 4.375 9.625C4.85713 9.625 5.25 10.0179 5.25 10.5C5.25 10.9821 4.85713 11.375 4.375 11.375ZM4.375 19.25C3.89287 19.25 3.5 18.8571 3.5 18.375C3.5 17.8929 3.89287 17.5 4.375 17.5C4.85713 17.5 5.25 17.8929 5.25 18.375C5.25 18.8571 4.85713 19.25 4.375 19.25ZM21.875 23.625C21.3929 23.625 21 23.2321 21 22.75C21 22.2679 21.3929 21.875 21.875 21.875C22.3571 21.875 22.75 22.2679 22.75 22.75C22.75 23.2321 22.3571 23.625 21.875 23.625ZM23.6031 15.96L27.1687 17.9436C27.1451 18.0845 27.125 18.2271 27.125 18.375C27.125 18.5229 27.1451 18.6655 27.1687 18.8064L23.6031 20.79C23.3546 20.5712 23.0676 20.3997 22.75 20.286V16.4631C23.0676 16.3503 23.3555 16.1796 23.6031 15.96ZM35.8969 20.79L32.3313 18.8064C32.3549 18.6655 32.375 18.5229 32.375 18.375C32.375 18.2271 32.3549 18.0845 32.3313 17.9436L35.8969 15.96C36.1454 16.1788 36.4324 16.3503 36.75 16.464V20.2869C36.4324 20.3997 36.1445 20.5704 35.8969 20.79ZM24.4563 22.3186L28.0219 20.335C28.2704 20.5538 28.5574 20.7253 28.875 20.839V24.6619C28.5574 24.7756 28.2695 24.9462 28.0219 25.1659L24.4563 23.1822C24.4799 23.0405 24.5 22.8979 24.5 22.75C24.5 22.6021 24.4799 22.4595 24.4563 22.3186ZM29.75 17.5C30.2321 17.5 30.625 17.8929 30.625 18.375C30.625 18.8571 30.2321 19.25 29.75 19.25C29.2679 19.25 28.875 18.8571 28.875 18.375C28.875 17.8929 29.2679 17.5 29.75 17.5ZM30.625 20.839C30.9426 20.7253 31.2305 20.5546 31.4781 20.335L35.0438 22.3186C35.0201 22.4595 35 22.6021 35 22.75C35 22.8979 35.0201 23.0405 35.0438 23.1814L31.4781 25.165C31.2296 24.9463 30.9426 24.7747 30.625 24.661V20.839ZM35.0438 14.4314L31.4781 16.415C31.2296 16.1962 30.9426 16.0247 30.625 15.911V12.0881C30.9426 11.9744 31.2305 11.8038 31.4781 11.5841L35.0438 13.5677C35.0201 13.7095 35 13.8521 35 14C35 14.1479 35.0201 14.2905 35.0438 14.4314ZM28.875 15.911C28.5574 16.0247 28.2695 16.1954 28.0219 16.415L24.4563 14.4314C24.4799 14.2905 24.5 14.1479 24.5 14C24.5 13.8521 24.4799 13.7095 24.4563 13.5686L28.0219 11.585C28.2704 11.8038 28.5574 11.9752 28.875 12.089V15.911ZM29.75 28C29.2679 28 28.875 27.6071 28.875 27.125C28.875 26.6429 29.2679 26.25 29.75 26.25C30.2321 26.25 30.625 26.6429 30.625 27.125C30.625 27.6071 30.2321 28 29.75 28ZM37.625 23.625C37.1429 23.625 36.75 23.2321 36.75 22.75C36.75 22.2679 37.1429 21.875 37.625 21.875C38.1071 21.875 38.5 22.2679 38.5 22.75C38.5 23.2321 38.1071 23.625 37.625 23.625ZM37.625 13.125C38.1071 13.125 38.5 13.5179 38.5 14C38.5 14.4821 38.1071 14.875 37.625 14.875C37.1429 14.875 36.75 14.4821 36.75 14C36.75 13.5179 37.1429 13.125 37.625 13.125ZM29.75 8.75C30.2321 8.75 30.625 9.14287 30.625 9.625C30.625 10.1071 30.2321 10.5 29.75 10.5C29.2679 10.5 28.875 10.1071 28.875 9.625C28.875 9.14287 29.2679 8.75 29.75 8.75ZM21.875 13.125C22.3571 13.125 22.75 13.5179 22.75 14C22.75 14.4821 22.3571 14.875 21.875 14.875C21.3929 14.875 21 14.4821 21 14C21 13.5179 21.3929 13.125 21.875 13.125Z" fill="#1E1B19"/>
<path d="M20.1255 54.2494H34.1255C34.6085 54.2494 35.0005 53.8574 35.0005 53.3744V47.2494H46.3755C46.8585 47.2494 47.2505 46.8574 47.2505 46.3744V35.8744H53.3755C53.6537 35.8744 53.9153 35.7423 54.0807 35.5174C54.2461 35.2925 54.2942 35.0038 54.2111 34.7378L49.8483 20.778C49.6733 15.4685 47.4316 10.5685 43.5186 6.9574C39.5601 3.30515 34.402 1.47115 29.0058 1.7844C22.7951 2.14753 17.0411 5.55565 13.6137 10.9019L15.0872 11.846C18.2136 6.96965 23.4548 3.86165 29.1091 3.5309C34.0275 3.24128 38.7271 4.9169 42.3312 8.24365C45.9476 11.58 47.9977 16.1257 48.1045 21.0423C48.108 21.1937 48.1526 21.3363 48.2278 21.4597L52.1855 34.1244H46.3755C45.8925 34.1244 45.5005 34.5164 45.5005 34.9994V38.4994H42.8755C41.4282 38.4994 40.2505 37.3217 40.2505 35.8744H38.5005C38.5005 38.2868 40.4631 40.2494 42.8755 40.2494H45.5005V45.4994H34.1255C33.6425 45.4994 33.2505 45.8914 33.2505 46.3744V52.4994H21.0005V51.6533C21.0005 44.5737 18.8725 37.3348 14.8457 30.7189C13.955 29.2559 13.2821 27.6765 12.8446 26.0254L11.1523 26.4734C11.6327 28.2873 12.3721 30.0215 13.3503 31.6289C17.21 37.9709 19.2505 44.8948 19.2505 51.6533V53.3744C19.2505 53.8574 19.6425 54.2494 20.1255 54.2494Z" fill="#1E1B19"/>
</svg>
