<svg width="57" height="56" viewBox="0 0 57 56" fill="none" xmlns="http://www.w3.org/2000/svg">
<path d="M50.5577 43.8353C50.7994 43.6877 51.028 43.5072 51.2391 43.2961C52.0813 42.4539 52.4269 41.3448 52.2114 40.1734L52.207 40.1505C52.0452 39.2722 52.3886 38.4442 53.1236 37.9378L53.1433 37.9247C54.1233 37.2487 54.6636 36.2206 54.6636 35.0295C54.6636 33.8384 54.1233 32.8103 53.1433 32.1344L53.1247 32.1212C52.3897 31.6137 52.0463 30.7869 52.207 29.9108L52.2114 29.8856C52.4269 28.7142 52.0813 27.6052 51.2391 26.763C50.6583 26.1822 49.9517 25.8387 49.185 25.7502C49.1916 25.5237 49.1949 25.2973 49.1949 25.072C49.1949 12.1516 38.685 1.64062 25.7656 1.64062C12.8463 1.64062 2.33643 12.1516 2.33643 25.0698C2.33643 31.3283 4.7733 37.2116 9.19861 41.6369C13.6239 46.0622 19.5072 48.4991 25.7656 48.4991C28.6553 48.4991 31.4553 47.9828 34.1142 46.9667L32.2822 51.4773C32.1794 51.73 32.2439 52.0198 32.4441 52.2047C32.6442 52.3906 32.9374 52.4322 33.1824 52.3119L36.071 50.8802L37.1439 53.9208C37.2347 54.1778 37.4753 54.3517 37.7477 54.3583H37.763C38.0299 54.3583 38.2705 54.1964 38.3711 53.9492L41.4435 46.3816C41.9061 46.6025 42.4213 46.7195 42.9725 46.7195C43.5238 46.7195 44.0389 46.6025 44.5016 46.3816L47.5739 53.9492C47.6745 54.1975 47.9152 54.3583 48.182 54.3583H48.1974C48.4697 54.3517 48.7103 54.1778 48.8011 53.9208L49.8741 50.8802L52.7627 52.3119C53.0066 52.4333 53.3008 52.3906 53.5009 52.2047C53.7011 52.0187 53.7656 51.73 53.6628 51.4773L50.5577 43.8353ZM47.8692 25.8212C47.0763 25.8902 46.3445 25.5478 45.8808 24.8762L45.8677 24.8566C45.1917 23.8766 44.1636 23.3362 42.9725 23.3362C41.7814 23.3362 40.7533 23.8766 40.0774 24.8566L40.0642 24.8752C39.9877 24.9856 39.9035 25.0862 39.8138 25.1781L39.6256 23.1973C39.606 22.9906 39.49 22.8058 39.3128 22.6986L37.1953 21.4123C37.0389 21.3172 36.8497 21.292 36.6747 21.3423L33.7511 22.178L28.9528 20.0648L28.0833 15.3814L29.9864 13.23L34.205 13.1666L35.5438 15.2567C35.6433 15.412 35.8041 15.5181 35.9856 15.5498L41.2302 16.4489C41.3439 16.4686 41.461 16.4577 41.5692 16.4172L45.4455 14.9844C47.003 18.0108 47.8824 21.4397 47.8824 25.0709C47.8824 25.3192 47.8769 25.5708 47.8692 25.8212ZM41.3735 9.415L39.7678 10.6411L33.9655 8.44156C33.7949 8.37703 33.6056 8.38578 33.4416 8.46672C31.6347 9.36141 30.2117 9.55609 29.2011 9.04859L30.3769 6.81516L33.435 6.70141C33.5619 6.69703 33.6844 6.65547 33.7872 6.58219L35.6378 5.28172C37.7674 6.34922 39.7022 7.74922 41.3735 9.415ZM17.4838 4.56312L18.8247 5.77609C18.9199 5.8625 19.0391 5.91828 19.166 5.93797L23.3375 6.57344L23.1067 7.91875L20.9674 8.59797C20.823 8.64391 20.6994 8.73797 20.6174 8.86375L18.2308 12.5059L14.5241 15.0861L9.01268 15.5455C8.66486 15.575 8.40018 15.8703 8.41111 16.2192L8.48439 18.6112C8.48986 18.7786 8.55877 18.9372 8.67689 19.0553L10.0747 20.4487L9.95549 22.3344L6.72783 19.8811L5.13533 17.0975C7.34143 11.4089 11.8367 6.85234 17.4838 4.56312ZM25.7656 47.1877C13.5703 47.1877 3.64893 37.2662 3.64893 25.0709C3.64893 22.8758 3.97158 20.755 4.56986 18.7523L5.65596 20.65C5.69971 20.7266 5.75877 20.7933 5.82877 20.8469L10.1371 24.1216C10.253 24.2102 10.393 24.255 10.5341 24.255C10.627 24.255 10.72 24.2353 10.8064 24.1959C11.0263 24.0953 11.1728 23.882 11.1881 23.6403L11.4036 20.2366C11.4156 20.0484 11.3456 19.8636 11.2122 19.7302L9.78814 18.3105L9.74111 16.8011L14.8074 16.3789C14.9222 16.3691 15.0327 16.3297 15.1278 16.2641L19.0839 13.51C19.1528 13.4619 19.2119 13.4017 19.2578 13.3306L21.5875 9.77812L23.8844 9.04859C24.1185 8.97422 24.2913 8.77625 24.3328 8.53453L24.7452 6.13703C24.7747 5.96312 24.7342 5.78484 24.6303 5.64156C24.5275 5.49828 24.3711 5.40312 24.1972 5.37687L19.5597 4.67031L18.8772 4.05344C21.0461 3.34031 23.3616 2.95312 25.7656 2.95312C28.7724 2.95312 31.6413 3.55687 34.2564 4.64953L33.1911 5.39766L29.9471 5.51906C29.7119 5.52781 29.4997 5.66125 29.3903 5.86906L27.7617 8.96328C27.6163 9.23891 27.6852 9.57797 27.9258 9.77594C29.3302 10.9298 31.2924 10.9277 33.762 9.76828L39.642 11.9973C39.7175 12.0258 39.7963 12.04 39.875 12.04C40.0172 12.04 40.1572 11.9941 40.2731 11.9055L42.278 10.3753C43.2252 11.4384 44.0706 12.5923 44.8013 13.8239L41.2783 15.1277L36.4931 14.3073L35.1128 12.1537C34.9903 11.9623 34.7781 11.8486 34.5506 11.8519L29.6769 11.9252C29.492 11.9284 29.317 12.0083 29.1956 12.1461L26.8889 14.7547C26.7555 14.9056 26.6986 15.1102 26.7347 15.3092L27.7256 20.6489C27.765 20.8622 27.9083 21.0427 28.1063 21.1302L33.4383 23.4784C33.5783 23.5408 33.7358 23.5506 33.8835 23.5091L36.7589 22.6866L38.3492 23.6523L38.5538 25.8147C38.3263 25.8442 38.09 25.8387 37.8483 25.7939L37.8253 25.7895C36.6539 25.5752 35.5449 25.9197 34.7027 26.7619C33.8605 27.6041 33.5149 28.7131 33.7303 29.8834L33.7347 29.9075C33.8966 30.7858 33.5531 31.6137 32.8181 32.1202L32.7985 32.1333C31.8185 32.8092 31.2781 33.8373 31.2781 35.0284C31.2781 36.2195 31.8185 37.2477 32.7985 37.9236L32.817 37.9367C33.552 38.4442 33.8955 39.2711 33.7347 40.1472L33.7303 40.1734C33.5149 41.3448 33.8605 42.4539 34.7027 43.2961C34.9138 43.5072 35.1424 43.6877 35.3841 43.8353L34.8066 45.2583C31.9585 46.5369 28.9178 47.1877 25.7656 47.1877ZM37.8045 51.8525L37.0608 49.7459C36.9985 49.5687 36.8628 49.4266 36.6889 49.3566C36.515 49.2855 36.3192 49.2931 36.1508 49.3762L34.1492 50.3683L36.6178 44.2881C37.0061 44.3494 37.4119 44.3439 37.8253 44.2684L37.8494 44.2641C38.7277 44.1022 39.5556 44.4456 40.062 45.1806L40.0752 45.2003C40.1638 45.3283 40.2578 45.4486 40.3585 45.5612L37.8045 51.8525ZM41.1569 44.4555L41.1438 44.4358C40.4733 43.4634 39.4102 42.9133 38.2683 42.9133C38.0517 42.9133 37.833 42.933 37.6131 42.9734L37.5891 42.9778C36.8442 43.1145 36.1672 42.9034 35.6313 42.3686C35.0953 41.8327 34.8853 41.1567 35.021 40.4141L35.0253 40.3878C35.2791 39.0075 34.718 37.6545 33.5619 36.8572L33.5433 36.8441C32.9199 36.4142 32.5906 35.7864 32.5906 35.0295C32.5906 34.2727 32.9199 33.6448 33.5433 33.215L33.563 33.2019C34.7191 32.4045 35.2791 31.0516 35.0253 29.6712L35.021 29.6472C34.8842 28.9023 35.0953 28.2253 35.6302 27.6905C36.1661 27.1545 36.8431 26.9445 37.588 27.0812L37.611 27.0856C38.9913 27.3394 40.3442 26.7783 41.1416 25.6222L41.1547 25.6036C41.5845 24.9802 42.2124 24.6509 42.9692 24.6509C43.7261 24.6509 44.3539 24.9802 44.7838 25.6036L44.7969 25.6233C45.5942 26.7794 46.9461 27.3394 48.3275 27.0856L48.3516 27.0812C49.0964 26.9445 49.7735 27.1545 50.3083 27.6905C50.8442 28.2264 51.0542 28.9023 50.9186 29.645L50.9142 29.6712C50.6605 31.0516 51.2216 32.4045 52.3777 33.2019L52.3963 33.215C53.0197 33.6448 53.3489 34.2727 53.3489 35.0295C53.3489 35.7864 53.0197 36.4142 52.3963 36.8441L52.3766 36.8572C51.2205 37.6545 50.6605 39.0075 50.9142 40.3878L50.9186 40.4108C51.0553 41.1556 50.8442 41.8327 50.3094 42.3686C49.7745 42.9045 49.0975 43.1145 48.3516 42.9778L48.3286 42.9734C46.9472 42.7197 45.5953 43.2797 44.798 44.4369L44.7849 44.4555C44.355 45.0789 43.7272 45.4081 42.9703 45.4081C42.2135 45.4081 41.5867 45.0789 41.1569 44.4555ZM49.792 49.3762C49.6236 49.2931 49.4278 49.2855 49.2539 49.3566C49.08 49.4277 48.9444 49.5687 48.882 49.7459L48.1383 51.8525L45.5844 45.5612C45.685 45.4486 45.7791 45.3283 45.8677 45.1992L45.8808 45.1806C46.3883 44.4456 47.2152 44.1022 48.0945 44.2641L48.1175 44.2684C48.531 44.345 48.9367 44.3494 49.325 44.2881L51.7936 50.3683L49.792 49.3762ZM50.141 35.0284C50.141 31.0745 46.9242 27.8589 42.9714 27.8589C39.0175 27.8589 35.8019 31.0756 35.8019 35.0284C35.8019 38.9823 39.0186 42.198 42.9714 42.198C46.9253 42.198 50.141 38.9812 50.141 35.0284ZM42.9714 40.8855C39.7416 40.8855 37.1144 38.2583 37.1144 35.0284C37.1144 31.7986 39.7416 29.1714 42.9714 29.1714C46.2013 29.1714 48.8285 31.7986 48.8285 35.0284C48.8285 38.2583 46.2013 40.8855 42.9714 40.8855ZM28.6488 27.9661L25.7295 27.5745L23.7433 24.1183C23.6274 23.9159 23.4119 23.7912 23.1789 23.7891L17.895 23.7497L16.7236 20.7014C16.6416 20.4892 16.4567 20.335 16.2336 20.2923C16.0105 20.2497 15.7819 20.3252 15.6277 20.4925L11.6639 24.8019C11.5655 24.9091 11.5053 25.0447 11.4933 25.1891L11.3205 27.1709C11.3096 27.2912 11.3336 27.4127 11.3872 27.5209L13.2827 31.313C13.3778 31.5033 13.5605 31.6367 13.7705 31.6684L17.0244 32.1639L16.74 39.4111C16.7356 39.5117 16.7553 39.6123 16.7958 39.7042L18.6388 43.8386C18.7285 44.0387 18.9111 44.1809 19.1277 44.2181L21.4956 44.6217C21.5328 44.6283 21.5689 44.6316 21.6061 44.6316C21.757 44.6316 21.9047 44.5791 22.0228 44.4817C22.1694 44.3603 22.2569 44.182 22.2624 43.9917L22.3422 40.8067L24.8097 38.5678C24.93 38.4584 25.0055 38.3097 25.0219 38.1489L25.2472 35.9428L28.0822 32.9416C28.1599 32.8595 28.2156 32.7578 28.2419 32.6484L29.1967 28.7755C29.2416 28.595 29.2066 28.4025 29.1016 28.2494C28.9988 28.093 28.8336 27.9902 28.6488 27.9661ZM27.0103 32.1639L24.1403 35.2012C24.0408 35.3062 23.9795 35.4419 23.9642 35.5852L23.7422 37.7628L21.2528 40.0214C21.1205 40.1417 21.0428 40.3112 21.0374 40.4906L20.9695 43.1987L19.6942 42.9811L18.0569 39.3072L18.3588 31.6269C18.3719 31.2933 18.1324 31.0023 17.802 30.952L14.3042 30.4194L12.6428 27.0977L12.7795 25.5227L15.876 22.1561L16.8286 24.6345C16.9249 24.8861 17.1666 25.0534 17.4367 25.0556L22.7906 25.0961L24.7506 28.5064C24.8524 28.6836 25.0306 28.8028 25.233 28.8302L27.7475 29.167L27.0103 32.1639ZM47.0533 33.1308L42.3305 37.8536C42.2025 37.9816 42.0341 38.0461 41.8667 38.0461C41.6983 38.0461 41.531 37.9816 41.403 37.8536L38.8906 35.3412C38.6347 35.0853 38.6347 34.6697 38.8906 34.4137C39.1466 34.1578 39.5622 34.1578 39.8181 34.4137L41.8667 36.4623L46.1258 32.2033C46.3817 31.9473 46.7974 31.9473 47.0533 32.2033C47.3103 32.4592 47.3103 32.8748 47.0533 33.1308Z" fill="#F8F8F8"/>
</svg>
