<svg width="56" height="56" viewBox="0 0 56 56" fill="none" xmlns="http://www.w3.org/2000/svg">
<g clip-path="url(#clip0_305_8548)">
<path d="M55.4496 27.6327L46.5268 6.27623L37.9172 9.87346C38.0253 8.85803 38.0253 7.4213 37.4743 6.38426C36.2429 4.08333 33.3694 3.20833 31.0685 4.43981C28.7675 5.6713 27.8925 8.54475 29.124 10.8457C29.5561 11.6559 30.2043 12.3148 31.0037 12.7577L21.8 16.5926C21.5947 15.9444 21.2814 15.3287 20.8817 14.7778C21.0006 14.713 21.0978 14.6373 21.195 14.5401C21.4219 14.3133 21.5623 14.0108 21.5623 13.6867L21.5191 10.1219H22.2537C22.4265 10.1219 22.5885 10.0463 22.7074 9.92747C22.837 9.80864 22.9018 9.6358 22.9018 9.46296L22.7722 0L21.4759 0.0216049L21.5947 8.82562L4.27835 8.95525L4.15952 0L2.86323 0.0216049L2.98205 9.625C2.99286 9.98148 3.27372 10.2515 3.6302 10.2623H4.38638C4.38638 10.2948 4.42959 13.8272 4.42959 13.8272C4.44039 14.2161 4.63483 14.5725 4.9481 14.7994L4.4728 15.5556C4.28915 15.8472 4.0407 16.571 4.0407 16.571H4.02989L2.13946 23.625L2.63638 25.159L1.93421 25.4722C1.28607 25.7639 0.767548 26.2932 0.519091 26.963C0.270635 27.6327 0.29224 28.3673 0.583906 29.0154L10.1873 50.4691L19.1858 46.4398C19.5098 46.2994 19.7367 45.9969 19.7691 45.6404C19.8015 45.284 19.6395 44.9383 19.3478 44.7438C18.1919 43.9336 17.3925 43.0586 17.1549 42.3457C16.55 40.5525 17.5114 38.5972 19.3154 37.9923C21.1086 37.3873 23.0638 38.3488 23.6688 40.1528C23.9604 41.0062 23.8956 41.946 23.4959 42.7562C23.3231 43.1019 23.3879 43.5123 23.658 43.7824C23.9172 44.0633 24.3277 44.1497 24.6734 43.9877L32.1487 40.6389C32.5052 40.4877 32.8077 40.2284 33.0237 39.9043L34.158 39.4398C34.2876 40.5093 34.6873 41.5247 35.3246 42.3997C35.2058 42.4645 35.1086 42.5509 35.0114 42.6481C34.7737 42.875 34.6441 43.1883 34.6441 43.5123L34.6981 47.0664H33.9635C33.7907 47.0664 33.6287 47.142 33.5098 47.2608C33.3802 47.3796 33.3154 47.5525 33.3262 47.7253L33.445 55.8812H34.7413L34.6225 48.3735L51.9388 48.233L52.0577 55.892H53.354L53.2351 47.5849C53.2243 47.2284 52.9435 46.9475 52.587 46.9367H51.8308C51.8308 46.9151 51.8416 46.8827 51.8416 46.8611L51.7876 43.3827C51.7876 42.9938 51.5932 42.6265 51.2691 42.4105C51.5175 42.0108 51.712 41.7083 51.7444 41.6435C51.928 41.3627 52.0685 41.0494 52.1549 40.7145L52.1765 40.6389H52.1873L54.0777 33.5741L53.3864 31.392L54.0129 31.1327C55.374 30.571 56.0222 29.0262 55.4605 27.6651C55.4605 27.6543 55.4496 27.6435 55.4496 27.6327ZM10.1981 21.7778L10.0901 21.9614C9.35551 23.2577 8.02681 23.8302 8.01601 23.8302L7.5407 24.0247C7.5407 24.0247 8.28607 28.5293 8.49131 29.8364C8.61014 30.6142 8.46971 31.4136 8.08082 32.0941C7.79996 32.4938 7.34625 32.7315 6.86014 32.7315C6.52526 32.7207 6.38483 32.5478 6.33082 32.4506L4.22434 25.8719L3.82465 24.6296L3.48977 23.5926L5.31539 16.7978C5.3694 16.6034 5.45582 16.4198 5.56384 16.2469C5.56384 16.2469 5.89872 15.7068 6.27681 15.1235L19.4126 15.0154C19.9743 15.6096 20.3848 16.3333 20.6117 17.1219L10.1981 21.7778ZM20.0284 13.7299H20.0067V13.7083L5.99594 13.8164C5.89872 13.8272 5.8123 13.7948 5.73668 13.7407V13.6111L5.69347 10.3488C5.76909 10.3056 5.85551 10.2731 5.94193 10.2731L19.9743 10.1651C20.0716 10.1543 20.158 10.1867 20.2336 10.2407L20.2876 13.6543C20.212 13.6975 20.1148 13.7299 20.0284 13.7299ZM31.6194 39.4506L24.9975 42.4213C25.6348 39.8827 24.1009 37.3117 21.5623 36.6744C19.0237 36.037 16.4527 37.571 15.8154 40.1096C15.5885 40.9846 15.6317 41.9136 15.9126 42.767C16.2799 43.8364 17.2629 44.787 18.1595 45.4784L10.8246 48.7623L1.75057 28.4861C1.59934 28.1512 1.58854 27.7731 1.72897 27.4275C1.8586 27.0818 2.11786 26.8117 2.45273 26.6605L3.02526 26.4012L5.14255 33.0015C5.46662 33.6173 6.09317 34.017 6.79533 34.0278C6.79533 34.0278 8.48051 34.0602 9.17187 32.7747V32.7531C9.71199 31.8025 9.91724 30.7006 9.7444 29.6204C9.58236 28.5833 9.13946 25.8719 8.95582 24.7809C9.82002 24.3056 10.5546 23.6142 11.0947 22.7932L22.0592 17.8781C22.0592 17.8781 22.3617 17.7052 22.5993 17.7593C22.7398 17.8133 22.8694 17.9753 22.9342 18.1157L26.3262 25.8719C26.4666 26.2284 26.8231 26.4444 27.2012 26.4228C27.5793 26.4012 27.9034 26.142 28.0222 25.7855C28.3138 24.8025 29.0268 24.0139 29.9774 23.625C31.6626 22.8688 33.6503 23.6142 34.4064 25.2994C35.1086 26.8549 34.5361 28.6806 33.0669 29.5556C32.1271 30.0849 30.4851 29.9552 29.8262 29.8796C29.4805 29.8364 29.1348 29.9877 28.9188 30.2685C28.9188 30.2793 28.6055 30.6358 28.8108 31.2515L32.0191 38.4028C32.1379 38.6728 32.0947 38.9969 31.9111 39.2238C31.8463 39.321 31.7382 39.4074 31.6194 39.4506ZM50.4913 43.5664L50.5453 46.8287C50.4697 46.8827 50.3833 46.9151 50.2861 46.9043L36.2537 47.0123C36.1564 47.0232 36.07 46.9907 35.9944 46.9367L35.9404 43.5772L50.4913 43.5664ZM50.9018 40.3796C50.8478 40.5741 50.7614 40.7577 50.6534 40.9306V40.9522C50.6534 40.9522 50.3293 41.4815 49.9512 42.0648L49.8216 42.2701H36.9126L36.8046 42.162C35.9728 41.2762 35.4759 40.1204 35.4111 38.8997L44.766 35C44.5608 35.3673 44.3663 35.7562 44.1827 36.1451L45.3601 36.696C45.5978 36.1883 45.8571 35.6914 46.1271 35.216C46.3972 34.7407 46.7645 34.3302 47.1858 33.9846C47.499 33.7253 47.8339 33.5201 48.2012 33.3472L48.6765 33.1528L48.6009 32.6451C48.5901 32.6343 48.5577 32.3966 48.4929 32.0401C48.2984 30.8735 47.8879 28.3457 47.7259 27.3519C47.6071 26.5741 47.7475 25.7747 48.1364 25.0941C48.4172 24.6944 48.8709 24.446 49.3571 24.446C49.6919 24.4568 49.8324 24.6296 49.8864 24.7377L51.7876 30.6574L52.1873 31.8997L52.7274 33.5957L50.9018 40.3796ZM54.2614 29.1883C54.1209 29.5231 53.8509 29.7932 53.516 29.9336L52.9867 30.1605L51.0638 24.1759C50.7398 23.5602 50.1132 23.1713 49.4219 23.1497C47.7583 23.1929 47.0345 24.4136 47.0345 24.4136C46.4944 25.3642 46.2892 26.466 46.462 27.5463C46.624 28.5941 47.0669 31.2948 47.2506 32.3858C47.0021 32.5262 46.7645 32.6883 46.5376 32.8611L33.3586 38.3704C33.3262 38.1975 30.3231 31.4352 30.3231 31.4352C31.3925 31.5108 32.624 31.4568 33.5422 30.9707L33.9527 30.7222C34.4496 30.3873 34.8817 29.966 35.2166 29.4691L35.3571 29.2531C35.6055 28.8426 35.7892 28.3997 35.908 27.9352C35.9188 27.9136 35.9188 27.892 35.9188 27.8704H35.9296C36.0484 27.4491 36.1024 27.017 36.1024 26.5741C36.1024 26.0988 36.0268 25.6127 35.8864 25.159C35.1086 22.6636 32.4512 21.2809 29.9558 22.0586C28.7567 22.4367 27.7521 23.2793 27.1688 24.4028L26.4018 22.6852C26.1534 22.0694 24.5006 18.4398 24.1333 17.5972C24.0469 17.4352 23.9496 17.2731 23.8308 17.1327L32.3756 13.6111C32.7321 13.4599 32.9481 13.1034 32.9265 12.7253C32.9157 12.3472 32.6564 12.0231 32.3 11.9151C30.4851 11.3642 29.4589 9.45216 30.0098 7.62654C30.0638 7.4537 30.1287 7.29167 30.2043 7.12963C30.6256 6.24383 31.4034 5.57407 32.354 5.31482C33.9095 4.87191 35.5623 5.56327 36.3293 6.9892C36.837 7.93981 36.6642 9.57099 36.5669 10.2299C36.5237 10.5864 36.6642 10.9321 36.945 11.1481C37.2259 11.3642 37.5932 11.4182 37.9172 11.2778L45.8246 7.97222L54.2506 28.1296C54.4018 28.4645 54.4018 28.8534 54.2614 29.1883Z" fill="#1E1B19"/>
<path d="M14.8531 50.761L13.7012 51.3555L15.1973 54.2544L16.3492 53.6599L14.8531 50.761Z" fill="#1E1B19"/>
<path d="M5.84572 50.814L4.34961 53.7129L5.5015 54.3074L6.99761 51.4085L5.84572 50.814Z" fill="#1E1B19"/>
<path d="M9.71447 52.6703L9.63477 55.9316L10.9307 55.9633L11.0104 52.7019L9.71447 52.6703Z" fill="#1E1B19"/>
<path d="M42.2593 1.82935L41.1074 2.42383L42.6035 5.32275L43.7554 4.72827L42.2593 1.82935Z" fill="#1E1B19"/>
<path d="M51.957 1.87257L50.4609 4.77148L51.6128 5.36597L53.1089 2.46705L51.957 1.87257Z" fill="#1E1B19"/>
<path d="M46.4508 0.140975L46.3711 3.40234L47.667 3.43402L47.7467 0.172647L46.4508 0.140975Z" fill="#1E1B19"/>
</g>
<defs>
<clipPath id="clip0_305_8548">
<rect width="56" height="56" fill="white"/>
</clipPath>
</defs>
</svg>
