<svg width="57" height="56" viewBox="0 0 57 56" fill="none" xmlns="http://www.w3.org/2000/svg">
<g clip-path="url(#clip0_305_8663)">
<path d="M34.128 0.570213C33.8429 0.515783 33.5493 0.524827 33.2681 0.596704C32.9868 0.668581 32.7249 0.801525 32.5009 0.986087C32.2769 1.17065 32.0962 1.40229 31.9719 1.66456C31.8475 1.92682 31.7824 2.21327 31.7813 2.50353V25.8245C31.7806 26.0831 31.8312 26.3392 31.9301 26.5781C32.029 26.8171 32.1743 27.0341 32.3574 27.2166L48.8512 43.7103C49.0575 43.9147 49.3063 44.0711 49.5799 44.1685C49.8535 44.2659 50.1452 44.3018 50.4343 44.2737C50.7233 44.2455 51.0026 44.1541 51.2523 44.0059C51.502 43.8576 51.7161 43.6562 51.8791 43.4159C54.3977 39.5951 55.9416 35.2154 56.3757 30.6599C56.8098 26.1043 56.121 21.5118 54.3694 17.2841C52.6179 13.0564 49.857 9.32238 46.3283 6.40866C42.7997 3.49494 38.6107 1.49033 34.128 0.570213ZM50.7823 42.6918C50.7289 42.773 50.6578 42.8411 50.5743 42.8909C50.4909 42.9407 50.3972 42.9709 50.3004 42.9793C50.2036 42.9877 50.1061 42.9741 50.0153 42.9395C49.9245 42.9049 49.8427 42.8501 49.7761 42.7793L37.1625 30.1653C38.3472 28.7086 39.928 27.6257 41.7142 27.047C43.5005 26.4683 45.416 26.4186 47.2299 26.9038C49.0437 27.3891 50.6785 28.3886 51.9372 29.7819C53.1959 31.1752 54.0248 32.9028 54.3239 34.7565C53.5874 37.5782 52.3908 40.2593 50.7823 42.6918ZM40.6188 21.159C40.6187 20.3485 40.8589 19.5562 41.3091 18.8823C41.7593 18.2084 42.3992 17.6831 43.148 17.3729C43.8967 17.0627 44.7206 16.9815 45.5155 17.1396C46.3104 17.2976 47.0406 17.6879 47.6137 18.2609C48.1868 18.834 48.5771 19.5641 48.7352 20.359C48.8934 21.1538 48.8123 21.9778 48.5021 22.7265C48.192 23.4753 47.6668 24.1153 46.9929 24.5655C46.3191 25.0158 45.5268 25.2562 44.7164 25.2562C43.6301 25.255 42.5885 24.823 41.8204 24.0549C41.0522 23.2868 40.62 22.2453 40.6188 21.159ZM54.8865 32.0142C54.2329 30.4892 53.2477 29.1289 52.0026 28.0323C50.7575 26.9357 49.2837 26.1302 47.6883 25.6744C48.661 25.0349 49.4015 24.0987 49.7998 23.0048C50.1981 21.911 50.2329 20.7178 49.8991 19.6026C49.5654 18.4874 48.8808 17.5096 47.947 16.8144C47.0133 16.1192 45.8803 15.7437 44.7162 15.7437C43.5521 15.7437 42.419 16.1192 41.4853 16.8144C40.5516 17.5096 39.867 18.4874 39.5332 19.6026C39.1994 20.7178 39.2343 21.911 39.6325 23.0048C40.0308 24.0987 40.7713 25.0349 41.744 25.6744C39.5892 26.2771 37.6673 27.5182 36.2315 29.2343L33.2858 26.2887C33.2246 26.2278 33.1761 26.1554 33.143 26.0756C33.11 25.9959 33.0931 25.9104 33.0933 25.824V2.50353C33.0906 2.40663 33.1098 2.31038 33.1496 2.22197C33.1893 2.13357 33.2485 2.05529 33.3228 1.99301C33.3971 1.93073 33.4845 1.88606 33.5785 1.86234C33.6724 1.83861 33.7706 1.83646 33.8655 1.85603C40.5653 3.23364 46.4809 7.13009 50.3919 12.7416C54.303 18.3531 55.9112 25.2517 54.8848 32.0142H54.8865Z" fill="#F8F8F8"/>
<path d="M27.0872 0.0350211C22.6081 0.262055 18.2491 1.5617 14.3769 3.82459C10.5048 6.08748 7.23292 9.24739 4.8366 13.0384C2.44028 16.8294 0.98967 21.1405 0.60684 25.609C0.224011 30.0775 0.920168 34.5726 2.63672 38.716C4.35328 42.8593 7.04001 46.5297 10.4708 49.4183C13.9016 52.3068 17.976 54.329 22.3512 55.3146C26.7265 56.3002 31.2744 56.2204 35.6124 55.082C39.9504 53.9435 43.9514 51.7796 47.2787 48.7725C47.475 48.5924 47.633 48.3744 47.7431 48.1318C47.8533 47.8891 47.9133 47.6267 47.9197 47.3604C47.9261 47.094 47.8786 46.829 47.7802 46.5814C47.6818 46.3337 47.5345 46.1085 47.347 45.9191L29.1562 27.7283V2.00508C29.1545 1.73841 29.0991 1.47481 28.9933 1.23003C28.8875 0.985245 28.7334 0.764304 28.5403 0.580408C28.3472 0.396512 28.119 0.253436 27.8693 0.159729C27.6196 0.0660224 27.3536 0.0236081 27.0872 0.0350211ZM1.81241 28C1.80419 21.1528 4.43131 14.5651 9.14912 9.60258C13.8669 4.64009 20.3135 1.68349 27.1524 1.34577C27.2415 1.34213 27.3304 1.35645 27.4138 1.38789C27.4972 1.41933 27.5734 1.46724 27.6379 1.52876C27.7024 1.59029 27.7539 1.66417 27.7892 1.746C27.8246 1.82783 27.8431 1.91595 27.8437 2.00508V27.7301L23.1248 32.4472C22.5157 30.8172 21.5301 29.3542 20.2483 28.1774C18.9666 27.0005 17.4249 26.1432 15.749 25.6751C16.7216 25.0357 17.462 24.0995 17.8602 23.0058C18.2585 21.912 18.2933 20.719 17.9596 19.6038C17.6258 18.4887 16.9413 17.511 16.0076 16.8158C15.074 16.1207 13.941 15.7452 12.777 15.7452C11.613 15.7452 10.4801 16.1207 9.54641 16.8158C8.61277 17.511 7.92823 18.4887 7.59448 19.6038C7.26073 20.719 7.29557 21.912 7.69381 23.0058C8.09206 24.0995 8.83248 25.0357 9.80509 25.6751C8.0535 26.1742 6.45071 27.0944 5.1367 28.3556C3.8227 29.6168 2.83744 31.1804 2.26697 32.9101C1.96588 31.2907 1.81372 29.6472 1.81241 28ZM12.7775 25.2569C11.9671 25.2569 11.175 25.0166 10.5012 24.5664C9.82741 24.1162 9.30227 23.4763 8.99216 22.7276C8.68205 21.979 8.60092 21.1552 8.75901 20.3604C8.9171 19.5656 9.30732 18.8356 9.88032 18.2626C10.4533 17.6896 11.1834 17.2993 11.9781 17.1412C12.7729 16.9832 13.5967 17.0643 14.3454 17.3744C15.0941 17.6845 15.7339 18.2097 16.1842 18.8834C16.6344 19.5572 16.8747 20.3494 16.8747 21.1597C16.8734 22.246 16.4413 23.2874 15.6732 24.0555C14.9051 24.8235 13.8637 25.2556 12.7775 25.2569ZM3.04572 36.0421C3.10829 33.7318 3.99111 31.5191 5.53615 29.8002C7.08118 28.0813 9.18756 26.9685 11.4782 26.6609C13.7689 26.3532 16.0942 26.8709 18.038 28.1213C19.9818 29.3716 21.4171 31.273 22.087 33.485L9.17422 46.3978C6.3665 43.4599 4.26993 39.9172 3.04572 36.0421ZM28.4999 54.6875C25.6293 54.6886 22.7773 54.2271 20.0535 53.3208C20.4272 51.3543 21.4754 49.5799 23.0172 48.3034C24.5591 47.027 26.498 46.3285 28.4997 46.3285C30.5013 46.3285 32.4403 47.027 33.9821 48.3034C35.524 49.5799 36.5721 51.3543 36.9458 53.3208C34.2223 54.2275 31.3704 54.689 28.4999 54.6875ZM24.9155 41.4282C24.9156 40.7193 25.1259 40.0263 25.5198 39.4369C25.9137 38.8475 26.4735 38.3882 27.1285 38.1169C27.7835 37.8457 28.5042 37.7748 29.1995 37.9131C29.8947 38.0515 30.5334 38.3929 31.0346 38.8942C31.5359 39.3955 31.8772 40.0342 32.0155 40.7295C32.1538 41.4248 32.0828 42.1455 31.8115 42.8005C31.5401 43.4554 31.0807 44.0152 30.4913 44.409C29.9018 44.8029 29.2088 45.0131 28.4999 45.0131C27.5494 45.0123 26.6381 44.6343 25.9661 43.9622C25.294 43.29 24.9162 42.3787 24.9155 41.4282ZM46.419 46.8471C46.4817 46.91 46.531 46.985 46.5641 47.0674C46.5971 47.1499 46.6132 47.2381 46.6113 47.3269C46.6094 47.4157 46.5896 47.5032 46.5532 47.5842C46.5167 47.6652 46.4642 47.738 46.3989 47.7982C43.9954 49.9709 41.2162 51.6876 38.1975 52.8645C37.8216 51.1219 36.9845 49.5122 35.7736 48.2039C34.5628 46.8955 33.0227 45.9365 31.3143 45.427C32.1661 44.8288 32.8051 43.9747 33.1386 42.9888C33.4722 42.0028 33.4828 40.9362 33.1692 39.9438C32.8555 38.9513 32.2337 38.0846 31.3941 37.4695C30.5545 36.8543 29.5407 36.5227 28.4999 36.5227C27.4591 36.5227 26.4453 36.8543 25.6057 37.4695C24.7661 38.0846 24.1443 38.9513 23.8307 39.9438C23.517 40.9362 23.5277 42.0028 23.8612 42.9888C24.1947 43.9747 24.8337 44.8288 25.6855 45.427C23.9767 45.9366 22.4362 46.896 21.2252 48.2048C20.0141 49.5137 19.177 51.1239 18.8014 52.8671C15.5682 51.6039 12.613 49.7209 10.1022 47.324L28.4999 28.928L46.419 46.8471Z" fill="#F8F8F8"/>
</g>
<defs>
<clipPath id="clip0_305_8663">
<rect width="56" height="56" fill="white" transform="translate(0.5)"/>
</clipPath>
</defs>
</svg>
