<svg width="15" height="16" viewBox="0 0 15 16" fill="none" xmlns="http://www.w3.org/2000/svg">
<g clip-path="url(#clip0_552_571)">
<path d="M11.0992 9.11915C11.07 9.10512 9.97647 8.56663 9.78215 8.4967C9.70281 8.46821 9.61783 8.4404 9.52744 8.4404C9.37978 8.4404 9.25574 8.51399 9.15911 8.65853C9.04988 8.8209 8.71919 9.20744 8.61702 9.32292C8.60367 9.33816 8.58546 9.35637 8.57455 9.35637C8.56476 9.35637 8.39552 9.28668 8.34429 9.26443C7.17122 8.75486 6.28082 7.52949 6.15872 7.32285C6.14129 7.29314 6.14056 7.27965 6.14041 7.27965C6.1447 7.26392 6.18414 7.22438 6.2045 7.20397C6.26406 7.14504 6.32859 7.06736 6.39103 6.99222C6.42059 6.95662 6.4502 6.92097 6.47927 6.88736C6.56986 6.78197 6.61018 6.70016 6.65694 6.60538L6.68143 6.55615C6.79559 6.32934 6.69809 6.13795 6.66658 6.07615C6.64072 6.02443 6.17898 4.91004 6.12989 4.79296C6.01184 4.51045 5.85585 4.37891 5.63908 4.37891C5.61897 4.37891 5.63908 4.37891 5.55473 4.38246C5.45202 4.3868 4.89268 4.46043 4.64538 4.61633C4.38312 4.78167 3.93945 5.30871 3.93945 6.23559C3.93945 7.0698 4.46884 7.85745 4.69613 8.15701C4.70177 8.16456 4.71215 8.1799 4.7272 8.20191C5.59764 9.47311 6.68275 10.4152 7.78276 10.8546C8.84177 11.2776 9.34325 11.3265 9.62835 11.3265H9.6284C9.7482 11.3265 9.8441 11.3171 9.92869 11.3088L9.98236 11.3037C10.3482 11.2713 11.1522 10.8547 11.335 10.3465C11.4791 9.9462 11.5171 9.50886 11.4212 9.35014C11.3556 9.24222 11.2425 9.18792 11.0992 9.11915Z" fill="#1E1B19"/>
<path d="M7.63314 0.5C3.57067 0.5 0.265606 3.78023 0.265606 7.81216C0.265606 9.11623 0.614599 10.3927 1.27572 11.51L0.0103134 15.2427C-0.0132581 15.3123 0.0042744 15.3892 0.0557517 15.4416C0.0929108 15.4795 0.143317 15.5 0.194794 15.5C0.214518 15.5 0.234388 15.497 0.253771 15.4908L4.14598 14.254C5.21108 14.8231 6.41488 15.1235 7.63319 15.1235C11.6953 15.1235 15 11.8437 15 7.81216C15 3.78023 11.6953 0.5 7.63314 0.5ZM7.63314 13.6004C6.48676 13.6004 5.37642 13.2693 4.42197 12.643C4.38988 12.6219 4.35262 12.6111 4.31512 12.6111C4.2953 12.6111 4.27543 12.6142 4.25609 12.6203L2.30634 13.2401L2.93575 11.3831C2.95611 11.323 2.94593 11.2568 2.90843 11.2055C2.18161 10.2124 1.79741 9.03904 1.79741 7.81216C1.79741 4.62013 4.4153 2.02318 7.63309 2.02318C10.8505 2.02318 13.4681 4.62013 13.4681 7.81216C13.4681 11.0038 10.8506 13.6004 7.63314 13.6004Z" fill="#1E1B19"/>
</g>
<defs>
<clipPath id="clip0_552_571">
<rect width="15" height="15" fill="white" transform="translate(0 0.5)"/>
</clipPath>
</defs>
</svg>
