<svg width="21" height="16" viewBox="0 0 21 16" fill="none" xmlns="http://www.w3.org/2000/svg">
<g clip-path="url(#clip0_318_314)">
<path d="M8.96129 4.74037C8.79975 4.64852 8.60094 4.64852 8.43941 4.74038C8.27772 4.83234 8.17734 5.00282 8.17734 5.18815V10.6876C8.17734 10.8729 8.27772 11.0434 8.43941 11.1353C8.60094 11.2272 8.79975 11.2272 8.96128 11.1353L13.7967 8.38567C13.9584 8.29372 14.0588 8.12323 14.0588 7.9379C14.0588 7.75256 13.9585 7.58207 13.7968 7.49012L8.96129 4.74037ZM9.22337 6.08172L12.4875 7.93789L9.22337 9.794V6.08172Z" fill="#F8F8F8" stroke="#F8F8F8" stroke-width="0.2" stroke-linejoin="round"/>
<path d="M3.58293 2.32919C5.36509 2.18757 7.97212 2.025 10.5381 2.025C13.038 2.025 15.5926 2.17931 17.3844 2.3183C18.3546 2.39356 19.099 3.09285 19.2074 3.9936C19.342 5.11111 19.4624 6.51441 19.4624 7.95C19.4624 9.4809 19.3255 10.9688 19.1807 12.1115C19.0761 12.9373 18.442 13.5557 17.6086 13.6444C16.0933 13.8055 13.7388 13.975 10.5381 13.975C7.24389 13.975 4.86095 13.7955 3.36591 13.6304C2.58479 13.5441 1.99834 12.9906 1.88066 12.2498C1.7062 11.1516 1.53756 9.64918 1.53756 7.95C1.53756 6.3568 1.68582 4.93114 1.84831 3.84837C1.97082 3.03196 2.66381 2.40224 3.58293 2.32919ZM3.48389 1.10812C2.04239 1.22268 0.838706 2.23881 0.624179 3.66837C0.454877 4.79656 0.3 6.28375 0.3 7.95C0.3 9.72694 0.476138 11.2945 0.658114 12.4401C0.864816 13.7413 1.90877 14.7021 3.22868 14.8478C4.76961 15.018 7.19837 15.2 10.5381 15.2C13.7831 15.2 16.1816 15.0282 17.7408 14.8624C19.1481 14.7127 20.233 13.6503 20.4087 12.2639C20.5574 11.0898 20.7 9.54806 20.7 7.95C20.7 6.45109 20.5746 4.9968 20.4363 3.8486C20.2542 2.33653 19.0074 1.21544 17.4811 1.09705C15.6736 0.956837 13.0834 0.8 10.5381 0.8C7.9256 0.8 5.28208 0.965224 3.48389 1.10812Z" fill="#F8F8F8" stroke="#F8F8F8" stroke-width="0.4"/>
</g>
<defs>
<clipPath id="clip0_318_314">
<rect width="21" height="15" fill="white" transform="translate(0 0.5)"/>
</clipPath>
</defs>
</svg>
