<svg width="96" height="96" viewBox="0 0 96 96" fill="none" xmlns="http://www.w3.org/2000/svg">
<rect width="96" height="96" rx="8" fill="#2D2A29"/>
<mask id="mask0_511_7932" style="mask-type:luminance" maskUnits="userSpaceOnUse" x="7" y="7" width="82" height="82">
<path d="M83.5603 7H12.4396C9.43541 7 7 9.43541 7 12.4396V83.5603C7 86.5646 9.43541 89 12.4396 89H83.5603C86.5646 89 89 86.5646 89 83.5603V12.4396C89 9.43541 86.5646 7 83.5603 7Z" fill="white"/>
</mask>
<g mask="url(#mask0_511_7932)">
<path fill-rule="evenodd" clip-rule="evenodd" d="M12.5258 56.7357C-5.31182 56.7357 -19.7721 71.196 -19.7721 89.0336C-19.7721 106.871 -5.31182 121.332 12.5258 121.332C30.3635 121.332 44.8238 106.871 44.8238 89.0336C44.8238 71.196 30.3635 56.7357 12.5258 56.7357ZM-23.1719 89.0336C-23.1719 69.3183 -7.18947 53.3359 12.5258 53.3359C32.2411 53.3359 48.2235 69.3183 48.2235 89.0336C48.2235 108.749 32.2411 124.731 12.5258 124.731C-7.18947 124.731 -23.1719 108.749 -23.1719 89.0336Z" fill="#F8F8F8"/>
<path fill-rule="evenodd" clip-rule="evenodd" d="M12.5261 63.5365C-1.55629 63.5365 -12.9723 74.9525 -12.9723 89.0349C-12.9723 103.117 -1.55629 114.533 12.5261 114.533C26.6084 114.533 38.0244 103.117 38.0244 89.0349C38.0244 74.9525 26.6084 63.5365 12.5261 63.5365ZM-16.3721 89.0349C-16.3721 73.0749 -3.43393 60.1367 12.5261 60.1367C28.4861 60.1367 41.4242 73.0749 41.4242 89.0349C41.4242 104.995 28.4861 117.933 12.5261 117.933C-3.43393 117.933 -16.3721 104.995 -16.3721 89.0349Z" fill="#F8F8F8"/>
<path fill-rule="evenodd" clip-rule="evenodd" d="M12.5253 70.3373C2.19828 70.3373 -6.17346 78.709 -6.17346 89.0361C-6.17346 99.3631 2.19828 107.735 12.5253 107.735C22.8524 107.735 31.2241 99.3631 31.2241 89.0361C31.2241 78.709 22.8524 70.3373 12.5253 70.3373ZM-9.57324 89.0361C-9.57324 76.8314 0.320629 66.9375 12.5253 66.9375C24.73 66.9375 34.6239 76.8314 34.6239 89.0361C34.6239 101.241 24.73 111.135 12.5253 111.135C0.320628 111.135 -9.57324 101.241 -9.57324 89.0361Z" fill="#F8F8F8"/>
<path fill-rule="evenodd" clip-rule="evenodd" d="M12.5253 43.1381C-12.8229 43.1381 -33.3717 63.6869 -33.3717 89.0351C-33.3717 114.383 -12.8229 134.932 12.5253 134.932C37.8736 134.932 58.4224 114.383 58.4224 89.0351C58.4224 63.6869 37.8736 43.1381 12.5253 43.1381ZM-36.7715 89.0351C-36.7715 61.8092 -14.7005 39.7383 12.5253 39.7383C39.7512 39.7383 61.8222 61.8092 61.8222 89.0351C61.8222 116.261 39.7512 138.332 12.5253 138.332C-14.7005 138.332 -36.7715 116.261 -36.7715 89.0351Z" fill="#F8F8F8"/>
<path fill-rule="evenodd" clip-rule="evenodd" d="M12.5246 49.9349C-9.06833 49.9349 -26.5729 67.4395 -26.5729 89.0324C-26.5729 110.625 -9.06833 128.13 12.5246 128.13C34.1176 128.13 51.6221 110.625 51.6221 89.0324C51.6221 67.4395 34.1176 49.9349 12.5246 49.9349ZM-29.9727 89.0324C-29.9727 65.5618 -10.946 46.5352 12.5246 46.5352C35.9952 46.5352 55.0219 65.5618 55.0219 89.0324C55.0219 112.503 35.9952 131.53 12.5246 131.53C-10.946 131.53 -29.9727 112.503 -29.9727 89.0324Z" fill="#F8F8F8"/>
<path fill-rule="evenodd" clip-rule="evenodd" d="M12.5256 77.1361C5.95381 77.1361 0.626344 82.4636 0.626344 89.0353C0.626344 95.6071 5.95381 100.935 12.5256 100.935C19.0973 100.935 24.4248 95.6071 24.4248 89.0353C24.4248 82.4636 19.0973 77.1361 12.5256 77.1361ZM-2.77344 89.0353C-2.77344 80.5859 4.07617 73.7363 12.5256 73.7363C20.975 73.7363 27.8246 80.5859 27.8246 89.0353C27.8246 97.4848 20.975 104.334 12.5256 104.334C4.07617 104.334 -2.77344 97.4848 -2.77344 89.0353Z" fill="#F8F8F8"/>
<mask id="mask1_511_7932" style="mask-type:luminance" maskUnits="userSpaceOnUse" x="-46" y="-22" width="106" height="86">
<path d="M59.4398 30.8664C59.4398 39.9397 57.132 48.4718 53.0714 55.9119C43.469 44.1731 28.8717 36.68 12.5228 36.68C-7.31964 36.68 -24.5851 47.7184 -33.4653 63.9898C-40.8456 54.9654 -45.2734 43.4333 -45.2734 30.8664C-45.2734 1.95058 -21.8326 -21.4902 7.08319 -21.4902C35.999 -21.4902 59.4398 1.95058 59.4398 30.8664Z" fill="white"/>
</mask>
<g mask="url(#mask1_511_7932)">
<path fill-rule="evenodd" clip-rule="evenodd" d="M7.08247 5.37048C-10.7552 5.37048 -25.2155 19.8308 -25.2155 37.6684C-25.2155 55.5061 -10.7552 69.9663 7.08247 69.9663C24.9201 69.9663 39.3804 55.5061 39.3804 37.6684C39.3804 19.8308 24.9201 5.37048 7.08247 5.37048ZM-28.6152 37.6684C-28.6152 17.9531 -12.6328 1.9707 7.08247 1.9707C26.7978 1.9707 42.7802 17.9531 42.7802 37.6684C42.7802 57.3837 26.7978 73.3661 7.08247 73.3661C-12.6328 73.3661 -28.6152 57.3837 -28.6152 37.6684Z" fill="#F8F8F8"/>
<path fill-rule="evenodd" clip-rule="evenodd" d="M7.08271 12.1713C-6.99965 12.1713 -18.4156 23.5873 -18.4156 37.6696C-18.4156 51.752 -6.99965 63.168 7.08271 63.168C21.1651 63.168 32.5811 51.752 32.5811 37.6696C32.5811 23.5873 21.1651 12.1713 7.08271 12.1713ZM-21.8154 37.6696C-21.8154 21.7096 -8.87729 8.77148 7.08271 8.77148C23.0427 8.77148 35.9808 21.7096 35.9808 37.6696C35.9808 53.6296 23.0427 66.5678 7.08271 66.5678C-8.87729 66.5678 -21.8154 53.6296 -21.8154 37.6696Z" fill="#F8F8F8"/>
<path fill-rule="evenodd" clip-rule="evenodd" d="M7.08198 18.972C-3.24508 18.972 -11.6168 27.3438 -11.6168 37.6708C-11.6168 47.9979 -3.24508 56.3696 7.08198 56.3696C17.409 56.3696 25.7808 47.9979 25.7808 37.6708C25.7808 27.3438 17.409 18.972 7.08198 18.972ZM-15.0166 37.6708C-15.0166 25.4661 -5.12273 15.5723 7.08198 15.5723C19.2867 15.5723 29.1806 25.4661 29.1806 37.6708C29.1806 49.8756 19.2867 59.7694 7.08198 59.7694C-5.12273 59.7694 -15.0166 49.8756 -15.0166 37.6708Z" fill="#F8F8F8"/>
<path fill-rule="evenodd" clip-rule="evenodd" d="M7.08198 -8.22717C-18.2663 -8.22717 -38.8151 12.3216 -38.8151 37.6699C-38.8151 63.0181 -18.2663 83.5669 7.08198 83.5669C32.4302 83.5669 52.979 63.0181 52.979 37.6699C52.979 12.3216 32.4302 -8.22717 7.08198 -8.22717ZM-42.2148 37.6699C-42.2148 10.444 -20.1439 -11.627 7.08198 -11.627C34.3079 -11.627 56.3788 10.444 56.3788 37.6699C56.3788 64.8958 34.3079 86.9667 7.08198 86.9667C-20.1439 86.9667 -42.2148 64.8958 -42.2148 37.6699Z" fill="#F8F8F8"/>
<path fill-rule="evenodd" clip-rule="evenodd" d="M7.08125 -1.4303C-14.5117 -1.4303 -32.0162 16.0742 -32.0162 37.6672C-32.0162 59.2601 -14.5117 76.7647 7.08125 76.7647C28.6742 76.7647 46.1787 59.2601 46.1787 37.6672C46.1787 16.0742 28.6742 -1.4303 7.08125 -1.4303ZM-35.416 37.6672C-35.416 14.1966 -16.3893 -4.83008 7.08125 -4.83008C30.5518 -4.83008 49.5785 14.1966 49.5785 37.6672C49.5785 61.1378 30.5518 80.1645 7.08125 80.1645C-16.3893 80.1645 -35.416 61.1378 -35.416 37.6672Z" fill="#F8F8F8"/>
<path fill-rule="evenodd" clip-rule="evenodd" d="M7.08222 25.7709C0.510453 25.7709 -4.81702 31.0983 -4.81702 37.6701C-4.81702 44.2419 0.510454 49.5693 7.08222 49.5693C13.654 49.5693 18.9815 44.2419 18.9815 37.6701C18.9815 31.0983 13.654 25.7709 7.08222 25.7709ZM-8.2168 37.6701C-8.2168 29.2207 -1.36719 22.3711 7.08222 22.3711C15.5316 22.3711 22.3812 29.2207 22.3812 37.6701C22.3812 46.1195 15.5316 52.9691 7.08222 52.9691C-1.36719 52.9691 -8.2168 46.1195 -8.2168 37.6701Z" fill="#F8F8F8"/>
</g>
<mask id="mask2_511_7932" style="mask-type:luminance" maskUnits="userSpaceOnUse" x="49" y="-11" width="93" height="105">
<path d="M141.285 41.4738C141.285 70.3896 117.844 93.8304 88.9279 93.8304C80.2544 93.8304 72.0731 91.7212 64.8697 87.9869C64.6562 77.0219 61.0701 66.8824 55.1041 58.5638C57.8947 52.1627 59.4423 45.0953 59.4423 37.6661C59.4423 26.2115 55.7637 15.6164 49.5244 6.99732C59.1213 -3.96222 73.2155 -10.8828 88.9279 -10.8828C117.844 -10.8828 141.285 12.558 141.285 41.4738Z" fill="white"/>
</mask>
<g mask="url(#mask2_511_7932)">
<path fill-rule="evenodd" clip-rule="evenodd" d="M88.9292 9.18298C71.0915 9.18298 56.6312 23.6433 56.6312 41.4809C56.6312 59.3186 71.0915 73.7788 88.9292 73.7788C106.767 73.7788 121.227 59.3186 121.227 41.4809C121.227 23.6433 106.767 9.18298 88.9292 9.18298ZM53.2314 41.4809C53.2314 21.7656 69.2139 5.7832 88.9292 5.7832C108.644 5.7832 124.627 21.7656 124.627 41.4809C124.627 61.1962 108.644 77.1786 88.9292 77.1786C69.2139 77.1786 53.2314 61.1962 53.2314 41.4809Z" fill="#F8F8F8"/>
<path fill-rule="evenodd" clip-rule="evenodd" d="M88.9294 15.9838C74.847 15.9838 63.431 27.3998 63.431 41.4821C63.431 55.5645 74.847 66.9805 88.9294 66.9805C103.012 66.9805 114.428 55.5645 114.428 41.4821C114.428 27.3998 103.012 15.9838 88.9294 15.9838ZM60.0312 41.4821C60.0312 25.5221 72.9694 12.584 88.9294 12.584C104.889 12.584 117.828 25.5221 117.828 41.4821C117.828 57.4421 104.889 70.3803 88.9294 70.3803C72.9694 70.3803 60.0312 57.4421 60.0312 41.4821Z" fill="#F8F8F8"/>
<path fill-rule="evenodd" clip-rule="evenodd" d="M88.9287 22.7845C78.6016 22.7845 70.2299 31.1563 70.2299 41.4833C70.2299 51.8104 78.6016 60.1821 88.9287 60.1821C99.2557 60.1821 107.627 51.8104 107.627 41.4833C107.627 31.1563 99.2557 22.7845 88.9287 22.7845ZM66.8301 41.4833C66.8301 29.2786 76.724 19.3848 88.9287 19.3848C101.133 19.3848 111.027 29.2786 111.027 41.4833C111.027 53.6881 101.133 63.5819 88.9287 63.5819C76.724 63.5819 66.8301 53.6881 66.8301 41.4833Z" fill="#F8F8F8"/>
<path fill-rule="evenodd" clip-rule="evenodd" d="M88.9287 -4.41467C63.5804 -4.41467 43.0316 16.1341 43.0316 41.4824C43.0316 66.8306 63.5804 87.3794 88.9287 87.3794C114.277 87.3794 134.826 66.8306 134.826 41.4824C134.826 16.1341 114.277 -4.41467 88.9287 -4.41467ZM39.6318 41.4824C39.6318 14.2565 61.7028 -7.81445 88.9287 -7.81445C116.155 -7.81445 138.225 14.2565 138.225 41.4824C138.225 68.7083 116.155 90.7792 88.9287 90.7792C61.7028 90.7792 39.6318 68.7083 39.6318 41.4824Z" fill="#F8F8F8"/>
<path fill-rule="evenodd" clip-rule="evenodd" d="M88.9279 2.3822C67.335 2.3822 49.8304 19.8867 49.8304 41.4797C49.8304 63.0726 67.335 80.5772 88.9279 80.5772C110.521 80.5772 128.025 63.0726 128.025 41.4797C128.025 19.8867 110.521 2.3822 88.9279 2.3822ZM46.4307 41.4797C46.4307 18.0091 65.4573 -1.01758 88.9279 -1.01758C112.399 -1.01758 131.425 18.0091 131.425 41.4797C131.425 64.9503 112.399 83.977 88.9279 83.977C65.4573 83.977 46.4307 64.9503 46.4307 41.4797Z" fill="#F8F8F8"/>
<path fill-rule="evenodd" clip-rule="evenodd" d="M88.9289 29.5834C82.3571 29.5834 77.0297 34.9108 77.0297 41.4826C77.0297 48.0544 82.3571 53.3818 88.9289 53.3818C95.5007 53.3818 100.828 48.0544 100.828 41.4826C100.828 34.9108 95.5007 29.5834 88.9289 29.5834ZM73.6299 41.4826C73.6299 33.0332 80.4795 26.1836 88.9289 26.1836C97.3783 26.1836 104.228 33.0332 104.228 41.4826C104.228 49.932 97.3783 56.7816 88.9289 56.7816C80.4795 56.7816 73.6299 49.932 73.6299 41.4826Z" fill="#F8F8F8"/>
</g>
</g>
</svg>
