<svg width="154" height="158" viewBox="0 0 154 158" fill="none" xmlns="http://www.w3.org/2000/svg">
<rect x="0.5" y="0.5" width="153" height="157" rx="30.5" fill="#F8F8F8"/>
<rect x="0.5" y="0.5" width="153" height="157" rx="30.5" stroke="#1E1B19"/>
<path d="M62.8789 28.9258C63.4746 28.9258 63.9466 28.7061 64.2949 28.2666C64.6465 27.8271 64.8223 27.2021 64.8223 26.3916C64.8223 25.5843 64.6465 24.9609 64.2949 24.5215C63.9466 24.0788 63.4746 23.8574 62.8789 23.8574C62.2832 23.8574 61.8079 24.0771 61.4531 24.5166C61.0983 24.9561 60.9209 25.5811 60.9209 26.3916C60.9209 27.2021 61.0983 27.8271 61.4531 28.2666C61.8079 28.7061 62.2832 28.9258 62.8789 28.9258ZM66.3262 26.3916C66.3262 27.6839 65.9632 28.6735 65.2373 29.3604C64.6937 29.9202 63.9076 30.2002 62.8789 30.2002C61.8503 30.2002 61.0641 29.9202 60.5205 29.3604C59.7913 28.6735 59.4268 27.6839 59.4268 26.3916C59.4268 25.0732 59.7913 24.0837 60.5205 23.4229C61.0641 22.863 61.8503 22.583 62.8789 22.583C63.9076 22.583 64.6937 22.863 65.2373 23.4229C65.9632 24.0837 66.3262 25.0732 66.3262 26.3916ZM68.9385 24.0527V25.6396H70.7061C71.0218 25.6396 71.2773 25.5811 71.4727 25.4639C71.6712 25.3434 71.7705 25.1318 71.7705 24.8291C71.7705 24.4938 71.6403 24.2725 71.3799 24.165C71.1553 24.0902 70.8688 24.0527 70.5205 24.0527H68.9385ZM68.9385 26.8311V28.75H70.7061C71.0218 28.75 71.2676 28.7077 71.4434 28.623C71.7624 28.4668 71.9219 28.1673 71.9219 27.7246C71.9219 27.3503 71.7673 27.0931 71.458 26.9531C71.2855 26.875 71.043 26.8343 70.7305 26.8311H68.9385ZM70.999 22.8027C71.8812 22.8158 72.5062 23.0713 72.874 23.5693C73.0954 23.8753 73.2061 24.2415 73.2061 24.668C73.2061 25.1074 73.0954 25.4606 72.874 25.7275C72.7503 25.8773 72.568 26.014 72.3271 26.1377C72.695 26.2712 72.9717 26.4827 73.1572 26.7725C73.346 27.0622 73.4404 27.4137 73.4404 27.8271C73.4404 28.2536 73.333 28.6361 73.1182 28.9746C72.9814 29.1992 72.8105 29.388 72.6055 29.541C72.3743 29.7168 72.1009 29.8372 71.7852 29.9023C71.4727 29.9674 71.1325 30 70.7646 30H67.5029V22.8027H70.999ZM76.209 24.0527V25.9863H77.9131C78.2516 25.9863 78.5055 25.9473 78.6748 25.8691C78.9743 25.7324 79.124 25.4622 79.124 25.0586C79.124 24.6224 78.9792 24.3294 78.6895 24.1797C78.5267 24.0951 78.2826 24.0527 77.957 24.0527H76.209ZM78.2695 22.8027C78.7741 22.8125 79.1615 22.8743 79.4316 22.9883C79.7051 23.1022 79.9362 23.2699 80.125 23.4912C80.2812 23.6735 80.4049 23.8753 80.4961 24.0967C80.5872 24.318 80.6328 24.5703 80.6328 24.8535C80.6328 25.1953 80.5465 25.5322 80.374 25.8643C80.2015 26.193 79.9167 26.4258 79.5195 26.5625C79.8516 26.696 80.0859 26.8864 80.2227 27.1338C80.3626 27.3779 80.4326 27.7523 80.4326 28.2568V28.7402C80.4326 29.069 80.4456 29.292 80.4717 29.4092C80.5107 29.5947 80.6019 29.7314 80.7451 29.8193V30H79.0898C79.0443 29.8405 79.0117 29.7119 78.9922 29.6143C78.9531 29.4124 78.932 29.2057 78.9287 28.9941L78.9189 28.3252C78.9124 27.8662 78.8278 27.5602 78.665 27.4072C78.5055 27.2542 78.2044 27.1777 77.7617 27.1777H76.209V30H74.7393V22.8027H78.2695ZM83.8994 27.2803H85.7256L84.8271 24.4482L83.8994 27.2803ZM83.9922 22.8027H85.6914L88.2402 30H86.6094L86.1455 28.5205H83.4941L82.9961 30H81.4238L83.9922 22.8027ZM90.2471 27.7783C90.2926 28.1071 90.3822 28.3529 90.5156 28.5156C90.7598 28.8118 91.1781 28.96 91.7705 28.96C92.1253 28.96 92.4134 28.9209 92.6348 28.8428C93.0547 28.693 93.2646 28.4147 93.2646 28.0078C93.2646 27.7702 93.1605 27.5863 92.9521 27.4561C92.7438 27.3291 92.4167 27.2168 91.9707 27.1191L91.209 26.9482C90.4603 26.779 89.9427 26.5951 89.6562 26.3965C89.1712 26.0645 88.9287 25.5452 88.9287 24.8389C88.9287 24.1943 89.1631 23.6589 89.6318 23.2324C90.1006 22.806 90.7891 22.5928 91.6973 22.5928C92.4557 22.5928 93.1019 22.7946 93.6357 23.1982C94.1729 23.5986 94.4544 24.1813 94.4805 24.9463H93.0352C93.0091 24.5133 92.8203 24.2057 92.4688 24.0234C92.2344 23.903 91.943 23.8428 91.5947 23.8428C91.2074 23.8428 90.8981 23.9209 90.667 24.0771C90.4359 24.2334 90.3203 24.4515 90.3203 24.7314C90.3203 24.9886 90.4342 25.1807 90.6621 25.3076C90.8086 25.3923 91.1211 25.4915 91.5996 25.6055L92.8398 25.9033C93.3835 26.0335 93.7936 26.2077 94.0703 26.4258C94.5 26.7643 94.7148 27.2542 94.7148 27.8955C94.7148 28.5531 94.4626 29.0999 93.958 29.5361C93.4567 29.9691 92.7471 30.1855 91.8291 30.1855C90.8916 30.1855 90.1543 29.9723 89.6172 29.5459C89.0801 29.1162 88.8115 28.527 88.8115 27.7783H90.2471ZM30.1689 34.0527V35.9863H31.873C32.2116 35.9863 32.4655 35.9473 32.6348 35.8691C32.9342 35.7324 33.084 35.4622 33.084 35.0586C33.084 34.6224 32.9391 34.3294 32.6494 34.1797C32.4867 34.0951 32.2425 34.0527 31.917 34.0527H30.1689ZM32.2295 32.8027C32.734 32.8125 33.1214 32.8743 33.3916 32.9883C33.665 33.1022 33.8962 33.2699 34.085 33.4912C34.2412 33.6735 34.3649 33.8753 34.4561 34.0967C34.5472 34.318 34.5928 34.5703 34.5928 34.8535C34.5928 35.1953 34.5065 35.5322 34.334 35.8643C34.1615 36.193 33.8766 36.4258 33.4795 36.5625C33.8115 36.696 34.0459 36.8864 34.1826 37.1338C34.3226 37.3779 34.3926 37.7523 34.3926 38.2568V38.7402C34.3926 39.069 34.4056 39.292 34.4316 39.4092C34.4707 39.5947 34.5618 39.7314 34.7051 39.8193V40H33.0498C33.0042 39.8405 32.9717 39.7119 32.9521 39.6143C32.9131 39.4124 32.8919 39.2057 32.8887 38.9941L32.8789 38.3252C32.8724 37.8662 32.7878 37.5602 32.625 37.4072C32.4655 37.2542 32.1644 37.1777 31.7217 37.1777H30.1689V40H28.6992V32.8027H32.2295ZM41.2139 34.0771H37.4053V35.6055H40.9014V36.8555H37.4053V38.7061H41.3896V40H35.9355V32.8027H41.2139V34.0771ZM47.4004 35.0488C47.2865 34.5573 47.0081 34.2139 46.5654 34.0186C46.318 33.9111 46.043 33.8574 45.7402 33.8574C45.1608 33.8574 44.6839 34.0771 44.3096 34.5166C43.9385 34.9528 43.7529 35.6104 43.7529 36.4893C43.7529 37.3747 43.9548 38.0013 44.3584 38.3691C44.762 38.737 45.221 38.9209 45.7354 38.9209C46.2399 38.9209 46.6533 38.776 46.9756 38.4863C47.2979 38.1934 47.4964 37.8109 47.5713 37.3389H45.9062V36.1377H48.9043V40H47.9082L47.7568 39.1016C47.4671 39.4434 47.2067 39.6842 46.9756 39.8242C46.5785 40.0684 46.0902 40.1904 45.5107 40.1904C44.557 40.1904 43.7757 39.86 43.167 39.1992C42.5322 38.5352 42.2148 37.627 42.2148 36.4746C42.2148 35.3092 42.5355 34.375 43.1768 33.6719C43.818 32.9688 44.666 32.6172 45.7207 32.6172C46.6354 32.6172 47.3695 32.8499 47.9229 33.3154C48.4795 33.7777 48.7985 34.3555 48.8799 35.0488H47.4004ZM50.3447 32.8027H51.873V37.2266C51.873 37.7214 51.9316 38.0827 52.0488 38.3105C52.2311 38.7142 52.6283 38.916 53.2402 38.916C53.849 38.916 54.2445 38.7142 54.4268 38.3105C54.5439 38.0827 54.6025 37.7214 54.6025 37.2266V32.8027H56.1309V37.2266C56.1309 37.9915 56.012 38.5872 55.7744 39.0137C55.3317 39.7949 54.487 40.1855 53.2402 40.1855C51.9935 40.1855 51.1471 39.7949 50.7012 39.0137C50.4635 38.5872 50.3447 37.9915 50.3447 37.2266V32.8027ZM57.5713 32.8027H59.0752V38.7061H62.6396V40H57.5713V32.8027ZM65.6523 37.2803H67.4785L66.5801 34.4482L65.6523 37.2803ZM65.7451 32.8027H67.4443L69.9932 40H68.3623L67.8984 38.5205H65.2471L64.749 40H63.1768L65.7451 32.8027ZM75.6816 32.8027H77.8447V40H76.4434V35.1318C76.4434 34.9919 76.445 34.7965 76.4482 34.5459C76.4515 34.292 76.4531 34.0967 76.4531 33.96L75.0908 40H73.6309L72.2783 33.96C72.2783 34.0967 72.2799 34.292 72.2832 34.5459C72.2865 34.7965 72.2881 34.9919 72.2881 35.1318V40H70.8867V32.8027H73.0742L74.3828 38.4619L75.6816 32.8027ZM84.5635 34.0771H80.7549V35.6055H84.251V36.8555H80.7549V38.7061H84.7393V40H79.2852V32.8027H84.5635V34.0771ZM85.8867 32.8027H87.4639L90.3301 37.8271V32.8027H91.7314V40H90.2275L87.2881 34.8877V40H85.8867V32.8027ZM98.3672 32.8027V34.0771H96.2139V40H94.7002V34.0771H92.5371V32.8027H98.3672ZM100.477 37.2803H102.303L101.404 34.4482L100.477 37.2803ZM100.569 32.8027H102.269L104.817 40H103.187L102.723 38.5205H100.071L99.5732 40H98.001L100.569 32.8027ZM107.195 34.0527V38.75H108.582C109.292 38.75 109.786 38.4001 110.066 37.7002C110.219 37.3161 110.296 36.8587 110.296 36.3281C110.296 35.5957 110.18 35.0342 109.949 34.6436C109.721 34.2497 109.266 34.0527 108.582 34.0527H107.195ZM108.836 32.8027C109.282 32.8092 109.653 32.8613 109.949 32.959C110.454 33.125 110.862 33.4294 111.175 33.8721C111.425 34.2301 111.596 34.6175 111.688 35.0342C111.779 35.4508 111.824 35.848 111.824 36.2256C111.824 37.1826 111.632 37.9932 111.248 38.6572C110.727 39.5524 109.923 40 108.836 40H105.735V32.8027H108.836ZM114.93 37.2803H116.756L115.857 34.4482L114.93 37.2803ZM115.022 32.8027H116.722L119.271 40H117.64L117.176 38.5205H114.524L114.026 40H112.454L115.022 32.8027ZM121.277 37.7783C121.323 38.1071 121.412 38.3529 121.546 38.5156C121.79 38.8118 122.208 38.96 122.801 38.96C123.156 38.96 123.444 38.9209 123.665 38.8428C124.085 38.693 124.295 38.4147 124.295 38.0078C124.295 37.7702 124.191 37.5863 123.982 37.4561C123.774 37.3291 123.447 37.2168 123.001 37.1191L122.239 36.9482C121.491 36.779 120.973 36.5951 120.687 36.3965C120.201 36.0645 119.959 35.5452 119.959 34.8389C119.959 34.1943 120.193 33.6589 120.662 33.2324C121.131 32.806 121.819 32.5928 122.728 32.5928C123.486 32.5928 124.132 32.7946 124.666 33.1982C125.203 33.5986 125.485 34.1813 125.511 34.9463H124.065C124.039 34.5133 123.851 34.2057 123.499 34.0234C123.265 33.903 122.973 33.8428 122.625 33.8428C122.238 33.8428 121.928 33.9209 121.697 34.0771C121.466 34.2334 121.351 34.4515 121.351 34.7314C121.351 34.9886 121.465 35.1807 121.692 35.3076C121.839 35.3923 122.151 35.4915 122.63 35.6055L123.87 35.9033C124.414 36.0335 124.824 36.2077 125.101 36.4258C125.53 36.7643 125.745 37.2542 125.745 37.8955C125.745 38.5531 125.493 39.0999 124.988 39.5361C124.487 39.9691 123.777 40.1855 122.859 40.1855C121.922 40.1855 121.185 39.9723 120.647 39.5459C120.11 39.1162 119.842 38.527 119.842 37.7783H121.277Z" fill="#1E1B19"/>
<g clip-path="url(#clip0_240_3858)">
<path fill-rule="evenodd" clip-rule="evenodd" d="M43.7427 49.2756H110.047V110.746C110.047 112.959 108.235 114.772 106.021 114.772H80.5171C78.8424 114.772 77.6907 115.979 76.9654 118.371C76.2784 116.317 75.2627 114.763 73.2209 114.772H47.7679C45.5549 114.772 43.7427 112.96 43.7427 110.746V49.2756ZM81.3952 55.0978L79.5334 54.8483L79.0783 52.6282C77.6148 52.5042 76.1384 52.5122 74.6525 52.6282L74.259 54.8691L72.3772 55.1178L71.3631 53.064C69.9211 53.3312 68.5007 53.7182 67.102 54.2261L67.2883 56.467L65.5496 57.2004L64.0221 55.4985C62.6353 56.1575 61.3829 56.9109 60.2137 57.7226L60.9886 59.834L59.4891 60.9992L57.6025 59.7356C56.4452 60.7313 55.4167 61.779 54.4778 62.8634L55.7726 64.7205L54.6186 66.2096L52.4504 65.4827C51.6099 66.7391 50.8773 68.0163 50.2543 69.3167L51.9786 70.7714L51.254 72.5221L48.9803 72.3813C48.4804 73.7697 48.1149 75.1853 47.8334 76.6177L49.8888 77.5926L49.6353 79.4704L47.404 79.9366C47.2904 81.4162 47.3064 82.8838 47.4112 84.3417L49.6425 84.7376L49.8888 86.6162L47.8398 87.6399C48.1285 89.0915 48.51 90.511 48.9947 91.897L51.254 91.6931L51.9858 93.4437L50.2439 94.9753C50.9317 96.2821 51.6811 97.5473 52.5 98.7677L54.6258 98.0119L55.7654 99.5091L54.5266 101.416C55.4903 102.515 56.5292 103.553 57.6448 104.523L59.4963 103.23L60.995 104.396L60.2776 106.549C61.4925 107.374 62.7681 108.101 64.0925 108.752L65.5496 107.028L67.2947 107.756L67.1683 110.023C68.5415 110.513 69.9587 110.894 71.4198 111.166L72.3836 109.119L74.263 109.366L74.7204 111.59C76.1784 111.71 77.6476 111.71 79.1271 111.59L79.5286 109.366L81.408 109.112L82.4285 111.146C83.8449 110.91 85.262 110.52 86.6792 110.002L86.4897 107.742L88.2355 107.028L89.7623 108.73C91.0619 108.1 92.3287 107.361 93.5635 106.513L92.8029 104.381L94.2889 103.23L96.1883 104.487C97.2824 103.54 98.3221 102.495 99.3066 101.352L98.019 99.4955L99.1658 98.0119L101.328 98.7397C102.107 97.5617 102.844 96.2861 103.537 94.9121L101.806 93.4509L102.538 91.7067L104.818 91.841C105.283 90.487 105.661 89.0675 105.951 87.5831L103.905 86.6226L104.157 84.7272L106.374 84.2721C106.487 82.8062 106.502 81.3402 106.374 79.8751L104.145 79.4824L103.905 77.6126L105.946 76.5761C105.657 75.1117 105.281 73.6826 104.774 72.3046L102.532 72.5197L101.839 70.7762L103.502 69.2599C102.857 67.9283 102.114 66.6519 101.272 65.4307L99.169 66.2144L98.0094 64.6973L99.2698 62.8019C98.2717 61.663 97.2304 60.6233 96.1451 59.6804L94.2937 60.9824L92.7813 59.8324L93.4995 57.6714C92.2735 56.8437 91.0083 56.1039 89.6959 55.4729L88.2467 57.1916L86.4833 56.471L86.6216 54.1965C85.2524 53.6934 83.8289 53.3096 82.3509 53.0464L81.3952 55.0978ZM76.9318 58.6983C89.8286 58.6983 100.288 69.2303 100.288 82.1272C100.288 95.024 89.8286 105.519 76.9318 105.519C64.0341 105.519 53.5021 95.024 53.5021 82.1272C53.5021 69.2303 64.0341 58.6983 76.9318 58.6983ZM69.2005 100.462V101.729V102.448V103.366L69.1653 103.354L68.1384 102.949L67.1364 102.495L66.1607 101.996L65.2129 101.451L64.294 100.862L63.4063 100.231L62.5498 99.5595L61.7276 98.8485L60.9398 98.0991L60.1889 97.3138L59.4763 96.4924L58.8029 95.6383L58.1703 94.7521L57.5809 93.8348L57.0338 92.8879L56.5332 91.9138L56.0781 90.9133L55.6718 89.888L55.3152 88.8387L55.0096 87.7671L54.7561 86.6754L54.5562 85.5637L54.4114 84.4353L54.3243 83.2884L54.2947 82.1272L54.3243 80.9659L54.4114 79.8191L54.5562 78.689L54.7561 77.5774L55.0096 76.4841L55.3152 75.4116L55.6718 74.3615L56.0789 73.3347L56.5332 72.3326L57.0346 71.3569L57.5809 70.4091L58.1711 69.4902L58.8037 68.6017L59.4771 67.746L60.1897 66.9238L60.9406 66.1361L61.7284 65.3859L62.5506 64.6725L63.4071 63.9991L64.2948 63.3665L65.2137 62.7771L66.1615 62.23L67.1372 61.7286L68.1392 61.2743L69.1661 60.8681L70.217 60.5114L71.2887 60.2051L72.382 59.9515L73.4944 59.7524L74.6237 59.6076L75.7705 59.5197L76.9318 59.4901L78.093 59.5197L79.2391 59.6076L80.3683 59.7524L81.4792 59.9515L82.5701 60.2051L83.6401 60.5114L84.6886 60.8681L85.7123 61.2743L86.7112 61.7286L87.6845 62.23L88.629 62.7763L89.5447 63.3657L90.4301 63.9983L91.2826 64.6717L92.1016 65.3843L92.8853 66.1353L93.6331 66.9222L94.3425 67.7444L95.0119 68.6009L95.6413 69.4886L96.2291 70.4076L96.7721 71.3553L97.2704 72.331L97.7222 73.3331L98.1269 74.3599L98.4812 75.4108L98.7851 76.4833L99.037 77.5766L99.2362 78.6882L99.3793 79.8183L99.4665 80.9651L99.4953 82.1272L99.4665 83.2892L99.3793 84.4353L99.2362 85.5653L99.037 86.6762L98.7851 87.7687L98.4812 88.8403L98.1269 89.8896L97.723 90.9149L97.2704 91.9154L96.7729 92.8895L96.2291 93.8364L95.6421 94.7537L95.0127 95.6399L94.3425 96.494L93.6331 97.3154L92.8853 98.0999L92.1024 98.8493L91.2834 99.5603L90.4309 100.232L89.5455 100.863L88.6298 101.452L87.6853 101.996L86.7128 102.495L85.7131 102.949L84.8086 103.307V102.448V101.729V100.442L88.8513 98.599C89.0465 98.4438 89.1097 98.2015 88.9809 97.8304L88.8513 97.3849V94.3083C88.8609 93.9316 88.6842 93.7412 88.3203 93.7372H86.7272C86.085 93.7372 85.9386 93.3574 86.4209 92.7583C87.2174 90.8069 86.68 88.8011 84.8086 86.741C84.4343 86.581 84.1616 86.2683 84.1136 85.6189C84.0384 84.8216 83.7545 84.2209 83.297 83.7835C83.2858 83.1445 83.1387 82.2919 82.6964 82.2088L82.7388 81.964L82.5701 81.6521C82.6372 81.3098 82.6148 81.0003 82.5029 80.7252C83.1115 80.3597 83.6593 79.8967 84.156 79.3512C84.1056 79.6783 84.124 79.9822 84.1896 80.2701C84.2671 80.698 84.4319 81.0683 84.5535 81.4666C84.9213 82.0616 84.8718 82.9037 84.671 83.8355C84.6022 84.6928 84.7558 85.4126 85.1773 85.9676C85.8531 86.7714 86.7528 87.26 87.6125 87.0193C87.2558 85.954 87.471 84.5536 87.7349 83.386L87.8644 82.5542L87.8189 80.0998C87.8516 79.6967 87.9252 79.2896 88.146 78.8722L88.5146 77.7429C92.0584 63.9663 77.0061 58.1537 70.1722 65.2811C71.3951 65.5594 72.4715 65.9145 73.1473 66.8462C73.5336 67.3773 73.3033 67.7108 72.7994 67.5508C72.6819 67.514 72.0709 67.3589 71.4542 67.2709C71.1911 67.2133 70.8776 67.1413 70.6177 67.1429L70.5049 67.1485L70.4002 67.1597L70.3026 67.1773L70.2154 67.2021L70.137 67.2349L70.0707 67.2781L70.0171 67.3333L69.9819 67.4005L69.9675 67.478L69.9755 67.562L70.0035 67.6516L70.0499 67.7412C70.0843 67.8235 70.117 67.9067 70.1482 67.9907C70.1698 68.0523 70.1906 68.1147 70.2106 68.177C70.229 68.2394 70.2458 68.3018 70.2626 68.3634C70.277 68.4258 70.2906 68.4873 70.3034 68.5497C70.3146 68.6105 70.325 68.6721 70.3346 68.7345C70.3418 68.7952 70.349 68.8568 70.3538 68.9184C70.3586 68.98 70.3618 69.0408 70.3634 69.1023C70.3634 69.1631 70.3626 69.2239 70.361 69.2847C70.3578 69.3455 70.353 69.4063 70.3474 69.467C70.3386 69.5422 70.3282 69.6166 70.3146 69.691L70.0027 69.9957C69.9739 70.0309 69.9459 70.0669 69.9195 70.1036C69.8939 70.1412 69.8699 70.1788 69.8467 70.218C69.8243 70.2572 69.8035 70.2972 69.7843 70.3388C69.766 70.382 69.7492 70.4243 69.734 70.4683L69.7068 70.5603L69.686 70.6547L69.6708 70.7546L69.6628 70.8578L69.6604 70.9658L69.666 71.0785L69.678 71.1961L69.698 71.3177L69.7252 71.4456L69.7612 71.5816C69.7931 71.6536 69.8235 71.7248 69.8411 71.8015C69.8475 71.8335 69.8515 71.8639 69.8523 71.8967C69.8523 71.9319 69.8491 71.9655 69.8427 71.9999C69.8315 72.055 69.8147 72.1078 69.7947 72.1606L69.7228 72.2558L69.6548 72.3582L69.5964 72.4597L69.5468 72.5613L69.506 72.6629L69.4732 72.7636L69.4484 72.8636L69.4301 72.9628L69.4181 73.0611L69.4117 73.1595L69.4109 73.2571L69.4141 73.3539L69.4205 73.4498L69.4309 73.545L69.458 73.7337C69.4844 73.8873 69.5132 74.0408 69.5396 74.1952L69.5652 74.3775L69.574 74.4671L69.5804 74.5575L69.5828 74.6471L69.5804 74.7358L69.574 74.8254L69.562 74.9142L69.5436 75.0037L69.5196 75.0925L69.4892 75.1805C69.4293 75.2973 69.3677 75.4132 69.3037 75.5284C69.2285 75.6612 69.1501 75.7931 69.0702 75.9227C68.979 76.069 68.8854 76.2122 68.7895 76.3553C68.5999 76.6361 68.4048 76.9128 68.2128 77.1919C68.2024 77.2167 68.192 77.2415 68.1832 77.2671C68.1736 77.299 68.1656 77.3302 68.16 77.363C68.1552 77.3942 68.1528 77.4254 68.152 77.4574C68.152 77.4878 68.1536 77.5174 68.1576 77.5486C68.1624 77.5782 68.168 77.6062 68.1768 77.6349C68.1856 77.6629 68.1952 77.6893 68.2072 77.7157C68.22 77.7413 68.2336 77.7653 68.2496 77.7893C68.2656 77.8117 68.2832 77.8325 68.3016 77.8533C68.32 77.8709 68.3384 77.8869 68.3576 77.9029C68.5055 78.0316 68.6575 78.1556 68.7871 78.3027C68.8222 78.3443 68.8542 78.3859 68.8838 78.4315L68.8982 78.4587L68.9102 78.4891L68.919 78.5227L68.9262 78.5587L68.9334 78.6394V78.729C68.9278 78.8658 68.9134 79.0025 68.9078 79.1393V79.2457L68.9102 79.2984L68.9158 79.3512L68.9238 79.4032L68.935 79.4544L68.9502 79.5048L68.9686 79.5536L68.9918 79.6007L69.0206 79.6463L69.0534 79.6887L69.0926 79.7287L69.1373 79.7655L69.1877 79.7983L69.2085 79.8095C69.1741 79.8375 69.1421 79.8671 69.1118 79.8991L69.0662 79.9526L69.0294 80.0086L68.9998 80.0662L68.979 80.1254L68.967 80.187L68.963 80.2502L68.9678 80.3141L68.9806 80.3789L69.0014 80.4453C69.015 80.4797 69.0294 80.5125 69.0462 80.5461C69.0646 80.5812 69.0846 80.6156 69.1062 80.65C69.1261 80.6796 69.1469 80.7084 69.1653 80.7388L69.1837 80.782L69.1973 80.8356L69.2037 80.8996C69.2053 80.9363 69.2053 80.9715 69.2037 81.0083C69.2005 81.0483 69.1965 81.0883 69.1917 81.1291C69.1789 81.2139 69.1621 81.2986 69.1429 81.3826L69.1213 81.4658C69.087 81.5913 69.0486 81.7145 69.0038 81.8369C68.9926 81.8721 68.983 81.9072 68.9734 81.9432C68.967 81.9776 68.9614 82.012 68.9566 82.048C68.9534 82.0824 68.9518 82.116 68.951 82.1512C68.9526 82.1848 68.955 82.2176 68.9582 82.2519C68.9638 82.2847 68.9702 82.3175 68.9782 82.3503L69.0102 82.4447C69.0238 82.4759 69.039 82.5055 69.055 82.5359C69.0734 82.5654 69.0918 82.5934 69.1118 82.6222C69.1341 82.6502 69.1565 82.6766 69.1805 82.703C69.2069 82.7294 69.2333 82.755 69.2613 82.779L69.3229 82.8278L69.4508 82.9053L69.582 82.9757L69.7188 83.0405L69.8603 83.1005L70.0075 83.1549L70.1602 83.2045C70.2386 83.2268 70.3178 83.2484 70.3978 83.2684C70.4809 83.2876 70.5633 83.3052 70.6465 83.322C70.7337 83.338 70.82 83.3524 70.9072 83.366C70.9976 83.378 71.088 83.3892 71.1783 83.3996C71.2727 83.4084 71.3663 83.4164 71.4606 83.4236C71.6134 83.4332 71.8381 83.4396 71.9909 83.4428C72.0501 83.5683 72.106 83.6931 72.1572 83.8179C72.2692 84.1042 72.3676 84.4121 72.4531 84.7392C72.4571 84.7568 72.4611 84.7736 72.4659 84.7904L72.4667 84.7896C72.5787 85.2262 72.6691 85.6965 72.7394 86.1995C72.7914 86.5714 72.6979 86.7658 72.4587 86.7842C70.9624 87.2928 69.666 87.9006 68.7103 88.6796C67.1747 89.8968 66.7309 91.2964 68.0473 92.9919C68.3232 93.4549 68.172 93.7045 67.5946 93.6941L65.6968 93.6629C65.2601 93.6629 65.0514 93.8708 65.0722 94.2867L65.1506 96.4236C65.1386 96.8811 65.093 97.3106 64.9554 97.664C64.7619 98.0991 64.7635 98.4502 65.049 98.6773L69.2005 100.462ZM80.5451 78.7058C80.6554 79.2928 80.7378 79.8967 80.7906 80.5181L80.134 80.7636C80.014 80.0918 79.8629 79.44 79.6861 78.8106C79.7741 78.829 79.8653 78.8386 79.9589 78.8386C80.1692 78.8386 80.3675 78.7906 80.5451 78.7058ZM79.9589 77.0159C80.2092 77.0159 80.4131 77.2199 80.4131 77.4702C80.4131 77.7205 80.2092 77.9245 79.9589 77.9245C79.7085 77.9245 79.5046 77.7205 79.5046 77.4702C79.5046 77.2199 79.7085 77.0159 79.9589 77.0159ZM79.9589 76.5057C80.4899 76.5057 80.9234 76.9392 80.9234 77.4702C80.9234 78.0012 80.4899 78.4339 79.9589 78.4339C79.4278 78.4339 78.9951 78.0012 78.9951 77.4702C78.9951 76.9392 79.4278 76.5057 79.9589 76.5057ZM82.1934 82.7654C82.4517 81.956 82.3245 81.5434 81.9638 81.397C81.556 81.1851 81.0345 81.7897 81.448 82.1336C81.536 81.9328 81.5448 81.928 81.7391 81.8481C82.0446 81.9664 82.019 82.4543 81.987 82.7206C79.7141 82.8582 79.1751 78.9433 79.2383 78.757C78.1938 80.6564 79.6981 83.5539 81.1665 83.9018C81.3736 82.3751 82.902 82.8869 82.6004 83.6643C82.4741 84.2129 81.8863 84.0434 81.8431 83.6459C81.7031 83.7107 81.6879 83.7715 81.6839 83.9562C82.838 85.7133 83.5338 82.8853 82.1934 82.7654ZM78.9016 82.6654C78.6081 81.4546 78.2962 80.3941 77.4796 79.9774C77.7571 77.2966 75.0875 79.3736 76.9598 80.3509C76.9326 80.678 76.8574 81.1371 76.9494 81.5809C77.2429 82.9837 76.8302 83.6083 76.7486 83.949C76.5607 84.7384 76.6559 85.423 76.879 86.0612C77.0221 85.8117 77.1877 85.7365 77.374 85.8332C77.3444 85.986 77.4388 86.5538 77.4324 86.5522C77.3524 87.4464 77.8259 88.7852 78.824 89.2194C78.9184 89.2546 78.9624 89.3506 78.8896 89.4841C78.6552 89.808 78.4201 90.0999 78.1858 90.2767C77.8251 90.6326 77.638 91.0181 77.6236 91.4347C77.8619 91.386 78.1074 91.1788 78.3585 90.8133C78.9656 90.7182 79.4062 90.1327 79.1815 89.4713C78.8776 89.0195 78.6073 88.5508 78.4025 88.0494C78.3225 87.7423 78.3905 87.5743 78.6073 87.5463C78.9304 88.3813 79.4238 89.1818 80.0876 89.9496C79.8013 90.515 79.4214 90.9701 78.964 91.334C78.2082 91.8714 77.8771 92.4824 77.7003 93.1206L77.1389 93.335C77.3428 93.7412 77.9898 93.762 79.0791 93.3973C79.0623 92.9783 79.2663 92.5752 79.6917 92.1897C80.0516 92.0386 80.2939 91.6107 80.4835 91.0573L80.5603 91.1076L80.2668 91.8626C79.9517 92.1729 79.7389 92.4832 79.6278 92.7935C78.9408 93.898 81.1753 93.7572 81.6199 93.1582C80.8778 92.564 80.5779 91.7435 80.8154 91.1452C81.0841 90.6918 81.1473 90.2895 81.0065 89.9368C80.6083 89.2946 80.21 88.7228 79.8117 88.2213C80.1828 88.522 80.7962 88.7931 80.8602 89.3898C80.9793 89.6945 81.1777 89.9368 81.4928 90.0896C80.793 90.6414 81.2673 92.672 82.1342 92.8271C82.2222 92.636 82.1374 92.4248 81.8823 92.1937C82.0774 92.1025 82.2725 92.1433 82.4669 92.3153C82.3053 93.9348 84.839 94.6985 83.9776 92.2425C84.4039 92.4424 84.5583 92.2025 84.2623 91.9418L83.3362 91.2916C82.902 91.0629 82.9196 90.5142 83.3122 89.7001L83.4098 89.6833C83.4882 90.6334 83.7889 91.21 84.3111 91.4139C84.1736 90.7925 84.759 90.6654 84.863 91.2676L84.7742 92.5592C84.7078 93.6237 85.4596 93.6693 85.4156 92.5592L85.3428 91.6491C85.5915 91.2908 85.7907 91.0597 85.8787 91.1052L85.6755 91.8602C85.3084 92.8751 86.1674 92.8399 86.2769 91.3244C86.3217 90.2007 86.0578 89.2866 85.538 88.5468C85.5028 88.7612 85.5372 89.0147 85.7243 89.3506C85.9738 90.1655 85.1797 90.3167 85.0661 89.4641L85.0989 88.8715C84.9501 88.5612 84.8838 88.2429 84.9365 87.9126C84.6822 87.6103 84.5662 87.2808 84.5143 86.9385C84.5391 86.6882 84.3223 86.4123 83.9232 86.2019C83.5809 85.3862 83.1539 85.1327 82.67 85.2646C82.4717 85.2934 82.4445 85.383 82.5893 85.5333C83.4434 86.006 84.0952 86.733 84.3839 87.9126L84.4815 88.2053C84.2735 88.3189 84.2735 88.5148 84.3679 88.75C84.2559 88.8195 84.1336 88.8475 84.0032 88.8563C83.8825 88.6948 83.8441 88.5188 83.9232 88.3221C84.0224 87.6127 83.6825 87.2672 83.1763 86.9425L83.1187 87.0721C83.1931 87.1944 83.2003 87.2784 83.1403 87.324C83.257 87.4432 83.3594 87.5815 83.4274 87.7583C83.4898 87.851 83.473 87.911 83.421 87.9558C83.5074 88.0342 83.6337 88.4141 83.7689 88.8571H83.7665C83.9168 88.9603 84.0552 89.1306 84.1648 89.3746C84.216 89.6745 84.4327 89.8768 84.7262 90.0344C84.9461 90.2103 85.0645 90.467 85.0829 90.8045C84.3671 90.7909 83.7969 89.9136 83.2962 88.9363C83.1491 88.6812 82.9331 88.4772 82.5645 88.3837C82.091 87.9942 82.4573 87.3072 83.0107 87.9318C83.2546 87.16 82.5757 86.545 81.2649 86.0364C81.3056 86.2019 81.4448 86.3507 81.7279 86.4755L81.6959 86.597C80.9897 86.4299 80.3995 86.158 80.0164 85.7085C78.9688 83.8307 81.4264 84.8863 82.031 86.0444C82.2222 85.1095 81.2928 84.2385 80.2324 84.001L79.1047 83.0229L79.0431 83.6523L78.7552 83.6731C79.1087 84.1929 79.2959 84.7128 79.1855 85.2326C79.1223 85.4406 79.0495 85.4566 78.9664 85.2814L78.6904 84.8911L78.7224 85.387C78.3225 85.3486 78.2066 84.8408 78.3313 84.1969C77.9283 83.5156 77.9691 82.8646 78.4545 82.2431L78.9016 82.6654ZM77.8819 86.7226C78.5089 86.8114 79.0463 87.1824 79.4942 87.8366C79.3766 87.6999 79.2599 87.5695 79.1431 87.4456C78.936 87.3136 78.6281 87.2552 78.237 87.2568L77.8819 86.7226ZM71.3911 64.9124C78.9104 59.2342 91.2098 65.9249 87.8413 77.6158C87.5813 78.4259 87.0535 78.9098 87.207 80.0798C87.6509 81.7969 85.893 84.3249 86.9391 86.5938C85.5116 86.3019 84.8806 84.836 85.2324 83.5627C85.4556 82.5662 85.37 81.8473 85.0573 81.2083C84.791 80.2374 84.2631 79.6551 84.8734 78.7058C85.1773 78.6138 85.6003 78.4771 85.8922 78.637C85.893 78.637 85.893 78.6378 85.8938 78.6378L86.0458 78.721L86.137 78.5547L85.9858 78.4715C85.985 78.4707 85.9842 78.4707 85.9834 78.4699C85.6907 78.3099 85.5827 77.8821 85.4964 77.5758C85.5012 77.5654 85.506 77.5558 85.5108 77.5454C85.8011 77.415 86.2034 77.2239 86.5145 77.3438C86.5153 77.3446 86.5161 77.3446 86.5169 77.3446L86.6776 77.4078L86.7464 77.2303L86.5856 77.1679C86.5848 77.1679 86.584 77.1671 86.5824 77.1671C86.2729 77.0463 86.1106 76.6377 85.985 76.3457C85.9882 76.3353 85.9914 76.3241 85.9954 76.3122C86.2657 76.145 86.6392 75.9043 86.9623 75.9835C86.9631 75.9843 86.9639 75.9843 86.9647 75.9843L87.1327 76.025L87.1783 75.8411L87.0103 75.7995C87.0095 75.7995 87.0087 75.7995 87.0079 75.7987C86.6824 75.7195 86.4673 75.3301 86.3049 75.0565C86.3065 75.0477 86.3081 75.0381 86.3097 75.0293C86.5536 74.8246 86.8903 74.5295 87.223 74.5615C87.2238 74.5615 87.2246 74.5615 87.2254 74.5615L87.3974 74.5783L87.4158 74.3895L87.2438 74.3727H87.2414C86.9071 74.3408 86.6384 73.9849 86.4377 73.7377C86.4377 73.7281 86.4377 73.7185 86.4385 73.7089C86.648 73.469 86.9367 73.1251 87.271 73.1059C87.2718 73.1059 87.2726 73.1059 87.2734 73.1059L87.4462 73.0963L87.4358 72.9068L87.263 72.9164C87.2622 72.9164 87.2614 72.9164 87.2606 72.9164C86.9271 72.9356 86.6088 72.6285 86.3729 72.4141C86.3713 72.4013 86.3697 72.3893 86.3681 72.3774C86.5392 72.1086 86.772 71.7279 87.0991 71.6592C87.0999 71.6592 87.1007 71.6584 87.1015 71.6584L87.271 71.6224L87.2318 71.4368L87.0623 71.4728C87.0615 71.4728 87.0607 71.4728 87.0599 71.4728C86.7312 71.5424 86.3673 71.2825 86.1026 71.1065C86.101 71.1017 86.0994 71.0969 86.0978 71.0929C86.2257 70.801 86.3977 70.3844 86.7112 70.2644C86.712 70.2644 86.7136 70.2636 86.7144 70.2636L86.8759 70.202L86.808 70.0245L86.6464 70.086C86.6456 70.086 86.6448 70.0868 86.644 70.0868C86.3281 70.2068 85.925 70.0037 85.6355 69.8701C85.6347 69.8685 85.6339 69.8661 85.6323 69.8645C85.7123 69.5558 85.8147 69.1135 86.1066 68.9448C86.1074 68.944 86.1082 68.944 86.109 68.9432L86.2593 68.8568L86.1642 68.6921L86.0146 68.7785C86.0138 68.7792 86.013 68.7792 86.0122 68.78C85.7195 68.9488 85.2916 68.8128 84.9845 68.7281C84.9837 68.7273 84.9829 68.7257 84.9821 68.7249C85.0141 68.4074 85.0477 67.9539 85.3108 67.7428C85.3116 67.742 85.3124 67.7412 85.3132 67.7412L85.4476 67.6324L85.3292 67.4844L85.1941 67.5924C85.1933 67.5932 85.1933 67.594 85.1925 67.594C84.9277 67.8059 84.4815 67.7364 84.1648 67.6988C84.1464 67.3805 84.108 66.9286 84.3351 66.6791C84.3351 66.6783 84.3359 66.6775 84.3367 66.6775L84.4527 66.5487L84.3119 66.4216L84.1952 66.5495C84.1952 66.5503 84.1944 66.5511 84.1944 66.5511C83.968 66.8006 83.5218 66.8038 83.2035 66.8166C83.1995 66.8134 83.1963 66.8102 83.1923 66.8078C83.1267 66.4959 83.0227 66.0553 83.2083 65.7754C83.2091 65.7746 83.2099 65.7738 83.2099 65.773L83.3058 65.629L83.1475 65.5242L83.0515 65.6682C83.0515 65.669 83.0515 65.669 83.0507 65.6698C82.8636 65.9505 82.4205 66.0201 82.107 66.0809C82.1022 66.0777 82.0974 66.0745 82.0918 66.0713C81.9806 65.773 81.8103 65.3539 81.9526 65.0484C81.9526 65.0476 81.9534 65.0468 81.9534 65.046L82.0262 64.8892L81.8543 64.8093L81.7815 64.966C81.7807 64.9668 81.7807 64.9676 81.7799 64.9684C81.6383 65.2739 81.2121 65.4091 80.9114 65.5162C80.9082 65.5146 80.9042 65.513 80.901 65.5114C80.7466 65.2323 80.5171 64.8404 80.6138 64.5173C80.6138 64.5157 80.6138 64.5149 80.6147 64.5141L80.6642 64.3486L80.4819 64.2942L80.4323 64.4598C80.4323 64.4614 80.4323 64.4622 80.4315 64.463C80.3355 64.7861 79.9309 64.9812 79.6493 65.1308C79.6453 65.13 79.6413 65.1292 79.6381 65.1284C79.4462 64.8732 79.1647 64.5165 79.2151 64.183C79.2151 64.1822 79.2159 64.1814 79.2159 64.1806L79.2415 64.0095L79.0535 63.9807L79.0279 64.1519C79.0279 64.1527 79.0279 64.1535 79.0279 64.1543C78.9767 64.4902 78.5993 64.7405 78.3409 64.9276C78.3393 64.9276 78.3377 64.9276 78.3369 64.9276C78.1138 64.6997 77.7843 64.383 77.7899 64.0439V64.0415L77.7931 63.8687L77.6036 63.8647L77.6004 64.0383V64.0407C77.594 64.3782 77.2565 64.6765 77.0253 64.8956C76.775 64.6965 76.4135 64.4238 76.3783 64.0879C76.3783 64.0871 76.3775 64.0863 76.3775 64.0855L76.3599 63.9135L76.1712 63.9335L76.1888 64.1055C76.1888 64.1063 76.1896 64.1071 76.1896 64.1079C76.2248 64.4446 75.9249 64.7813 75.7217 65.0276C75.7185 65.0276 75.7153 65.0284 75.7129 65.0284C75.4418 64.8596 75.0491 64.6293 74.9756 64.299C74.9756 64.2982 74.9748 64.2974 74.9748 64.2966L74.9372 64.1271L74.7516 64.1687L74.7892 64.3374C74.79 64.339 74.79 64.3398 74.79 64.3398C74.8636 64.6693 74.6061 65.0364 74.4325 65.3043C74.1462 65.1628 73.7343 64.9732 73.6288 64.6533C73.628 64.6525 73.628 64.6517 73.628 64.6509L73.5736 64.487L73.3929 64.5461L73.4472 64.7101C73.448 64.7117 73.448 64.7125 73.448 64.7133C73.5536 65.0316 73.3377 65.4203 73.1913 65.7034L73.1513 65.6466C72.917 65.3259 72.1676 65.0932 71.3911 64.9124ZM73.4224 66.1329C73.7343 66.7327 73.9255 67.3597 73.8447 67.5668L74.7596 67.3061L75.6522 67.1357L76.5183 67.0502L77.3556 67.047L78.1626 67.1205L78.936 67.2669L79.6741 67.4804L80.3747 67.7572L81.0353 68.0915L81.6543 68.4785L82.2302 68.9136L82.7604 69.3911L83.2451 69.9069L83.6801 70.4563L84.0664 71.0346L84.4007 71.6368L84.6822 72.2582L84.9085 72.8948L85.0789 73.5418L85.1909 74.1944L85.242 74.8494L85.23 75.5004L85.1541 76.1442L85.0109 76.7744L84.9965 76.8168C88.8058 70.4819 81.6767 63.009 73.4224 66.1329ZM80.4259 76.1458C80.9506 76.3497 81.3232 76.86 81.3232 77.4542C81.3232 77.7845 81.2089 78.0876 81.0169 78.3275L81.0217 78.3499L81.1473 79.0417L81.2489 79.7503L81.3088 80.3301C88.725 77.1599 83.365 64.9364 73.9111 68.0531L74.247 68.2282L74.6853 68.4857L75.1171 68.7681L75.5426 69.076L75.9601 69.4087L76.3695 69.7654L76.7694 70.1452L77.1581 70.5483L77.5364 70.9738L77.9019 71.4216L78.2554 71.8911L78.5945 72.3813L78.9184 72.8932L79.2271 73.4242L79.5198 73.9761L79.7941 74.5463L80.05 75.1365L80.2868 75.7443L80.4259 76.1458ZM70.6113 67.7076C74.1502 67.7596 78.3201 71.5376 79.8613 76.0906C79.4654 76.1498 79.1599 76.3098 78.9456 76.5689C78.1274 74.795 77.1133 73.2187 75.8953 71.9543L75.8153 72.2062C75.8913 72.4365 76.1344 72.7212 76.4815 73.0396C76.7054 73.2299 76.8894 73.4954 77.0741 73.7993C76.8606 73.7825 76.695 73.7537 76.5775 73.7129L76.5999 73.9785C76.3471 73.8057 76.1232 73.6106 75.9425 73.3818C75.9401 73.6394 76.0832 73.8881 76.3807 74.116C76.7382 74.3719 77.0957 74.5919 77.4532 74.799C77.5764 74.899 77.6683 75.0149 77.7275 75.1461C77.3173 75.2565 77.3628 75.4892 77.8043 75.8075C77.8379 75.8323 77.8811 75.8467 77.9187 75.8715C77.7187 75.9411 77.6092 76.4233 77.7339 76.68C77.8531 76.8952 77.9779 77.1071 78.0538 77.3702L78.2122 76.9704L78.5369 76.88L78.6417 77.1159C78.4297 77.5126 78.6456 78.2196 78.86 78.3843C78.4665 79.0137 78.4113 79.7007 78.3865 80.2246C77.9371 79.7871 77.6811 78.7146 77.8323 78.078C77.8331 77.9413 77.7491 77.9221 77.5804 78.0196C77.3676 78.0124 77.2717 77.8493 77.2549 77.5806C77.2093 77.4166 76.9574 77.5454 77.0261 77.7013C77.0501 77.7461 77.0789 77.7893 77.1109 77.8301C77.2101 77.9389 77.2973 78.0516 77.342 78.1788L77.3404 78.4307L77.0997 78.4315C76.955 78.2196 76.7806 77.9477 76.7262 77.9389C76.6942 77.8973 76.6623 77.8501 76.6159 77.8141C76.4743 77.7045 76.3456 77.6006 76.2504 77.4982C76.1584 77.3998 76.0145 77.3118 75.9201 77.2239L75.8777 77.1375C75.9529 76.7664 75.7713 76.4889 75.4994 76.2698C75.4514 76.2474 75.4122 76.2202 75.3818 76.1866L75.2947 76.0994C75.5018 75.8715 75.8033 75.8163 76.0536 76.029C76.2472 76.2106 76.3975 76.5217 76.4575 76.9016C76.7494 76.5425 76.6431 76.193 76.2904 75.8899C75.9745 75.8651 75.7089 75.8187 75.5434 75.7307C75.3523 75.5812 75.4842 75.2565 75.7849 75.3764C76.1864 75.5636 76.0312 75.0301 75.6466 75.0269C75.525 75.0237 75.3794 75.0453 75.2099 75.0941C74.9164 75.1117 74.6589 75.0765 74.5165 74.8742C74.7452 74.7086 74.79 74.5471 74.5685 74.3903C74.0478 74.0177 74.3046 73.5722 74.7964 73.6314L75.1891 73.8633C75.3962 73.9849 75.5146 73.7953 75.3091 73.6162C75.1595 73.4946 74.9636 73.3866 74.758 73.2811L74.5173 72.9468C74.3046 73.1523 74.0854 73.2523 73.8567 73.2243C73.44 73.1491 73.5192 72.7596 73.9927 72.7884C74.159 72.7748 74.1214 72.5973 73.9743 72.6341C73.7279 72.6893 73.6416 72.7972 73.4984 72.8212C73.2521 72.862 73.0586 72.7772 72.9482 72.5725C72.8682 72.3726 72.8306 72.1726 72.8354 71.9735L73.1665 71.7935C72.953 71.6392 72.5955 71.6248 72.126 71.656L71.7206 71.6512C71.8693 71.3081 72.1268 71.0761 72.5315 71.0737C72.1212 70.9058 71.7573 70.9114 71.4606 71.1697C71.0456 71.0905 70.7241 71.2161 70.4937 71.5488L70.309 71.5464C69.9739 70.5923 70.2794 70.1084 71.0672 69.9797C70.936 70.378 71.0304 70.5579 71.4542 70.4171L72.0421 70.2876C72.1276 70.3116 72.2148 70.3836 72.3036 70.5011C72.4171 70.5939 72.5867 70.6539 72.8122 70.6803L73.7239 70.7906L73.9159 71.0777L74.0854 71.1897L74.3238 71.1753C74.343 71.5896 74.6061 71.7847 75.0347 71.8463C74.8988 72.3438 75.1131 72.6029 75.545 72.7005L75.413 72.1982L75.4394 71.5256C73.9943 70.186 72.4067 69.531 70.8312 69.4239C70.836 68.7729 70.768 68.1962 70.6113 67.7076ZM76.847 78.7722C76.8342 78.7714 76.8214 78.7714 76.8086 78.7714C76.7934 78.7786 76.7798 78.7842 76.763 78.7882L76.6982 78.7954C76.6655 78.7234 76.6327 78.6522 76.5999 78.5803H76.5799L76.5407 78.5139C76.5119 78.4739 76.4815 78.4355 76.4551 78.3931L76.4263 78.3507H76.4055L76.3551 78.2796L76.2504 78.1812C76.208 78.15 76.1664 78.1156 76.1232 78.0836C76.0808 78.0588 76.0424 78.0284 76.0001 78.0036C75.9313 77.9645 75.8649 77.9237 75.8049 77.8725C75.6762 77.7645 75.5442 77.6597 75.4186 77.547L75.3139 77.4422C75.2787 77.4006 75.2443 77.3598 75.2091 77.319L75.1867 77.3022L75.1459 77.2607C75.1299 77.2391 75.1147 77.2175 75.0995 77.1951C75.0675 77.1415 75.0363 77.0879 75.0076 77.0327C74.9812 76.9799 74.9564 76.9264 74.9324 76.8712L74.8868 76.7288L74.842 76.4665C74.814 76.3034 74.8012 76.1394 74.7756 75.9763C74.7732 75.9587 74.77 75.9411 74.7676 75.9227C74.7252 75.8331 74.6837 75.7419 74.6413 75.6516C74.6165 75.6156 74.5925 75.5804 74.5645 75.546L74.4893 75.4436L74.4821 75.4292H74.4597L74.3502 75.2877L74.1518 75.0525L74.119 75.0093L74.083 74.9222C74.0311 74.791 73.9903 74.6559 73.9535 74.5191C73.9151 74.3663 73.8823 74.2112 73.8455 74.0576C73.8335 74.0264 73.8271 73.9945 73.8207 73.9617L73.7495 73.8321C73.7152 73.7753 73.676 73.7225 73.64 73.6658C73.592 73.6066 73.5416 73.5482 73.4936 73.4882L73.4816 73.4698L73.4568 73.4402L73.3817 73.3762C73.3281 73.3411 73.2729 73.3067 73.2169 73.2731C73.0833 73.1971 72.949 73.1243 72.809 73.0595C72.7682 73.0387 72.7283 73.0156 72.6883 72.9924C72.5811 72.93 72.4747 72.8668 72.3708 72.798C72.3428 72.7764 72.3132 72.7564 72.2852 72.7324L72.2692 72.7172L72.2532 72.6957C72.2036 72.6581 72.154 72.6205 72.1068 72.5797C72.0701 72.5533 72.0349 72.5245 71.9957 72.5005L71.9573 72.4805L71.9381 72.4421L71.9093 72.4085L71.8709 72.3758L71.8245 72.3406L71.7717 72.3054C71.7182 72.2774 71.6654 72.2486 71.6102 72.2222C71.543 72.191 71.4734 72.1646 71.4039 72.1366C71.3607 72.1206 71.3167 72.1054 71.2727 72.091C71.2367 72.0798 71.1999 72.0702 71.1631 72.059C71.0999 72.0486 71.0368 72.0415 70.9728 72.0359L70.8 72.0295L70.6961 72.0359L70.5961 72.0471L70.5089 72.071L70.425 72.1006L70.3498 72.135L70.2738 72.1814L70.2042 72.2342L70.1394 72.299L70.0739 72.371C70.0323 72.4293 69.9891 72.4869 69.9523 72.5485C69.9203 72.6013 69.8923 72.6549 69.8643 72.7101L69.8291 72.7684L69.7396 73.0435C69.7356 73.1211 69.73 73.1995 69.7316 73.2771C69.7324 73.3107 69.7332 73.3435 69.734 73.377L69.7772 73.7201C69.8067 73.9113 69.8443 74.1016 69.8731 74.2928C69.8891 74.4087 69.9091 74.5239 69.9123 74.6407C69.9139 74.6822 69.9155 74.723 69.9179 74.7638L69.9035 74.7622C69.8819 75.1405 69.726 75.4932 69.5572 75.8275L68.5719 77.3182C68.5007 77.4278 68.4735 77.4718 68.5463 77.6038C68.6343 77.7445 68.8502 77.8693 68.963 77.9908C69.0102 78.0428 69.0558 78.0948 69.0982 78.1508L69.1237 78.186C69.1461 78.222 69.1669 78.2588 69.1861 78.2963C69.2621 78.4643 69.2853 78.709 69.2901 78.8866C69.2221 79.34 68.9686 79.6391 70.4801 79.7407C70.6441 79.7655 70.6081 80.0758 70.4729 80.0758C70.1618 80.0646 69.69 79.995 69.4261 80.1038L69.4005 80.115L69.3773 80.1294L69.3573 80.1454L69.3405 80.163L69.3261 80.183L69.3149 80.2038L69.3069 80.2254L69.3021 80.247L69.3005 80.2693L69.3021 80.2917L69.3069 80.3141L69.3157 80.3357C69.3333 80.3661 69.3533 80.3949 69.3717 80.4237C69.4253 80.5077 69.4876 80.6164 69.5276 80.7068C69.5412 80.7884 69.5524 80.8676 69.5604 80.9427C69.5588 80.9979 69.5548 81.0523 69.5484 81.1067L69.534 81.2419C69.5228 81.3082 69.51 81.3722 69.4956 81.437C69.4628 81.5698 69.4229 81.7009 69.3869 81.8337L69.3629 81.932C69.3541 81.9784 69.3477 82.0232 69.3437 82.0696V82.1536L69.3485 82.1936L69.3573 82.2327L69.3693 82.2711L69.3853 82.3087L69.4053 82.3463L69.4309 82.3839L69.462 82.4223L69.4988 82.4599L69.5428 82.4991L69.5932 82.5383L69.6516 82.5774L69.7172 82.6174L69.7891 82.6558C69.8891 82.6966 69.9899 82.7326 70.0923 82.7654C70.197 82.7974 70.3018 82.8254 70.4082 82.8494C71.679 83.1829 72.941 83.0349 74.155 82.5359C74.323 82.4639 74.4885 82.3847 74.6517 82.3031L74.9388 82.1264C74.9604 82.1216 74.9812 82.1168 75.002 82.1112L75.0052 82.0904C75.0236 82.0728 75.0419 82.056 75.0611 82.04C75.0939 82.0152 75.1267 81.9912 75.1603 81.9672C75.2011 81.9368 75.2435 81.9072 75.2835 81.8753C75.2939 81.8673 75.3035 81.8585 75.3107 81.8473L75.3227 81.8225L75.377 81.7833C75.4706 81.7073 75.5442 81.6121 75.6154 81.5162C75.6482 81.4706 75.6778 81.4242 75.7057 81.3754C75.7553 81.2986 75.8041 81.2211 75.8513 81.1419L75.8849 81.0843L75.9585 81.0619L76.0057 81.0555C76.0368 81.0531 76.068 81.0523 76.0984 81.0523L76.1368 81.0571L76.1488 80.9475C76.1528 80.8796 76.1512 80.8124 76.1472 80.7444C76.1408 80.6484 76.128 80.5533 76.1144 80.4581C76.1144 80.2933 76.1104 80.1294 76.1192 79.9646C76.1216 79.931 76.1216 79.8975 76.124 79.8631C76.128 79.8103 76.1312 79.7567 76.1416 79.7047C76.148 79.6727 76.156 79.6407 76.1608 79.6079C76.1736 79.5672 76.1856 79.5264 76.2008 79.4864C76.2128 79.4568 76.2256 79.4288 76.2376 79.3992L76.2872 79.3224L76.3376 79.2505C76.3743 79.2177 76.4087 79.1841 76.4471 79.1537L76.4695 79.1385L76.6607 79.0313L76.5943 79.2297V79.2305L76.847 78.7722ZM71.0048 76.0122C70.9856 76.0146 70.9656 76.017 70.9456 76.0186C70.9392 76.0242 70.9392 76.0298 70.9392 76.0362C70.5113 75.7691 70.6601 75.5548 70.6065 75.1333C70.5713 75.0205 70.4817 74.943 70.429 74.8718C70.3162 74.5751 70.3274 74.4319 70.4345 74.1528C70.4345 73.8921 69.9715 73.9865 70.0491 73.7193C70.405 73.3634 71.1711 73.4642 71.6342 73.589C71.7477 73.6482 71.8597 73.7073 71.9733 73.7609C72.3468 74.064 72.6147 74.3432 72.7986 74.8366C72.793 74.8838 72.793 74.8838 72.781 74.9078H72.7219C72.4243 74.771 72.1804 74.5271 71.9373 74.3783C71.6942 74.296 71.6774 74.3288 71.7126 74.5719C71.8549 74.899 72.4547 75.1053 72.4547 75.5332C72.4307 75.5388 72.318 75.5844 72.294 75.5964C71.7805 75.5564 71.4702 75.9491 71.0048 76.0122ZM69.5892 77.9309C69.3645 77.8197 69.2109 77.7157 69.1949 77.5766C69.2949 77.2623 70.2986 78.0444 69.5892 77.9309ZM72.5459 87.8007C72.5459 87.7303 72.6395 87.7191 72.6931 87.7303C72.7059 87.7559 72.7882 88.1509 72.9346 88.0806C73.6488 86.7442 72.6747 84.8312 72.334 83.4188C73.8095 83.2684 74.966 82.7294 76.0728 81.6761C76.2384 81.7969 76.2832 81.9184 76.2896 82.1664C76.1816 82.8286 75.9777 83.4652 75.9777 84.1786C76.0408 85.2998 77.3708 86.8545 77.2197 87.6103V87.6143C77.2189 87.6143 77.2189 87.6151 77.2189 87.6159C77.2189 87.6159 77.2189 87.6159 77.2181 87.6167C75.6834 92.6568 66.5477 92.025 72.5459 87.8007ZM72.1764 87.6111C68.8558 88.2173 65.5264 91.7682 70.4298 93.3901C73.005 94.0292 75.4058 93.6877 77.586 92.6264C77.7019 92.2321 77.8635 91.8426 78.1186 91.5155C78.0762 91.5379 78.0322 91.5579 77.9883 91.5771L77.434 91.7882C77.4596 91.5803 77.4828 91.37 77.5124 91.162C77.5196 91.1124 77.5276 91.0637 77.5364 91.0149C77.582 90.7933 77.6691 90.5854 77.7515 90.3759L77.7979 90.3687L77.8995 90.2167L77.9275 90.1367C78.077 90.0104 78.2266 89.884 78.3601 89.7401L78.4129 89.6729L78.4361 89.5993L78.4961 89.5513L78.285 89.4322L78.1754 89.3434L77.8955 88.9307C76.6551 91.0429 74.3925 92.0402 72.1764 92.0338C68.5607 91.9578 68.9966 89.0259 72.1764 87.6111ZM67.8042 97.4801C67.1867 97.4513 66.5621 97.4513 65.9575 97.4449C65.9183 96.4036 65.9447 95.3975 65.9511 94.3842C67.6306 94.3842 69.3037 94.3914 70.9832 94.3986C71.0216 94.3914 71.0536 94.3842 71.0928 94.3778C72.4052 94.4058 73.7759 94.4274 75.1147 94.4274C75.6034 94.3563 76.112 94.3778 76.6263 94.4554C77.1541 94.4482 77.6883 94.441 78.2162 94.441C78.4993 94.4698 78.8144 94.3778 79.1295 94.4274C80.0244 94.413 80.3203 94.3986 81.0409 94.3986C81.1185 94.4058 81.1953 94.4202 81.292 94.3986C82.3669 94.4058 83.4802 94.4482 84.5806 94.3634C84.6574 94.4058 85.2692 94.3563 85.3724 94.3491C86.9871 94.3491 86.9871 94.3491 87.9524 94.3706C87.9524 95.3695 87.946 96.3748 87.946 97.3809C85.398 97.4305 82.8428 97.4233 80.3267 97.3665C78.229 97.4305 76.1376 97.4513 74.0718 97.4233C73.9687 97.4161 73.8663 97.4089 73.7631 97.4089C70.3914 97.4657 70.3914 97.4657 67.8042 97.4801ZM66.187 98.2151H87.7533L84.5255 99.5307H69.4029L66.187 98.2151ZM84.0152 102.448V102.38V100.317H69.9995V103.403C70.4218 103.571 70.8792 103.768 71.3135 103.889V102.083C71.3135 101.715 71.5902 101.414 71.9285 101.414C72.266 101.414 72.5427 101.715 72.5427 102.083V104.22C72.929 104.298 73.3145 104.382 73.7008 104.432V102.213C73.7008 101.773 74.0311 101.414 74.4341 101.414C74.838 101.414 75.1683 101.773 75.1683 102.213V104.6C75.4882 104.623 75.8081 104.64 76.128 104.651V102.213C76.128 101.773 76.5135 101.414 76.9846 101.414C77.4556 101.414 77.8411 101.773 77.8411 102.213V104.632C78.169 104.62 78.4969 104.593 78.8248 104.568V102.213C78.8248 101.773 79.1551 101.414 79.559 101.414C79.9628 101.414 80.2931 101.773 80.2931 102.213V104.377C80.6706 104.317 81.0481 104.241 81.4256 104.16V102.083C81.4256 101.715 81.7023 101.414 82.0406 101.414C82.3789 101.414 82.6548 101.715 82.6548 102.083V103.835C83.1083 103.69 83.5618 103.525 84.0152 103.353V102.448ZM69.5956 109.946C70.0499 110.065 70.5065 110.173 70.9672 110.27L71.9141 108.258L74.9252 108.654L75.3754 110.842C76.4023 110.902 77.43 110.902 78.4577 110.843L78.8512 108.658L81.8615 108.251L82.87 110.26C83.8777 110.062 84.8662 109.788 85.8395 109.459L85.6515 107.229L88.4515 106.085L89.9486 107.753C90.8643 107.284 91.7497 106.763 92.611 106.199L91.8648 104.107L94.2521 102.257L96.1187 103.491C96.8841 102.797 97.6119 102.064 98.3037 101.294L97.0377 99.4691L98.8843 97.0818L100.997 97.7928C101.552 96.9235 102.065 96.0253 102.545 95.1112L100.851 93.6805L102.024 90.8837L104.258 91.0149C104.571 90.0352 104.834 89.0411 105.05 88.035L103.044 87.0929L103.447 84.065L105.625 83.6179C105.682 82.595 105.69 81.5705 105.629 80.5477L103.433 80.1614L103.049 77.1591L105.049 76.1442C104.83 75.1325 104.563 74.1336 104.234 73.1523L102.016 73.3651L100.901 70.5603L102.527 69.0776C102.053 68.1538 101.532 67.2589 100.964 66.3904L98.8955 67.1605L97.0385 64.7301L98.2717 62.873C97.5775 62.1125 96.8529 61.3791 96.0883 60.6889L94.2753 61.9629L91.852 60.1203L92.5574 57.9969C91.6977 57.4403 90.8131 56.9229 89.9006 56.4582L88.4811 58.1417L85.6587 56.9892L85.7955 54.7443C84.8166 54.4132 83.8201 54.1469 82.8084 53.9398L81.8671 55.9592L78.8712 55.5585L78.4233 53.3751C77.3908 53.3152 76.3567 53.316 75.3251 53.3767L74.9388 55.5777L71.9181 55.9775L70.9216 53.9582C69.9123 54.1709 68.919 54.4412 67.9417 54.7707L68.1249 56.9732L65.3369 58.1489L63.8334 56.4734C62.9152 56.9397 62.0283 57.4603 61.1702 58.0305L61.9307 60.1043L59.5235 61.9749L57.668 60.7321C56.9019 61.4239 56.1749 62.1541 55.4831 62.921L56.7555 64.7445L54.9001 67.1397L52.7775 66.4272C52.2217 67.2973 51.7051 68.1906 51.2388 69.1111L52.9319 70.5395L51.769 73.3475L49.5321 73.2091C49.2114 74.18 48.9491 75.1693 48.734 76.169L50.7501 77.1247L50.3447 80.131L48.1549 80.5884C48.1013 81.6169 48.1085 82.6438 48.1621 83.6715L50.3519 84.0594L50.7469 87.0721L48.7396 88.075C48.9595 89.0819 49.229 90.0736 49.5449 91.0525L51.7602 90.8517L52.9359 93.6629L51.2388 95.1552C51.7322 96.0613 52.2593 96.9483 52.8199 97.8136L54.9049 97.0722L56.7331 99.4731L55.5207 101.34C56.2133 102.099 56.9411 102.827 57.7032 103.516L59.5211 102.247L61.9235 104.114L61.2206 106.224C62.0851 106.782 62.9768 107.293 63.8909 107.764L65.3193 106.075L68.1169 107.241L67.9921 109.469C68.5223 109.645 69.0574 109.803 69.5956 109.946ZM109.18 50.1345V110.698C109.18 112.472 107.727 113.925 105.954 113.925H80.4755C78.8104 113.926 77.2861 115.181 76.975 116.502C76.5655 115.177 74.9652 113.947 73.4096 113.925H47.8326C46.0596 113.925 44.6072 112.473 44.6072 110.698V50.1345H109.18Z" fill="#0A33F1"/>
</g>
<path d="M28.48 124.515L32.23 135H29.86L29.245 133.275H23.89L23.26 135H20.905L24.655 124.515H28.48ZM24.625 131.19H28.495L26.86 126.585H26.275L24.625 131.19ZM41.8177 128.01C41.8177 129.825 41.0077 130.485 40.0627 130.98L42.0727 135H39.5977L37.8877 131.505C37.6627 131.505 37.4677 131.505 37.3327 131.505C36.9427 131.505 35.3827 131.505 34.9177 131.505V135H32.6377V124.5H34.9177V124.515C35.4727 124.515 37.1377 124.5 37.7527 124.5C39.0127 124.5 41.8177 124.5 41.8177 128.01ZM37.5727 129.465C38.2327 129.465 39.7027 129.48 39.7027 128.01C39.7027 126.555 38.3227 126.555 37.6177 126.555C37.1977 126.555 35.5177 126.555 34.9177 126.555V129.465C35.4127 129.465 37.3777 129.465 37.5727 129.465ZM42.1013 126.585V124.5H52.3163V126.585H48.3413V135H46.0613V126.585H42.1013ZM65.2695 131.79H58.0095V129.525H65.2695V131.79ZM79.0884 131.01H81.4584C81.2484 133.35 79.2084 135 76.2834 135C73.2684 135 70.9734 133.185 70.9734 129.675C70.9734 126.225 73.2684 124.335 76.2834 124.335C79.2084 124.335 81.3084 126.09 81.4584 128.34H79.0884C78.7584 127.2 77.9784 126.66 76.2834 126.66C74.4834 126.66 73.2384 127.59 73.2384 129.675C73.2384 131.76 74.4834 132.675 76.2834 132.675C78.0384 132.675 78.8034 132.045 79.0884 131.01ZM91.432 128.01C91.432 129.825 90.622 130.485 89.677 130.98L91.687 135H89.212L87.502 131.505C87.277 131.505 87.082 131.505 86.947 131.505C86.557 131.505 84.997 131.505 84.532 131.505V135H82.252V124.5H84.532V124.515C85.087 124.515 86.752 124.5 87.367 124.5C88.627 124.5 91.432 124.5 91.432 128.01ZM87.187 129.465C87.847 129.465 89.317 129.48 89.317 128.01C89.317 126.555 87.937 126.555 87.232 126.555C86.812 126.555 85.132 126.555 84.532 126.555V129.465C85.027 129.465 86.992 129.465 87.187 129.465ZM92.2429 124.5H100.868V126.57H94.5229V128.73H100.868V130.785H94.5229V132.915H100.868V135H94.5229H92.2429V124.5ZM108.988 124.515L112.738 135H110.368L109.753 133.275H104.398L103.768 135H101.413L105.163 124.515H108.988ZM105.133 131.19H109.003L107.368 126.585H106.783L105.133 131.19ZM117.481 128.64C119.836 129.03 122.521 129.375 122.521 131.745C122.521 134.355 120.781 135 117.706 135C112.531 135 112.546 132.135 112.546 131.13C113.011 131.13 113.596 131.13 114.886 131.13C114.886 132.705 116.281 132.96 117.646 132.96C119.371 132.96 120.091 132.555 120.091 131.745C120.091 131.04 119.371 130.905 117.316 130.605C114.166 130.14 112.756 129.495 112.756 127.575C112.756 126.09 113.851 124.38 117.286 124.38C121.366 124.38 122.176 126.66 122.176 128.25C122.176 128.25 120.586 128.25 119.776 128.25C119.776 127.53 119.461 126.45 117.286 126.45C115.516 126.45 115.111 127.08 115.111 127.59C115.111 128.145 115.726 128.355 117.481 128.64ZM128.037 124.5C129.297 124.5 132.522 124.515 132.522 128.295C132.522 132.21 129.027 132.075 128.037 132.075C127.647 132.075 126.087 132.075 125.622 132.075V135H123.342V124.5H125.622V124.515C126.177 124.515 127.422 124.5 128.037 124.5ZM128.112 130.095C128.727 130.095 130.377 130.185 130.377 128.295C130.377 126.48 128.922 126.48 128.157 126.48C127.737 126.48 126.237 126.48 125.622 126.48V130.095C126.132 130.095 127.917 130.095 128.112 130.095Z" fill="#1E1B19"/>
<defs>
<clipPath id="clip0_240_3858">
<rect width="60" height="60" fill="white" transform="matrix(1 0 0 -1 47 112)"/>
</clipPath>
</defs>
</svg>
