<svg width="48" height="48" viewBox="0 0 48 48" fill="none" xmlns="http://www.w3.org/2000/svg">
<g clip-path="url(#clip0_369_750)">
<g clip-path="url(#clip1_369_750)">
<mask id="mask0_369_750" style="mask-type:luminance" maskUnits="userSpaceOnUse" x="-1" y="0" width="49" height="48">
<path d="M44.8035 0H3.02909C1.26448 0 -0.166016 1.42555 -0.166016 3.18406V44.8141C-0.166016 46.5726 1.26448 47.9981 3.02909 47.9981H44.8035C46.5681 47.9981 47.9986 46.5726 47.9986 44.8141V3.18406C47.9986 1.42555 46.5681 0 44.8035 0Z" fill="white"/>
</mask>
<g mask="url(#mask0_369_750)">
<path d="M3.0788 67.9175C14.1076 67.9175 23.0482 59.0078 23.0482 48.0171C23.0482 37.0264 14.1076 28.1167 3.0788 28.1167C-7.95001 28.1167 -16.8906 37.0264 -16.8906 48.0171C-16.8906 59.0078 -7.95001 67.9175 3.0788 67.9175Z" stroke="#0A33F1" stroke-width="2" stroke-miterlimit="10"/>
<path d="M3.07905 63.9378C11.9021 63.9378 19.0546 56.81 19.0546 48.0175C19.0546 39.2249 11.9021 32.0972 3.07905 32.0972C-5.74399 32.0972 -12.8965 39.2249 -12.8965 48.0175C-12.8965 56.81 -5.74399 63.9378 3.07905 63.9378Z" stroke="#0A33F1" stroke-width="2" stroke-miterlimit="10"/>
<path d="M3.07736 59.9576C9.69464 59.9576 15.059 54.6118 15.059 48.0174C15.059 41.423 9.69464 36.0771 3.07736 36.0771C-3.53993 36.0771 -8.9043 41.423 -8.9043 48.0174C-8.9043 54.6118 -3.53993 59.9576 3.07736 59.9576Z" stroke="#0A33F1" stroke-width="2" stroke-miterlimit="10"/>
<path d="M3.07829 75.8778C18.5186 75.8778 31.0355 63.4042 31.0355 48.0173C31.0355 32.6303 18.5186 20.1567 3.07829 20.1567C-12.362 20.1567 -24.8789 32.6303 -24.8789 48.0173C-24.8789 63.4042 -12.362 75.8778 3.07829 75.8778Z" stroke="#0A33F1" stroke-width="2" stroke-miterlimit="10"/>
<path d="M3.07854 71.8976C16.3131 71.8976 27.0418 61.206 27.0418 48.0172C27.0418 34.8284 16.3131 24.1367 3.07854 24.1367C-10.156 24.1367 -20.8848 34.8284 -20.8848 48.0172C-20.8848 61.206 -10.156 71.8976 3.07854 71.8976Z" stroke="#0A33F1" stroke-width="2" stroke-miterlimit="10"/>
<path d="M3.07761 55.9774C7.48914 55.9774 11.0654 52.4136 11.0654 48.0173C11.0654 43.621 7.48914 40.0571 3.07761 40.0571C-1.33391 40.0571 -4.91016 43.621 -4.91016 48.0173C-4.91016 52.4136 -1.33391 55.9774 3.07761 55.9774Z" stroke="#0A33F1" stroke-width="2" stroke-miterlimit="10"/>
<mask id="mask1_369_750" style="mask-type:luminance" maskUnits="userSpaceOnUse" x="-31" y="-17" width="62" height="51">
<path d="M30.6367 13.9679C30.6367 19.2789 29.2812 24.2731 26.896 28.6281C21.2558 21.7569 12.6818 17.3708 3.07888 17.3708C-8.57608 17.3708 -18.7173 23.8321 -23.9334 33.3564C-28.2683 28.0741 -30.8691 21.3239 -30.8691 13.9679C-30.8691 -2.95779 -17.1006 -16.6787 -0.11623 -16.6787C16.8682 -16.6787 30.6367 -2.95779 30.6367 13.9679Z" fill="white"/>
</mask>
<g mask="url(#mask1_369_750)">
<path d="M-0.116516 37.8491C10.9123 37.8491 19.8529 28.9394 19.8529 17.9487C19.8529 6.95805 10.9123 -1.95166 -0.116516 -1.95166C-11.1453 -1.95166 -20.0859 6.95805 -20.0859 17.9487C-20.0859 28.9394 -11.1453 37.8491 -0.116516 37.8491Z" stroke="#0A33F1" stroke-width="2" stroke-miterlimit="10"/>
<path d="M-0.116259 33.8694C8.70679 33.8694 15.8593 26.7417 15.8593 17.9491C15.8593 9.15657 8.70679 2.02881 -0.116259 2.02881C-8.9393 2.02881 -16.0918 9.15657 -16.0918 17.9491C-16.0918 26.7417 -8.9393 33.8694 -0.116259 33.8694Z" stroke="#0A33F1" stroke-width="2" stroke-miterlimit="10"/>
<path d="M-0.117956 29.8893C6.49933 29.8893 11.8637 24.5434 11.8637 17.949C11.8637 11.3546 6.49933 6.00879 -0.117956 6.00879C-6.73524 6.00879 -12.0996 11.3546 -12.0996 17.949C-12.0996 24.5434 -6.73524 29.8893 -0.117956 29.8893Z" stroke="#0A33F1" stroke-width="2" stroke-miterlimit="10"/>
<path d="M-0.117025 45.8095C15.3233 45.8095 27.8402 33.3359 27.8402 17.9489C27.8402 2.56197 15.3233 -9.91162 -0.117025 -9.91162C-15.5574 -9.91162 -28.0742 2.56197 -28.0742 17.9489C-28.0742 33.3359 -15.5574 45.8095 -0.117025 45.8095Z" stroke="#0A33F1" stroke-width="2" stroke-miterlimit="10"/>
<path d="M-0.116772 41.8293C13.1178 41.8293 23.8465 31.1376 23.8465 17.9488C23.8465 4.76001 13.1178 -5.93164 -0.116772 -5.93164C-13.3513 -5.93164 -24.0801 4.76001 -24.0801 17.9488C-24.0801 31.1376 -13.3513 41.8293 -0.116772 41.8293Z" stroke="#0A33F1" stroke-width="2" stroke-miterlimit="10"/>
<path d="M-0.1177 25.9091C4.29382 25.9091 7.87007 22.3452 7.87007 17.9489C7.87007 13.5527 4.29382 9.98877 -0.1177 9.98877C-4.52922 9.98877 -8.10547 13.5527 -8.10547 17.9489C-8.10547 22.3452 -4.52922 25.9091 -0.1177 25.9091Z" stroke="#0A33F1" stroke-width="2" stroke-miterlimit="10"/>
</g>
<mask id="mask2_369_750" style="mask-type:luminance" maskUnits="userSpaceOnUse" x="24" y="-11" width="55" height="62">
<path d="M78.708 20.1769C78.708 37.1025 64.9395 50.8235 47.9551 50.8235C42.8605 50.8235 38.0551 49.5888 33.8239 47.403C33.6985 40.9847 31.5922 35.0496 28.0879 30.1804C29.727 26.4335 30.636 22.2967 30.636 17.948C30.636 11.2432 28.4753 5.04143 24.8105 -0.00371647C30.4475 -6.4188 38.726 -10.4697 47.9551 -10.4697C64.9395 -10.4697 78.708 3.25119 78.708 20.1769Z" fill="white"/>
</mask>
<g mask="url(#mask2_369_750)">
<path d="M47.9558 40.0776C58.9846 40.0776 67.9252 31.1679 67.9252 20.1772C67.9252 9.18656 58.9846 0.276855 47.9558 0.276855C36.9269 0.276855 27.9863 9.18656 27.9863 20.1772C27.9863 31.1679 36.9269 40.0776 47.9558 40.0776Z" stroke="#0A33F1" stroke-width="2" stroke-miterlimit="10"/>
<path d="M47.956 36.0979C56.7791 36.0979 63.9315 28.9702 63.9315 20.1776C63.9315 11.3851 56.7791 4.25732 47.956 4.25732C39.133 4.25732 31.9805 11.3851 31.9805 20.1776C31.9805 28.9702 39.133 36.0979 47.956 36.0979Z" stroke="#0A33F1" stroke-width="2" stroke-miterlimit="10"/>
<path d="M47.9543 32.1178C54.5716 32.1178 59.936 26.7719 59.936 20.1775C59.936 13.5831 54.5716 8.2373 47.9543 8.2373C41.337 8.2373 35.9727 13.5831 35.9727 20.1775C35.9727 26.7719 41.337 32.1178 47.9543 32.1178Z" stroke="#0A33F1" stroke-width="2" stroke-miterlimit="10"/>
<path d="M47.9552 48.038C63.3956 48.038 75.9124 35.5644 75.9124 20.1774C75.9124 4.79048 63.3956 -7.68311 47.9552 -7.68311C32.5149 -7.68311 19.998 4.79048 19.998 20.1774C19.998 35.5644 32.5149 48.038 47.9552 48.038Z" stroke="#0A33F1" stroke-width="2" stroke-miterlimit="10"/>
<path d="M47.9555 44.0578C61.1901 44.0578 71.9188 33.3662 71.9188 20.1773C71.9188 6.98852 61.1901 -3.70312 47.9555 -3.70312C34.7209 -3.70312 23.9922 6.98852 23.9922 20.1773C23.9922 33.3662 34.7209 44.0578 47.9555 44.0578Z" stroke="#0A33F1" stroke-width="2" stroke-miterlimit="10"/>
<path d="M47.9546 28.1376C52.3661 28.1376 55.9423 24.5737 55.9423 20.1774C55.9423 15.7812 52.3661 12.2173 47.9546 12.2173C43.543 12.2173 39.9668 15.7812 39.9668 20.1774C39.9668 24.5737 43.543 28.1376 47.9546 28.1376Z" stroke="#0A33F1" stroke-width="2" stroke-miterlimit="10"/>
</g>
</g>
</g>
</g>
<defs>
<clipPath id="clip0_369_750">
<rect width="48" height="48" fill="white"/>
</clipPath>
<clipPath id="clip1_369_750">
<rect width="48.1646" height="47.9981" fill="white" transform="translate(-0.166016)"/>
</clipPath>
</defs>
</svg>
