<svg width="235" height="48" viewBox="0 0 235 48" fill="none" xmlns="http://www.w3.org/2000/svg">
<path d="M17.8603 24.5205L22.6743 34.1006H16.7289L12.6427 25.7655C12.1022 25.7916 11.6314 25.794 11.2903 25.794H5.48421V34.1006H0V9.15234H5.48421V9.17134C6.82463 9.16659 10.8099 9.15234 12.304 9.15234C15.3356 9.15234 22.0665 9.14284 22.0665 17.4827C22.0665 21.7904 20.1328 23.3515 17.8627 24.5181L17.8603 24.5205ZM16.9787 17.4755C16.9787 14.0137 13.6709 14.0137 11.9629 14.0137H5.4818V20.9469H11.8788C13.4427 20.9469 16.9763 20.9659 16.9787 17.4755Z" fill="#1E1B19"/>
<path d="M43.7654 25.36H27.4521C27.8316 28.033 29.4675 29.3564 33.0564 29.3564C36.369 29.3564 38.0097 28.4559 38.5214 27.1443H43.8927C43.3258 31.4354 39.7753 34.1014 33.0564 34.1014C26.3375 34.1014 22.064 30.6561 22.064 24.0009C22.064 17.3456 26.1477 13.9004 33.0564 13.9004C35.951 13.9004 38.2523 14.6084 39.9819 15.787V15.7798C43.9335 18.3863 44.289 22.6156 43.972 25.3576H43.7678L43.7654 25.36ZM27.6635 21.7769H38.4589C38.0049 20.28 37.0032 18.6477 33.054 18.6477C29.9888 18.6477 28.3025 19.7502 27.6635 21.7769Z" fill="#1E1B19"/>
<path d="M52.3582 14.0936H60.2157V18.5606H52.3029V34.1021H46.8163V18.5606H44.0586V14.0936H46.8788C47.2007 8.34366 48.9158 7.02734 52.9996 7.02734C56.4755 7.02734 60.5689 7.54056 60.5689 7.54056V12.1382C60.5689 12.1382 57.0496 11.8697 54.9718 11.8697C53.05 11.8697 52.5071 12.3045 52.3582 14.0913V14.0936Z" fill="#1E1B19"/>
<path d="M82.5657 23.9165C82.5657 30.9329 77.5475 34.1025 71.566 34.1025C65.5846 34.1025 60.5664 30.8331 60.5664 23.9165C60.5664 16.9999 65.5846 13.7305 71.566 13.7305C77.5475 13.7305 82.5657 16.9927 82.5657 23.9165ZM77.3049 23.9141C77.3049 20.2289 74.9171 18.6774 71.566 18.6774C68.215 18.6774 65.8272 20.1648 65.8272 23.9141C65.8272 27.6635 68.215 29.1509 71.566 29.1509C74.9171 29.1509 77.3049 27.5447 77.3049 23.9141Z" fill="#1E1B19"/>
<path d="M99.9529 14.4647L99.0785 19.5826C98.5668 19.4424 97.8077 19.2832 96.0757 19.2832C92.0112 19.2832 90.7957 22.422 90.7957 25.1307V34.1025H85.3091V14.1035H90.7957V17.0427H91.1368C92.2634 15.1276 93.5102 14.1035 96.9837 14.1035C98.4563 14.1035 99.0016 14.2556 99.9504 14.4623L99.9529 14.4647Z" fill="#1E1B19"/>
<path d="M132.049 9.15625V34.1045H126.564V15.5359H126.017L120.97 34.1045H112.903L107.856 15.5359H107.308V34.1045H101.824V9.15625H110.09V9.18002H111.452L116.593 29.1386H117.107L122.25 9.18002H123.987V9.15625H132.051H132.049Z" fill="#1E1B19"/>
<path d="M151.348 17.0329V14.0938H156.842V34.1023H151.348V31.3104H151.18C149.842 33.0497 147.723 34.1023 144.012 34.1023C135.724 34.1023 134.79 26.7912 134.79 24.0968C134.79 21.1814 135.671 14.0938 144.026 14.0938C147.68 14.0938 149.782 15.2604 151.122 17.0329H151.345H151.348ZM151.146 24.0992C151.146 21.3905 150.2 18.7603 145.575 18.7603C140.444 18.7603 139.904 22.5429 139.904 24.0992C139.904 25.5367 140.478 29.4381 145.566 29.4381C150.2 29.4381 151.146 27.1239 151.146 24.0992Z" fill="#1E1B19"/>
<path d="M174.853 14.612L173.979 19.7299C173.467 19.5898 172.081 19.2832 170.349 19.2832C166.285 19.2832 165.069 22.422 165.069 25.1307V34.1025H159.583V14.1035H165.069V17.0427H165.41C166.537 15.1276 167.784 14.1035 171.257 14.1035C172.73 14.1035 173.902 14.4029 174.851 14.6096L174.853 14.612Z" fill="#1E1B19"/>
<path d="M4.30882 39.4824C6.75729 39.4824 8.61765 40.9918 8.61765 43.7471C8.61765 46.5024 6.75729 47.9998 4.30882 47.9998C1.86036 47.9998 0 46.5503 0 43.7471C0 40.9918 1.86036 39.4824 4.30882 39.4824ZM4.30882 46.143C5.7611 46.143 6.8293 45.3524 6.8293 43.7471C6.8293 42.1059 5.7611 41.3392 4.30882 41.3392C2.85655 41.3392 1.78834 42.082 1.78834 43.7471C1.78834 45.4123 2.85655 46.143 4.30882 46.143Z" fill="#1E1B19"/>
<path d="M21.6211 43.7112C22.3772 43.9747 22.7973 44.5138 22.7973 45.6159C22.7973 47.2331 21.7171 47.9998 20.4329 47.9998C19.5207 47.9998 15.2959 47.9998 15.2959 47.9998V39.6142H18.5245C18.7646 39.6142 19.1006 39.6142 19.5687 39.6142C21.309 39.6142 22.4373 40.321 22.4373 42.0101C22.4373 42.9205 22.1492 43.4237 21.6211 43.7112ZM19.0406 41.2793C18.5725 41.2793 17.3723 41.2793 17.1202 41.2793V43.0403C17.7924 43.0403 18.6565 43.0403 19.1246 43.0403C19.9648 43.0403 20.6489 43.0044 20.6489 42.1658C20.6489 41.3273 19.9288 41.2793 19.0406 41.2793ZM19.4247 46.3467C20.3249 46.3467 21.009 46.2868 21.009 45.4242C21.009 44.6336 20.5049 44.5018 19.6647 44.5018C19.0886 44.5018 17.6123 44.5018 17.1202 44.5018V46.3467H18.6445C19.3647 46.3467 18.8126 46.3467 19.4247 46.3467Z" fill="#1E1B19"/>
<path d="M36.659 42.4174C36.659 43.8669 36.0109 44.394 35.2548 44.7893L36.8631 47.9998H34.8827L33.5144 45.2086C33.3344 45.2086 33.1784 45.2086 33.0703 45.2086C32.7583 45.2086 31.51 45.2086 31.138 45.2086V47.9998H29.3136V39.6142H31.138V39.6262C31.5821 39.6262 32.9143 39.6142 33.4064 39.6142C34.4146 39.6142 36.659 39.6142 36.659 42.4174ZM33.2624 43.5794C33.7905 43.5794 34.9667 43.5914 34.9667 42.4174C34.9667 41.2554 33.8625 41.2554 33.2984 41.2554C32.9623 41.2554 31.6181 41.2554 31.138 41.2554V43.5794C31.5341 43.5794 33.1064 43.5794 33.2624 43.5794Z" fill="#1E1B19"/>
<path d="M48.7959 39.6262L51.7965 47.9998H49.9001L49.408 46.6222H45.1232L44.6191 47.9998H42.7347L45.7353 39.6262H48.7959ZM45.7113 44.957H48.8079L47.4996 41.2793H47.0315L45.7113 44.957Z" fill="#1E1B19"/>
<path d="M61.5926 42.9205C63.4769 43.232 65.6253 43.5075 65.6253 45.4003C65.6253 47.4847 64.2331 47.9998 61.7726 47.9998C57.6318 47.9998 57.6438 45.7118 57.6438 44.9091C58.0159 44.9091 58.484 44.9091 59.5162 44.9091C59.5162 46.167 60.6324 46.3706 61.7246 46.3706C63.1049 46.3706 63.681 46.0472 63.681 45.4003C63.681 44.8373 63.1049 44.7294 61.4605 44.4898C58.9401 44.1185 57.8119 43.6034 57.8119 42.07C57.8119 40.884 58.688 39.5184 61.4365 39.5184C64.7012 39.5184 65.3493 41.3392 65.3493 42.6091C65.3493 42.6091 64.077 42.6091 63.4289 42.6091C63.4289 42.0341 63.1769 41.1715 61.4365 41.1715C60.0203 41.1715 59.6962 41.6747 59.6962 42.082C59.6962 42.5252 60.1883 42.6929 61.5926 42.9205Z" fill="#1E1B19"/>
<path d="M82.1876 39.6142H89.0889V41.2674H84.0119V42.9924H89.0889V44.6336H84.0119V46.3347H89.0889V47.9998H82.1876V39.6142Z" fill="#1E1B19"/>
<path d="M101.481 43.819L104.457 47.9998H102.165L100.053 44.957H99.8486L97.7362 47.9998H95.4557L98.4203 43.819L95.4557 39.6262H97.7362L99.8486 42.669H100.053L102.165 39.6262H104.457L101.481 43.819Z" fill="#1E1B19"/>
<path d="M114.872 39.6142C115.88 39.6142 118.46 39.6262 118.46 42.645C118.46 45.7717 115.664 45.6638 114.872 45.6638C114.56 45.6638 113.311 45.6638 112.939 45.6638V47.9998H111.115V39.6142H112.939V39.6262C113.383 39.6262 114.38 39.6142 114.872 39.6142ZM114.932 44.0825C115.424 44.0825 116.744 44.1544 116.744 42.645C116.744 41.1955 115.58 41.1955 114.968 41.1955C114.632 41.1955 113.431 41.1955 112.939 41.1955V44.0825C113.347 44.0825 114.776 44.0825 114.932 44.0825Z" fill="#1E1B19"/>
<path d="M132.384 42.4174C132.384 43.8669 131.736 44.394 130.98 44.7893L132.588 47.9998H130.608L129.24 45.2086C129.06 45.2086 128.904 45.2086 128.796 45.2086C128.484 45.2086 127.235 45.2086 126.863 45.2086V47.9998H125.039V39.6142H126.863V39.6262C127.307 39.6262 128.64 39.6142 129.132 39.6142C130.14 39.6142 132.384 39.6142 132.384 42.4174ZM128.988 43.5794C129.516 43.5794 130.692 43.5914 130.692 42.4174C130.692 41.2554 129.588 41.2554 129.024 41.2554C128.688 41.2554 127.343 41.2554 126.863 41.2554V43.5794C127.259 43.5794 128.832 43.5794 128.988 43.5794Z" fill="#1E1B19"/>
<path d="M139.034 39.6142H145.936V41.2674H140.859V42.9924H145.936V44.6336H140.859V46.3347H145.936V47.9998H139.034V39.6142Z" fill="#1E1B19"/>
<path d="M156.298 42.9205C158.183 43.232 160.331 43.5075 160.331 45.4003C160.331 47.4847 158.939 47.9998 156.478 47.9998C152.337 47.9998 152.349 45.7118 152.349 44.9091C152.721 44.9091 153.19 44.9091 154.222 44.9091C154.222 46.167 155.338 46.3706 156.43 46.3706C157.81 46.3706 158.387 46.0472 158.387 45.4003C158.387 44.8373 157.81 44.7294 156.166 44.4898C153.646 44.1185 152.517 43.6034 152.517 42.07C152.517 40.884 153.394 39.5184 156.142 39.5184C159.407 39.5184 160.055 41.3392 160.055 42.6091C160.055 42.6091 158.783 42.6091 158.135 42.6091C158.135 42.0341 157.882 41.1715 156.142 41.1715C154.726 41.1715 154.402 41.6747 154.402 42.082C154.402 42.5252 154.894 42.6929 156.298 42.9205Z" fill="#1E1B19"/>
<path d="M170.82 42.9205C172.705 43.232 174.853 43.5075 174.853 45.4003C174.853 47.4847 173.461 47.9998 171.001 47.9998C166.86 47.9998 166.872 45.7118 166.872 44.9091C167.244 44.9091 167.712 44.9091 168.744 44.9091C168.744 46.167 169.86 46.3706 170.952 46.3706C172.333 46.3706 172.909 46.0472 172.909 45.4003C172.909 44.8373 172.333 44.7294 170.688 44.4898C168.168 44.1185 167.04 43.6034 167.04 42.07C167.04 40.884 167.916 39.5184 170.664 39.5184C173.929 39.5184 174.577 41.3392 174.577 42.6091C174.577 42.6091 173.305 42.6091 172.657 42.6091C172.657 42.0341 172.405 41.1715 170.664 41.1715C169.248 41.1715 168.924 41.6747 168.924 42.082C168.924 42.5252 169.416 42.6929 170.82 42.9205Z" fill="#1E1B19"/>
<g clip-path="url(#clip0_552_513)">
<mask id="mask0_552_513" style="mask-type:luminance" maskUnits="userSpaceOnUse" x="186" y="0" width="49" height="48">
<path d="M231.805 0H190.03C188.265 0 186.835 1.42556 186.835 3.18408V44.8143C186.835 46.5728 188.265 47.9984 190.03 47.9984H231.805C233.569 47.9984 235 46.5728 235 44.8143V3.18408C235 1.42556 233.569 0 231.805 0Z" fill="white"/>
</mask>
<g mask="url(#mask0_552_513)">
<path d="M190.08 67.9182C201.109 67.9182 210.05 59.0084 210.05 48.0177C210.05 37.0269 201.109 28.1172 190.08 28.1172C179.052 28.1172 170.111 37.0269 170.111 48.0177C170.111 59.0084 179.052 67.9182 190.08 67.9182Z" stroke="#0A33F1" stroke-width="2" stroke-miterlimit="10"/>
<path d="M190.081 63.9365C198.904 63.9365 206.056 56.8087 206.056 48.0161C206.056 39.2235 198.904 32.0957 190.081 32.0957C181.258 32.0957 174.105 39.2235 174.105 48.0161C174.105 56.8087 181.258 63.9365 190.081 63.9365Z" stroke="#0A33F1" stroke-width="2" stroke-miterlimit="10"/>
<path d="M190.08 59.9568C196.698 59.9568 202.062 54.6109 202.062 48.0165C202.062 41.422 196.698 36.0762 190.08 36.0762C183.463 36.0762 178.099 41.422 178.099 48.0165C178.099 54.6109 183.463 59.9568 190.08 59.9568Z" stroke="#0A33F1" stroke-width="2" stroke-miterlimit="10"/>
<path d="M190.08 75.8776C205.521 75.8776 218.038 63.404 218.038 48.0169C218.038 32.6299 205.521 20.1562 190.08 20.1562C174.64 20.1562 162.123 32.6299 162.123 48.0169C162.123 63.404 174.64 75.8776 190.08 75.8776Z" stroke="#0A33F1" stroke-width="2" stroke-miterlimit="10"/>
<path d="M190.081 71.8979C203.315 71.8979 214.044 61.2062 214.044 48.0173C214.044 34.8284 203.315 24.1367 190.081 24.1367C176.846 24.1367 166.117 34.8284 166.117 48.0173C166.117 61.2062 176.846 71.8979 190.081 71.8979Z" stroke="#0A33F1" stroke-width="2" stroke-miterlimit="10"/>
<path d="M190.081 55.977C194.492 55.977 198.068 52.4131 198.068 48.0168C198.068 43.6205 194.492 40.0566 190.081 40.0566C185.669 40.0566 182.093 43.6205 182.093 48.0168C182.093 52.4131 185.669 55.977 190.081 55.977Z" stroke="#0A33F1" stroke-width="2" stroke-miterlimit="10"/>
<mask id="mask1_552_513" style="mask-type:luminance" maskUnits="userSpaceOnUse" x="156" y="-17" width="62" height="51">
<path d="M217.638 13.9671C217.638 19.2781 216.283 24.2724 213.898 28.6274C208.258 21.7561 199.683 17.3701 190.081 17.3701C178.426 17.3701 168.284 23.8314 163.068 33.3557C158.733 28.0733 156.132 21.3231 156.132 13.9671C156.132 -2.95869 169.901 -16.6797 186.885 -16.6797C203.87 -16.6797 217.638 -2.95869 217.638 13.9671Z" fill="white"/>
</mask>
<g mask="url(#mask1_552_513)">
<path d="M186.886 37.8498C197.914 37.8498 206.855 28.9401 206.855 17.9493C206.855 6.95858 197.914 -1.95117 186.886 -1.95117C175.857 -1.95117 166.916 6.95858 166.916 17.9493C166.916 28.9401 175.857 37.8498 186.886 37.8498Z" stroke="#0A33F1" stroke-width="2" stroke-miterlimit="10"/>
<path d="M186.886 33.8681C195.709 33.8681 202.861 26.7403 202.861 17.9477C202.861 9.15515 195.709 2.02734 186.886 2.02734C178.063 2.02734 170.91 9.15515 170.91 17.9477C170.91 26.7403 178.063 33.8681 186.886 33.8681Z" stroke="#0A33F1" stroke-width="2" stroke-miterlimit="10"/>
<path d="M186.886 29.8884C193.503 29.8884 198.867 24.5426 198.867 17.9481C198.867 11.3537 193.503 6.00781 186.886 6.00781C180.268 6.00781 174.904 11.3537 174.904 17.9481C174.904 24.5426 180.268 29.8884 186.886 29.8884Z" stroke="#0A33F1" stroke-width="2" stroke-miterlimit="10"/>
<path d="M186.886 45.8093C202.326 45.8093 214.843 33.3356 214.843 17.9486C214.843 2.56155 202.326 -9.91211 186.886 -9.91211C171.445 -9.91211 158.928 2.56155 158.928 17.9486C158.928 33.3356 171.445 45.8093 186.886 45.8093Z" stroke="#0A33F1" stroke-width="2" stroke-miterlimit="10"/>
<path d="M186.886 41.8296C200.12 41.8296 210.849 31.1378 210.849 17.949C210.849 4.76007 200.12 -5.93164 186.886 -5.93164C173.651 -5.93164 162.922 4.76007 162.922 17.949C162.922 31.1378 173.651 41.8296 186.886 41.8296Z" stroke="#0A33F1" stroke-width="2" stroke-miterlimit="10"/>
<path d="M186.886 25.9087C191.297 25.9087 194.874 22.3448 194.874 17.9485C194.874 13.5522 191.297 9.98828 186.886 9.98828C182.474 9.98828 178.898 13.5522 178.898 17.9485C178.898 22.3448 182.474 25.9087 186.886 25.9087Z" stroke="#0A33F1" stroke-width="2" stroke-miterlimit="10"/>
</g>
<mask id="mask2_552_513" style="mask-type:luminance" maskUnits="userSpaceOnUse" x="211" y="-11" width="55" height="62">
<path d="M265.711 20.1761C265.711 37.1018 251.942 50.8228 234.958 50.8228C229.863 50.8228 225.058 49.5882 220.826 47.4023C220.701 40.984 218.595 35.0489 215.09 30.1796C216.729 26.4328 217.638 22.2959 217.638 17.9472C217.638 11.2423 215.478 5.04054 211.813 -0.0046339C217.45 -6.41976 225.729 -10.4707 234.958 -10.4707C251.942 -10.4707 265.711 3.25029 265.711 20.1761Z" fill="white"/>
</mask>
<g mask="url(#mask2_552_513)">
<path d="M234.958 40.0783C245.987 40.0783 254.928 31.1686 254.928 20.1778C254.928 9.1871 245.987 0.277344 234.958 0.277344C223.929 0.277344 214.989 9.1871 214.989 20.1778C214.989 31.1686 223.929 40.0783 234.958 40.0783Z" stroke="#0A33F1" stroke-width="2" stroke-miterlimit="10"/>
<path d="M234.959 36.0967C243.782 36.0967 250.934 28.9688 250.934 20.1763C250.934 11.3837 243.782 4.25586 234.959 4.25586C226.135 4.25586 218.983 11.3837 218.983 20.1763C218.983 28.9688 226.135 36.0967 234.959 36.0967Z" stroke="#0A33F1" stroke-width="2" stroke-miterlimit="10"/>
<path d="M234.958 32.1169C241.576 32.1169 246.94 26.7711 246.94 20.1766C246.94 13.5822 241.576 8.23633 234.958 8.23633C228.341 8.23633 222.977 13.5822 222.977 20.1766C222.977 26.7711 228.341 32.1169 234.958 32.1169Z" stroke="#0A33F1" stroke-width="2" stroke-miterlimit="10"/>
<path d="M234.958 48.0378C250.399 48.0378 262.916 35.5641 262.916 20.1771C262.916 4.79006 250.399 -7.68359 234.958 -7.68359C219.518 -7.68359 207.001 4.79006 207.001 20.1771C207.001 35.5641 219.518 48.0378 234.958 48.0378Z" stroke="#0A33F1" stroke-width="2" stroke-miterlimit="10"/>
<path d="M234.959 44.0581C248.193 44.0581 258.922 33.3664 258.922 20.1775C258.922 6.98858 248.193 -3.70312 234.959 -3.70312C221.724 -3.70312 210.995 6.98858 210.995 20.1775C210.995 33.3664 221.724 44.0581 234.959 44.0581Z" stroke="#0A33F1" stroke-width="2" stroke-miterlimit="10"/>
<path d="M234.959 28.1372C239.37 28.1372 242.946 24.5733 242.946 20.177C242.946 15.7807 239.37 12.2168 234.959 12.2168C230.547 12.2168 226.971 15.7807 226.971 20.177C226.971 24.5733 230.547 28.1372 234.959 28.1372Z" stroke="#0A33F1" stroke-width="2" stroke-miterlimit="10"/>
</g>
</g>
</g>
<defs>
<clipPath id="clip0_552_513">
<rect width="48.1649" height="47.9984" fill="white" transform="translate(186.835)"/>
</clipPath>
</defs>
</svg>
