<svg width="56" height="56" viewBox="0 0 56 56" fill="none" xmlns="http://www.w3.org/2000/svg">
<g clip-path="url(#clip0_452_157)">
<path d="M52.5 11.375H51.625V2.625C51.625 1.65987 50.8401 0.875 49.875 0.875H42.875C41.9099 0.875 41.125 1.65987 41.125 2.625V11.375H39.214C39.312 11.1003 39.375 10.808 39.375 10.5C39.375 9.82537 39.1116 9.2155 38.6925 8.75C39.1116 8.2845 39.375 7.67462 39.375 7V3.5C39.375 2.05275 38.1973 0.875 36.75 0.875H21C19.5527 0.875 18.375 2.05275 18.375 3.5V7C18.375 7.67462 18.6384 8.2845 19.0575 8.75C18.6375 9.2155 18.375 9.82537 18.375 10.5C18.375 10.808 18.438 11.1003 18.536 11.375H17.5C16.0527 11.375 14.875 12.5527 14.875 14V21.9196C14.5845 21.9004 14.2957 21.875 14 21.875C8.29063 21.875 3.1955 25.6366 1.4875 31.0555C1.11563 31.3775 0.875 31.8465 0.875 32.375V37.625C0.875 38.1535 1.11562 38.6234 1.48837 38.9445C3.19637 44.3634 8.29063 48.125 14 48.125C14.2957 48.125 14.5845 48.0996 14.875 48.0804V52.5C14.875 53.9473 16.0527 55.125 17.5 55.125H52.5C53.9473 55.125 55.125 53.9473 55.125 52.5V14C55.125 12.5527 53.9473 11.375 52.5 11.375ZM42.875 2.625H49.875V11.375H48.4873L45.2436 8.13138L44.0064 9.36862L46.0127 11.375H42.875V2.625ZM20.125 3.5C20.125 3.01787 20.517 2.625 21 2.625H36.75C37.233 2.625 37.625 3.01787 37.625 3.5V7C37.625 7.48212 37.233 7.875 36.75 7.875H21C20.517 7.875 20.125 7.48212 20.125 7V3.5ZM20.125 10.5C20.125 10.0179 20.517 9.625 21 9.625H36.75C37.233 9.625 37.625 10.0179 37.625 10.5C37.625 10.9821 37.233 11.375 36.75 11.375H21C20.517 11.375 20.125 10.9821 20.125 10.5ZM17.5 13.125H52.5C52.983 13.125 53.375 13.5179 53.375 14V18.375H16.625V14C16.625 13.5179 17.017 13.125 17.5 13.125ZM4.37587 35.0166L4.37675 37.625H2.625V32.375H4.375L4.37587 34.9834C4.37587 34.9886 4.375 34.9948 4.375 35C4.375 35.0061 4.37587 35.0114 4.37587 35.0166ZM3.507 39.375H4.375C4.718 39.375 5.03562 39.2726 5.30513 39.1011C6.8495 42.3605 10.1605 44.625 14 44.625C19.3069 44.625 23.625 40.3069 23.625 35C23.625 29.6931 19.3069 25.375 14 25.375C10.1605 25.375 6.8495 27.6395 5.30513 30.8989C5.03562 30.7274 4.718 30.625 4.375 30.625H3.507C5.2535 26.4495 9.39487 23.625 14 23.625C20.272 23.625 25.375 28.728 25.375 35C25.375 41.272 20.272 46.375 14 46.375C9.39487 46.375 5.2535 43.5505 3.507 39.375ZM14 27.125C18.3426 27.125 21.875 30.6574 21.875 35C21.875 39.3426 18.3426 42.875 14 42.875C9.65738 42.875 6.125 39.3426 6.125 35C6.125 30.6574 9.65738 27.125 14 27.125ZM40.2272 48.748L39.3698 41.0287L37.6302 41.2221L38.4466 48.5677L36.603 49.7971C36.3134 49.9905 35.875 49.7578 35.875 49.4069V39.375H34.125V47.5886C32.7556 47.096 31.2454 47.0846 29.862 47.5799L30.4999 39.2875C30.5629 38.4668 30.919 37.6941 31.5009 37.1123C31.969 36.6459 32.7827 36.6459 33.2509 37.1123L33.2938 37.1551L32.032 37.6959L32.7206 39.3041L37.8385 37.1114C38.3959 36.8716 38.9891 36.75 39.5973 36.75C39.8895 36.75 40.1818 36.8191 40.4434 36.9504C40.95 37.2033 41.3131 37.6652 41.4409 38.2165L43.7194 48.09C43.7395 48.1801 43.75 48.2711 43.75 48.363C43.75 48.8897 43.414 49.3561 42.9144 49.5224L42.0665 49.8041C41.4426 50.0168 40.712 49.7166 40.4128 49.1172L40.2272 48.748ZM42.6702 36.7264C42.3194 36.1637 41.8355 35.6895 41.2265 35.3841C40.7225 35.133 40.159 35 39.5973 35C38.7503 35 37.926 35.1689 37.1472 35.5031L35.0254 36.4122L34.4873 35.875C33.3594 34.7471 31.3906 34.7471 30.2627 35.875C29.386 36.7518 28.8505 37.9164 28.7542 39.1527L28.7096 39.732C27.6911 38.3801 27.125 36.7299 27.125 35C27.125 30.6574 30.6574 27.125 35 27.125C39.3426 27.125 42.875 30.6574 42.875 35C42.875 35.5836 42.7971 36.1611 42.6702 36.7264ZM28.5276 42.105L28.364 44.2321C27.2466 43.4271 26.2946 42.4165 25.5308 41.265C25.8729 40.6376 26.1537 39.9735 26.3909 39.2901C26.915 40.3419 27.6378 41.2939 28.5276 42.105ZM43.5199 39.445C44.2339 38.0774 44.625 36.5531 44.625 35C44.625 29.6931 40.3069 25.375 35 25.375C31.2323 25.375 27.9729 27.5564 26.3935 30.7169C26.1555 30.03 25.8738 29.3633 25.5299 28.7341C27.6456 25.5343 31.1404 23.625 35 23.625C41.272 23.625 46.375 28.728 46.375 35C46.375 37.5086 45.5595 39.8799 44.0729 41.8416L43.5199 39.445ZM52.5 53.375H17.5C17.017 53.375 16.625 52.983 16.625 52.5V47.8608C19.8319 47.2071 22.6056 45.3723 24.5 42.8418C25.5098 44.1919 26.7689 45.3302 28.2118 46.2061L27.8836 50.4753L29.9451 49.4427C31.2743 48.7778 32.8405 48.8171 34.1346 49.5101C34.1906 50.6844 35.1558 51.625 36.3431 51.625C36.7824 51.625 37.2076 51.4964 37.5734 51.2523L39.0583 50.2617C39.634 51.1123 40.5886 51.625 41.636 51.625C41.9738 51.625 42.3062 51.5708 42.6221 51.464L43.4683 51.1823C44.6828 50.7771 45.5 49.644 45.5 48.363C45.5 48.1381 45.4746 47.9124 45.4239 47.6954L44.5629 43.9661C46.8563 41.5258 48.125 38.3679 48.125 35C48.125 27.7629 42.2371 21.875 35 21.875C30.7983 21.875 26.9614 23.8254 24.4904 27.1451C22.596 24.6216 19.8266 22.792 16.625 22.1392V20.125H53.375V52.5C53.375 52.983 52.983 53.375 52.5 53.375Z" fill="#F8F8F8"/>
<path d="M24.5 4.375H35.875V6.125H24.5V4.375Z" fill="#F8F8F8"/>
<path d="M44.002 4.99805L45.2392 3.7608L49.6135 8.13509L48.3763 9.37234L44.002 4.99805Z" fill="#F8F8F8"/>
<path d="M20.125 14.875H21.875V16.625H20.125V14.875Z" fill="#F8F8F8"/>
<path d="M23.625 14.875H25.375V16.625H23.625V14.875Z" fill="#F8F8F8"/>
<path d="M27.125 14.875H28.875V16.625H27.125V14.875Z" fill="#F8F8F8"/>
<path d="M34.125 14.875H39.375V16.625H34.125V14.875Z" fill="#F8F8F8"/>
<path d="M41.125 14.875H48.125V16.625H41.125V14.875Z" fill="#F8F8F8"/>
</g>
<defs>
<clipPath id="clip0_452_157">
<rect width="56" height="56" fill="white"/>
</clipPath>
</defs>
</svg>
