<svg width="57" height="50" viewBox="0 0 57 50" fill="none" xmlns="http://www.w3.org/2000/svg">
<path d="M56.3535 8.83463H54.9159C54.9833 8.54872 55.0189 8.25363 55.0189 7.95295C55.0189 6.38145 54.068 5.00584 52.6677 4.42506C52.6671 2.31883 50.9533 0.605469 48.847 0.605469C47.201 0.605469 45.7643 1.65459 45.2387 3.16922C44.8433 3.30648 44.4746 3.50752 44.1462 3.76422C43.4833 3.24359 42.6639 2.95681 41.7934 2.95681C40.6431 2.95681 39.5623 3.48302 38.8453 4.34916C38.4774 4.20609 38.0844 4.13238 37.6787 4.13238C35.8961 4.13238 34.4458 5.58258 34.4458 7.36528C34.4458 7.89433 34.5743 8.39362 34.8006 8.83473H33.1113L34.2869 15.8883H0.353516V19.4151V21.1785V23.8236C0.353516 24.5247 0.847016 25.1127 1.50502 25.2584C1.38766 26.7043 0.941297 32.3431 0.941297 34.4038C0.941297 35.9667 1.18947 37.0719 1.38645 37.7028C0.788719 37.8892 0.353516 38.4479 0.353516 39.1062V42.9269V44.6903V49.3926H56.1944V44.6903V42.9269V39.1062C56.1944 38.4479 55.7592 37.8892 55.1613 37.703C55.3583 37.072 55.6065 35.967 55.6065 34.4039C55.6065 32.3433 55.1601 26.7044 55.0428 25.2584C55.7008 25.1126 56.1943 24.5247 56.1943 23.8236V21.1785V19.4151V15.8883H55.1778L56.3535 8.83463ZM37.6787 5.89561C38.0113 5.89561 38.3259 6.00542 38.5883 6.21323L39.458 6.90175L39.9325 5.89911C40.2716 5.18281 41.002 4.71994 41.7932 4.71994C42.4464 4.71994 43.0464 5.02006 43.4394 5.54331L44.1443 6.48164L44.8493 5.54331C45.1607 5.12889 45.6114 4.84889 46.1183 4.75516L46.7146 4.64491L46.8249 4.04859C47.0049 3.07516 47.8553 2.3687 48.8468 2.3687C49.9811 2.3687 50.9041 3.29172 50.9041 4.42605C50.9041 4.57392 50.8876 4.72366 50.8553 4.8712L50.6585 5.76753L51.5619 5.92842C52.5434 6.10298 53.2556 6.95447 53.2556 7.95284C53.2556 8.26248 53.1881 8.56141 53.0579 8.83452H37.6787C36.8684 8.83452 36.2093 8.1752 36.2093 7.36506C36.2092 6.55481 36.8684 5.89561 37.6787 5.89561ZM37.6787 10.598H53.9898H54.2718L53.3901 15.8881H36.0745L35.1928 10.598H37.6787ZM2.11686 39.3706C2.78667 39.234 3.29242 38.6403 3.29242 37.9306L3.29537 37.7346L3.20733 37.5527C3.2023 37.5418 2.70464 36.4469 2.70464 34.4038C2.70464 32.1546 3.28367 25.1424 3.28947 25.0719L3.29253 24.999C3.29253 24.2893 2.78678 23.6956 2.11697 23.559V21.1784H5.05598V23.559C4.38617 23.6956 3.88042 24.2893 3.88042 24.999L3.88337 25.0719C3.88928 25.1424 4.4682 32.1544 4.4682 34.4038C4.4682 36.447 3.97055 37.542 3.96847 37.5464L3.88042 37.7284V37.9306C3.88042 38.6403 4.38617 39.234 5.05598 39.3706V42.9269H2.11686V39.3706ZM54.4309 47.6293H2.11686V44.6903H6.81922H8.58256H15.0484H16.8117H23.2775H25.0409H31.5067H33.27H39.7358H41.4992H47.965H49.7283H54.4307V47.6293H54.4309ZM9.73417 25.2583C9.61681 26.7043 9.17045 32.3431 9.17045 34.4038C9.17045 35.9667 9.41862 37.0719 9.61561 37.7028C9.01777 37.8892 8.58256 38.4478 8.58256 39.1061V42.9268H6.81933V39.1062C6.81933 38.4479 6.38413 37.8892 5.78628 37.703C5.98327 37.072 6.23144 35.967 6.23144 34.4039C6.23144 32.3433 5.78508 26.7044 5.66772 25.2584C6.32572 25.1126 6.81922 24.5247 6.81922 23.8236V21.1785H8.58256V23.8236C8.58267 24.5246 9.07617 25.1125 9.73417 25.2583ZM11.4366 37.5528C11.4316 37.542 10.9339 36.447 10.9339 34.4039C10.9339 32.1547 11.5129 25.1425 11.5187 25.072L11.5217 24.9992C11.5217 24.2894 11.0159 23.6957 10.3461 23.5591V21.1785H13.2851V23.5591C12.6153 23.6957 12.1096 24.2894 12.1096 24.9992L12.1125 25.072C12.1184 25.1425 12.6974 32.1545 12.6974 34.4039C12.6974 36.4471 12.1997 37.5421 12.1976 37.5465L12.1096 37.7285V37.9307C12.1096 38.6404 12.6153 39.2341 13.2851 39.3707V42.927H10.3461V39.3707C11.0159 39.2341 11.5217 38.6404 11.5217 37.9307L11.5246 37.7347L11.4366 37.5528ZM17.9633 25.2583C17.846 26.7043 17.3996 32.3433 17.3996 34.4038C17.3996 35.9667 17.6478 37.0719 17.8448 37.7028C17.2469 37.8892 16.8117 38.4478 16.8117 39.1061V42.9268H15.0484V39.1062C15.0484 38.4479 14.6132 37.8892 14.0153 37.703C14.2123 37.072 14.4605 35.967 14.4605 34.4039C14.4605 32.3433 14.0141 26.7044 13.8968 25.2584C14.5548 25.1126 15.0483 24.5247 15.0483 23.8236V21.1785H16.8116V23.8236C16.8118 24.5246 17.3053 25.1125 17.9633 25.2583ZM19.6658 37.5528C19.6607 37.542 19.1631 36.447 19.1631 34.4039C19.1631 32.1547 19.7421 25.1425 19.7479 25.072L19.7508 24.9992C19.7508 24.2894 19.2451 23.6957 18.5753 23.5591V21.1785H21.5143V23.5591C20.8445 23.6957 20.3387 24.2894 20.3387 24.9992L20.3417 25.072C20.3476 25.1425 20.9265 32.1545 20.9265 34.4039C20.9265 36.4471 20.4289 37.5421 20.4268 37.5465L20.3387 37.7285V37.9307C20.3387 38.6404 20.8445 39.2341 21.5143 39.3707V42.927H18.5753V39.3707C19.2451 39.2341 19.7508 38.6404 19.7508 37.9307L19.7538 37.7347L19.6658 37.5528ZM26.1925 25.2583C26.0751 26.7043 25.6288 32.3433 25.6288 34.4038C25.6288 35.9667 25.8769 37.0719 26.0739 37.7028C25.4761 37.8892 25.0409 38.4478 25.0409 39.1061V42.9268H23.2775V39.1062C23.2775 38.4479 22.8423 37.8892 22.2445 37.703C22.4415 37.072 22.6896 35.967 22.6896 34.4039C22.6896 32.3433 22.2433 26.7044 22.1259 25.2584C22.7839 25.1126 23.2774 24.5247 23.2774 23.8236V21.1785H25.0408V23.8236C25.041 24.5246 25.5346 25.1125 26.1925 25.2583ZM27.8949 37.5528C27.8899 37.542 27.3922 36.447 27.3922 34.4039C27.3922 32.1547 27.9713 25.1425 27.977 25.072L27.98 24.9992C27.98 24.2894 27.4743 23.6957 26.8044 23.5591V21.1785H29.7435V23.5591C29.0736 23.6957 28.5679 24.2894 28.5679 24.9992L28.5708 25.072C28.5767 25.1425 29.1557 32.1545 29.1557 34.4039C29.1557 36.4471 28.658 37.5421 28.6559 37.5465L28.5679 37.7285V37.9307C28.5679 38.6404 29.0736 39.2341 29.7435 39.3707V42.927H26.8044V39.3707C27.4743 39.2341 27.98 38.6404 27.98 37.9307L27.983 37.7347L27.8949 37.5528ZM34.4217 25.2583C34.3044 26.7043 33.858 32.3433 33.858 34.4038C33.858 35.9667 34.1062 37.0719 34.3032 37.7028C33.7053 37.8892 33.2701 38.4478 33.2701 39.1061V42.9268H31.5068V39.1062C31.5068 38.4479 31.0716 37.8892 30.4738 37.703C30.6707 37.072 30.9189 35.967 30.9189 34.4039C30.9189 32.3433 30.4725 26.7044 30.3552 25.2584C31.0132 25.1126 31.5067 24.5247 31.5067 23.8236V21.1785H33.27V23.8236C33.2702 24.5246 33.7637 25.1125 34.4217 25.2583ZM36.1241 37.5528C36.119 37.542 35.6214 36.447 35.6214 34.4039C35.6214 32.1547 36.2004 25.1425 36.2062 25.072L36.2092 24.9992C36.2092 24.2894 35.7034 23.6957 35.0336 23.5591V21.1785H37.9726V23.5591C37.3028 23.6957 36.797 24.2894 36.797 24.9992L36.8 25.072C36.8059 25.1425 37.3848 32.1545 37.3848 34.4039C37.3848 36.4471 36.8872 37.5421 36.8851 37.5465L36.797 37.7285V37.9307C36.797 38.6404 37.3028 39.2341 37.9726 39.3707V42.927H35.0336V39.3707C35.7034 39.2341 36.2092 38.6404 36.2092 37.9307L36.2121 37.7347L36.1241 37.5528ZM42.6509 25.2583C42.5335 26.7043 42.0872 32.3433 42.0872 34.4038C42.0872 35.9667 42.3354 37.0719 42.5323 37.7028C41.9346 37.8892 41.4993 38.4478 41.4993 39.1061V42.9268H39.736V39.1062C39.736 38.4479 39.3007 37.8892 38.7029 37.703C38.8999 37.072 39.1481 35.967 39.1481 34.4039C39.1481 32.3433 38.7017 26.7044 38.5843 25.2584C39.2423 25.1126 39.7358 24.5247 39.7358 23.8236V21.1785H41.4992V23.8236C41.4994 24.5246 41.9929 25.1125 42.6509 25.2583ZM44.3532 37.5528C44.3482 37.542 43.8505 36.447 43.8505 34.4039C43.8505 32.1547 44.4296 25.1425 44.4354 25.072L44.4383 24.9992C44.4383 24.2894 43.9326 23.6957 43.2627 23.5591V21.1785H46.2018V23.5591C45.532 23.6957 45.0262 24.2894 45.0262 24.9992L45.0292 25.072C45.0351 25.1425 45.614 32.1545 45.614 34.4039C45.614 36.4471 45.1163 37.5421 45.1143 37.5465L45.0262 37.7285V37.9307C45.0262 38.6404 45.532 39.2341 46.2018 39.3707V42.927H43.2627V39.3707C43.9326 39.2341 44.4383 38.6404 44.4383 37.9307L44.4413 37.7347L44.3532 37.5528ZM50.8801 25.2583C50.7627 26.7043 50.3163 32.3433 50.3163 34.4038C50.3163 35.9667 50.5645 37.0719 50.7615 37.7028C50.1638 37.8892 49.7285 38.4478 49.7285 39.1061V42.9268H47.9651V39.1062C47.9651 38.4479 47.5299 37.8892 46.9321 37.703C47.129 37.072 47.3772 35.967 47.3772 34.4039C47.3772 32.3433 46.9309 26.7044 46.8135 25.2584C47.4715 25.1126 47.965 24.5247 47.965 23.8236V21.1785H49.7283V23.8236C49.7286 24.5246 50.2221 25.1125 50.8801 25.2583ZM54.4309 23.559C53.7611 23.6956 53.2554 24.2893 53.2554 24.999L53.2583 25.0719C53.2642 25.1424 53.8431 32.1544 53.8431 34.4038C53.8431 36.447 53.3455 37.542 53.3434 37.5464L53.2554 37.7284V37.9306C53.2554 38.6403 53.7611 39.234 54.4309 39.3706V42.9269H51.4919V39.3706C52.1617 39.234 52.6675 38.6403 52.6675 37.9306L52.6704 37.7346L52.5824 37.5527C52.5773 37.5418 52.0797 36.4469 52.0797 34.4038C52.0797 32.1546 52.6587 25.1424 52.6645 25.0719L52.6676 24.999C52.6676 24.2893 52.1618 23.6956 51.492 23.559V21.1784H54.431V23.559H54.4309ZM54.4309 19.415H49.7286H47.9652H41.4994H39.7361H33.2702H31.5068H25.041H23.2776H16.8118H15.0485H8.58267H6.81933H2.11686V17.6517H34.5805H54.4308V19.415H54.4309Z" fill="#F8F8F8"/>
</svg>
