<svg width="56" height="56" viewBox="0 0 56 56" fill="none" xmlns="http://www.w3.org/2000/svg">
<path d="M45.8895 26.4448C45.8894 23.3722 45.0979 20.3514 43.5912 17.6736C42.0845 14.9958 39.9135 12.7511 37.2874 11.156C34.6613 9.56095 31.6686 8.66916 28.5977 8.56661C25.5268 8.46406 22.4813 9.15421 19.7546 10.5705C17.0279 11.9869 14.712 14.0817 13.03 16.653C11.3481 19.2244 10.3568 22.1856 10.1517 25.2513C9.94655 28.3171 10.5345 31.384 11.859 34.1565C13.1834 36.929 15.1996 39.3136 17.7133 41.0805C17.7968 41.1394 17.8911 41.1812 17.9907 41.2036C18.0904 41.2261 18.1935 41.2286 18.2941 41.2112C18.3948 41.1938 18.491 41.1567 18.5773 41.1021C18.6636 41.0475 18.7383 40.9764 18.7972 40.8929C18.856 40.8094 18.8979 40.7152 18.9203 40.6155C18.9427 40.5159 18.9453 40.4128 18.9279 40.3121C18.9105 40.2115 18.8734 40.1153 18.8188 40.0289C18.7642 39.9426 18.6931 39.8679 18.6096 39.8091C15.4183 37.5668 13.1346 34.2566 12.1716 30.4771C11.2086 26.6976 11.6298 22.6982 13.359 19.2022C15.0883 15.7062 18.0114 12.9444 21.5998 11.4161C25.1882 9.88788 29.205 9.69412 32.9239 10.8699C36.6427 12.0456 39.8181 14.5133 41.8758 17.8266C43.9335 21.1399 44.7377 25.0802 44.143 28.9348C43.5482 32.7895 41.5938 36.3041 38.6331 38.8431C35.6724 41.3822 31.9009 42.778 28.0007 42.7781H3.11176C2.90548 42.7781 2.70765 42.8601 2.56179 43.0059C2.41593 43.1518 2.33398 43.3496 2.33398 43.5559C2.33398 43.7622 2.41593 43.96 2.56179 44.1059C2.70765 44.2517 2.90548 44.3337 3.11176 44.3337H28.0007C32.7434 44.3284 37.2905 42.4419 40.6441 39.0883C43.9978 35.7346 45.8842 31.1876 45.8895 26.4448Z" fill="#1E1B19"/>
<path d="M53.4399 43.0058L50.3288 39.8947C50.1825 39.751 49.9854 39.671 49.7803 39.6719C49.5753 39.6728 49.3789 39.7547 49.2339 39.8997C49.0889 40.0446 49.0071 40.241 49.0062 40.446C49.0052 40.6511 49.0853 40.8482 49.229 40.9945L51.0124 42.7779H37.3344C37.1281 42.7779 36.9303 42.8599 36.7844 43.0057C36.6386 43.1516 36.5566 43.3494 36.5566 43.5557C36.5566 43.762 36.6386 43.9598 36.7844 44.1057C36.9303 44.2515 37.1281 44.3335 37.3344 44.3335H51.0124L49.2289 46.1169C49.156 46.189 49.098 46.2747 49.0583 46.3693C49.0186 46.4638 48.998 46.5653 48.9977 46.6678C48.9974 46.7704 49.0173 46.872 49.0564 46.9668C49.0955 47.0616 49.153 47.1477 49.2255 47.2202C49.298 47.2927 49.3841 47.3501 49.4789 47.3892C49.5737 47.4283 49.6753 47.4483 49.7778 47.448C49.8804 47.4476 49.9818 47.427 50.0764 47.3873C50.1709 47.3477 50.2567 47.2897 50.3288 47.2167L53.4399 44.1056C53.5121 44.0334 53.5694 43.9477 53.6085 43.8533C53.6476 43.759 53.6677 43.6578 53.6677 43.5557C53.6677 43.4536 53.6476 43.3524 53.6085 43.2581C53.5694 43.1637 53.5121 43.078 53.4399 43.0058Z" fill="#1E1B19"/>
<path d="M28.0006 17.1122C29.7089 17.1082 31.3852 17.5751 32.8455 18.4616C34.3058 19.3481 35.4935 20.6199 36.2781 22.1374C36.3732 22.3205 36.5371 22.4583 36.7338 22.5206C36.9306 22.5828 37.1439 22.5644 37.3271 22.4693C37.5102 22.3742 37.648 22.2103 37.7103 22.0136C37.7725 21.8169 37.7541 21.6035 37.659 21.4204C36.5757 19.3372 34.8479 17.6601 32.7335 16.6393C30.619 15.6185 28.2311 15.3087 25.9261 15.7561C23.6212 16.2036 21.5227 17.3843 19.9437 19.1221C18.3647 20.8598 17.3899 23.0616 17.1647 25.3987L16.106 24.3401C16.034 24.2668 15.9482 24.2085 15.8536 24.1686C15.759 24.1286 15.6574 24.1078 15.5547 24.1073C15.4519 24.1069 15.3501 24.1267 15.2551 24.1658C15.1602 24.2049 15.0739 24.2625 15.0012 24.3351C14.9286 24.4077 14.8711 24.494 14.832 24.589C14.7929 24.684 14.773 24.7858 14.7734 24.8885C14.7739 24.9913 14.7947 25.0929 14.8347 25.1875C14.8746 25.2821 14.9329 25.3679 15.0062 25.4399L17.3396 27.7732C17.4118 27.8455 17.4975 27.9028 17.5918 27.9419C17.6862 27.981 17.7873 28.0011 17.8895 28.0011C17.9916 28.0011 18.0927 27.981 18.1871 27.9419C18.2814 27.9028 18.3672 27.8455 18.4394 27.7732L20.7727 25.4399C20.8457 25.3678 20.9037 25.2821 20.9433 25.1875C20.983 25.093 21.0036 24.9915 21.0039 24.889C21.0043 24.7864 20.9843 24.6848 20.9452 24.59C20.9061 24.4952 20.8487 24.4091 20.7762 24.3366C20.7037 24.2641 20.6175 24.2066 20.5227 24.1676C20.4279 24.1285 20.3263 24.1085 20.2238 24.1088C20.1213 24.1092 20.0198 24.1298 19.9252 24.1695C19.8307 24.2091 19.7449 24.2671 19.6729 24.3401L18.7508 25.2622C19.04 23.0122 20.1382 20.9443 21.8403 19.4446C23.5424 17.9449 25.732 17.1159 28.0006 17.1122Z" fill="#1E1B19"/>
<path d="M27.9999 37.3331C30.7053 37.3295 33.3127 36.3202 35.3154 34.5012C37.318 32.6822 38.5728 30.1836 38.8357 27.491L39.8944 28.5497C40.0407 28.6933 40.2378 28.7734 40.4429 28.7725C40.6479 28.7715 40.8443 28.6897 40.9893 28.5447C41.1342 28.3997 41.2161 28.2033 41.217 27.9983C41.218 27.7933 41.1379 27.5962 40.9942 27.4499L38.6609 25.1165C38.5887 25.0443 38.503 24.987 38.4086 24.9479C38.3142 24.9088 38.2131 24.8887 38.111 24.8887C38.0088 24.8887 37.9077 24.9088 37.8133 24.9479C37.719 24.987 37.6333 25.0443 37.5611 25.1165L35.2277 27.4499C35.0834 27.596 35.0028 27.7934 35.0034 27.9988C35.0041 28.2042 35.0859 28.401 35.2312 28.5462C35.3764 28.6915 35.5733 28.7733 35.7787 28.774C35.9841 28.7746 36.1814 28.694 36.3275 28.5497L37.2496 27.6276C36.9989 29.5992 36.1249 31.4391 34.7551 32.8791C33.3853 34.3191 31.5912 35.2839 29.6346 35.6327C27.678 35.9816 25.6611 35.6962 23.878 34.8183C22.0949 33.9404 20.6389 32.5158 19.7223 30.7523C19.6272 30.5692 19.4633 30.4314 19.2666 30.3691C19.0699 30.3069 18.8565 30.3253 18.6734 30.4204C18.4902 30.5155 18.3524 30.6794 18.2902 30.8761C18.2279 31.0729 18.2464 31.2862 18.3414 31.4694C19.257 33.24 20.6428 34.724 22.3467 35.7585C24.0505 36.7929 26.0066 37.3377 27.9999 37.3331Z" fill="#1E1B19"/>
</svg>
