<svg width="56" height="56" viewBox="0 0 56 56" fill="none" xmlns="http://www.w3.org/2000/svg">
<path d="M50.0572 43.8353C50.2989 43.6877 50.5275 43.5072 50.7386 43.2961C51.5808 42.4539 51.9264 41.3448 51.7109 40.1734L51.7066 40.1505C51.5447 39.2722 51.8881 38.4442 52.6231 37.9378L52.6428 37.9247C53.6228 37.2487 54.1631 36.2206 54.1631 35.0295C54.1631 33.8384 53.6228 32.8103 52.6428 32.1344L52.6242 32.1212C51.8892 31.6137 51.5458 30.7869 51.7066 29.9108L51.7109 29.8856C51.9264 28.7142 51.5808 27.6052 50.7386 26.763C50.1578 26.1822 49.4512 25.8387 48.6845 25.7502C48.6911 25.5237 48.6944 25.2973 48.6944 25.072C48.6944 12.1516 38.1845 1.64062 25.2652 1.64062C12.3458 1.64062 1.83594 12.1516 1.83594 25.0698C1.83594 31.3283 4.27281 37.2116 8.69812 41.6369C13.1234 46.0622 19.0067 48.4991 25.2652 48.4991C28.1548 48.4991 30.9548 47.9828 33.6137 46.9667L31.7817 51.4773C31.6789 51.73 31.7434 52.0198 31.9436 52.2047C32.1437 52.3906 32.4369 52.4322 32.6819 52.3119L35.5705 50.8802L36.6434 53.9208C36.7342 54.1778 36.9748 54.3517 37.2472 54.3583H37.2625C37.5294 54.3583 37.77 54.1964 37.8706 53.9492L40.943 46.3816C41.4056 46.6025 41.9208 46.7195 42.472 46.7195C43.0233 46.7195 43.5384 46.6025 44.0011 46.3816L47.0734 53.9492C47.1741 54.1975 47.4147 54.3583 47.6816 54.3583H47.6969C47.9692 54.3517 48.2098 54.1778 48.3006 53.9208L49.3736 50.8802L52.2622 52.3119C52.5061 52.4333 52.8003 52.3906 53.0005 52.2047C53.2006 52.0187 53.2652 51.73 53.1623 51.4773L50.0572 43.8353ZM47.3687 25.8212C46.5758 25.8902 45.8441 25.5478 45.3803 24.8762L45.3672 24.8566C44.6912 23.8766 43.6631 23.3362 42.472 23.3362C41.2809 23.3362 40.2528 23.8766 39.5769 24.8566L39.5637 24.8752C39.4872 24.9856 39.403 25.0862 39.3133 25.1781L39.1252 23.1973C39.1055 22.9906 38.9895 22.8058 38.8123 22.6986L36.6948 21.4123C36.5384 21.3172 36.3492 21.292 36.1742 21.3423L33.2506 22.178L28.4523 20.0648L27.5828 15.3814L29.4859 13.23L33.7045 13.1666L35.0433 15.2567C35.1428 15.412 35.3036 15.5181 35.4852 15.5498L40.7297 16.4489C40.8434 16.4686 40.9605 16.4577 41.0687 16.4172L44.945 14.9844C46.5025 18.0108 47.3819 21.4397 47.3819 25.0709C47.3819 25.3192 47.3764 25.5708 47.3687 25.8212ZM40.873 9.415L39.2673 10.6411L33.465 8.44156C33.2944 8.37703 33.1052 8.38578 32.9411 8.46672C31.1342 9.36141 29.7112 9.55609 28.7006 9.04859L29.8764 6.81516L32.9345 6.70141C33.0614 6.69703 33.1839 6.65547 33.2867 6.58219L35.1373 5.28172C37.2669 6.34922 39.2017 7.74922 40.873 9.415ZM16.9833 4.56312L18.3242 5.77609C18.4194 5.8625 18.5386 5.91828 18.6655 5.93797L22.837 6.57344L22.6062 7.91875L20.4669 8.59797C20.3225 8.64391 20.1989 8.73797 20.1169 8.86375L17.7303 12.5059L14.0236 15.0861L8.51219 15.5455C8.16437 15.575 7.89969 15.8703 7.91062 16.2192L7.98391 18.6112C7.98937 18.7786 8.05828 18.9372 8.17641 19.0553L9.57422 20.4487L9.455 22.3344L6.22734 19.8811L4.63484 17.0975C6.84094 11.4089 11.3362 6.85234 16.9833 4.56312ZM25.2652 47.1877C13.0698 47.1877 3.14844 37.2662 3.14844 25.0709C3.14844 22.8758 3.47109 20.755 4.06937 18.7523L5.15547 20.65C5.19922 20.7266 5.25828 20.7933 5.32828 20.8469L9.63656 24.1216C9.7525 24.2102 9.8925 24.255 10.0336 24.255C10.1266 24.255 10.2195 24.2353 10.3059 24.1959C10.5258 24.0953 10.6723 23.882 10.6877 23.6403L10.9031 20.2366C10.9152 20.0484 10.8452 19.8636 10.7117 19.7302L9.28766 18.3105L9.24062 16.8011L14.3069 16.3789C14.4217 16.3691 14.5322 16.3297 14.6273 16.2641L18.5834 13.51C18.6523 13.4619 18.7114 13.4017 18.7573 13.3306L21.087 9.77812L23.3839 9.04859C23.618 8.97422 23.7908 8.77625 23.8323 8.53453L24.2447 6.13703C24.2742 5.96312 24.2337 5.78484 24.1298 5.64156C24.027 5.49828 23.8706 5.40312 23.6967 5.37687L19.0592 4.67031L18.3767 4.05344C20.5456 3.34031 22.8611 2.95312 25.2652 2.95312C28.2719 2.95312 31.1408 3.55687 33.7559 4.64953L32.6906 5.39766L29.4466 5.51906C29.2114 5.52781 28.9992 5.66125 28.8898 5.86906L27.2612 8.96328C27.1158 9.23891 27.1847 9.57797 27.4253 9.77594C28.8297 10.9298 30.7919 10.9277 33.2616 9.76828L39.1416 11.9973C39.217 12.0258 39.2958 12.04 39.3745 12.04C39.5167 12.04 39.6567 11.9941 39.7727 11.9055L41.7775 10.3753C42.7247 11.4384 43.5702 12.5923 44.3008 13.8239L40.7778 15.1277L35.9927 14.3073L34.6123 12.1537C34.4898 11.9623 34.2777 11.8486 34.0502 11.8519L29.1764 11.9252C28.9916 11.9284 28.8166 12.0083 28.6952 12.1461L26.3884 14.7547C26.255 14.9056 26.1981 15.1102 26.2342 15.3092L27.2252 20.6489C27.2645 20.8622 27.4078 21.0427 27.6058 21.1302L32.9378 23.4784C33.0778 23.5408 33.2353 23.5506 33.383 23.5091L36.2584 22.6866L37.8487 23.6523L38.0533 25.8147C37.8258 25.8442 37.5895 25.8387 37.3478 25.7939L37.3248 25.7895C36.1534 25.5752 35.0444 25.9197 34.2022 26.7619C33.36 27.6041 33.0144 28.7131 33.2298 29.8834L33.2342 29.9075C33.3961 30.7858 33.0527 31.6137 32.3177 32.1202L32.298 32.1333C31.318 32.8092 30.7777 33.8373 30.7777 35.0284C30.7777 36.2195 31.318 37.2477 32.298 37.9236L32.3166 37.9367C33.0516 38.4442 33.395 39.2711 33.2342 40.1472L33.2298 40.1734C33.0144 41.3448 33.36 42.4539 34.2022 43.2961C34.4133 43.5072 34.6419 43.6877 34.8836 43.8353L34.3061 45.2583C31.458 46.5369 28.4173 47.1877 25.2652 47.1877ZM37.3041 51.8525L36.5603 49.7459C36.498 49.5687 36.3623 49.4266 36.1884 49.3566C36.0145 49.2855 35.8187 49.2931 35.6503 49.3762L33.6487 50.3683L36.1173 44.2881C36.5056 44.3494 36.9114 44.3439 37.3248 44.2684L37.3489 44.2641C38.2272 44.1022 39.0552 44.4456 39.5616 45.1806L39.5747 45.2003C39.6633 45.3283 39.7573 45.4486 39.858 45.5612L37.3041 51.8525ZM40.6564 44.4555L40.6433 44.4358C39.9728 43.4634 38.9097 42.9133 37.7678 42.9133C37.5512 42.9133 37.3325 42.933 37.1127 42.9734L37.0886 42.9778C36.3437 43.1145 35.6667 42.9034 35.1308 42.3686C34.5948 41.8327 34.3848 41.1567 34.5205 40.4141L34.5248 40.3878C34.7786 39.0075 34.2175 37.6545 33.0614 36.8572L33.0428 36.8441C32.4194 36.4142 32.0902 35.7864 32.0902 35.0295C32.0902 34.2727 32.4194 33.6448 33.0428 33.215L33.0625 33.2019C34.2186 32.4045 34.7786 31.0516 34.5248 29.6712L34.5205 29.6472C34.3837 28.9023 34.5948 28.2253 35.1297 27.6905C35.6656 27.1545 36.3427 26.9445 37.0875 27.0812L37.1105 27.0856C38.4908 27.3394 39.8437 26.7783 40.6411 25.6222L40.6542 25.6036C41.0841 24.9802 41.7119 24.6509 42.4687 24.6509C43.2256 24.6509 43.8534 24.9802 44.2833 25.6036L44.2964 25.6233C45.0937 26.7794 46.4456 27.3394 47.827 27.0856L47.8511 27.0812C48.5959 26.9445 49.273 27.1545 49.8078 27.6905C50.3437 28.2264 50.5537 28.9023 50.4181 29.645L50.4137 29.6712C50.16 31.0516 50.7211 32.4045 51.8772 33.2019L51.8958 33.215C52.5192 33.6448 52.8484 34.2727 52.8484 35.0295C52.8484 35.7864 52.5192 36.4142 51.8958 36.8441L51.8761 36.8572C50.72 37.6545 50.16 39.0075 50.4137 40.3878L50.4181 40.4108C50.5548 41.1556 50.3437 41.8327 49.8089 42.3686C49.2741 42.9045 48.597 43.1145 47.8511 42.9778L47.8281 42.9734C46.4467 42.7197 45.0948 43.2797 44.2975 44.4369L44.2844 44.4555C43.8545 45.0789 43.2267 45.4081 42.4698 45.4081C41.713 45.4081 41.0862 45.0789 40.6564 44.4555ZM49.2916 49.3762C49.1231 49.2931 48.9273 49.2855 48.7534 49.3566C48.5795 49.4277 48.4439 49.5687 48.3816 49.7459L47.6378 51.8525L45.0839 45.5612C45.1845 45.4486 45.2786 45.3283 45.3672 45.1992L45.3803 45.1806C45.8878 44.4456 46.7147 44.1022 47.5941 44.2641L47.617 44.2684C48.0305 44.345 48.4362 44.3494 48.8245 44.2881L51.2931 50.3683L49.2916 49.3762ZM49.6405 35.0284C49.6405 31.0745 46.4237 27.8589 42.4709 27.8589C38.517 27.8589 35.3014 31.0756 35.3014 35.0284C35.3014 38.9823 38.5181 42.198 42.4709 42.198C46.4248 42.198 49.6405 38.9812 49.6405 35.0284ZM42.4709 40.8855C39.2411 40.8855 36.6139 38.2583 36.6139 35.0284C36.6139 31.7986 39.2411 29.1714 42.4709 29.1714C45.7008 29.1714 48.328 31.7986 48.328 35.0284C48.328 38.2583 45.7008 40.8855 42.4709 40.8855ZM28.1483 27.9661L25.2291 27.5745L23.2428 24.1183C23.1269 23.9159 22.9114 23.7912 22.6784 23.7891L17.3945 23.7497L16.2231 20.7014C16.1411 20.4892 15.9562 20.335 15.7331 20.2923C15.51 20.2497 15.2814 20.3252 15.1272 20.4925L11.1634 24.8019C11.065 24.9091 11.0048 25.0447 10.9928 25.1891L10.82 27.1709C10.8091 27.2912 10.8331 27.4127 10.8867 27.5209L12.7822 31.313C12.8773 31.5033 13.06 31.6367 13.27 31.6684L16.5239 32.1639L16.2395 39.4111C16.2352 39.5117 16.2548 39.6123 16.2953 39.7042L18.1383 43.8386C18.228 44.0387 18.4106 44.1809 18.6272 44.2181L20.9952 44.6217C21.0323 44.6283 21.0684 44.6316 21.1056 44.6316C21.2566 44.6316 21.4042 44.5791 21.5223 44.4817C21.6689 44.3603 21.7564 44.182 21.7619 43.9917L21.8417 40.8067L24.3092 38.5678C24.4295 38.4584 24.505 38.3097 24.5214 38.1489L24.7467 35.9428L27.5817 32.9416C27.6594 32.8595 27.7152 32.7578 27.7414 32.6484L28.6962 28.7755C28.7411 28.595 28.7061 28.4025 28.6011 28.2494C28.4983 28.093 28.3331 27.9902 28.1483 27.9661ZM26.5098 32.1639L23.6398 35.2012C23.5403 35.3062 23.4791 35.4419 23.4637 35.5852L23.2417 37.7628L20.7523 40.0214C20.62 40.1417 20.5423 40.3112 20.5369 40.4906L20.4691 43.1987L19.1938 42.9811L17.5564 39.3072L17.8583 31.6269C17.8714 31.2933 17.6319 31.0023 17.3016 30.952L13.8037 30.4194L12.1423 27.0977L12.2791 25.5227L15.3755 22.1561L16.3281 24.6345C16.4244 24.8861 16.6661 25.0534 16.9362 25.0556L22.2902 25.0961L24.2502 28.5064C24.3519 28.6836 24.5302 28.8028 24.7325 28.8302L27.247 29.167L26.5098 32.1639ZM46.5528 33.1308L41.83 37.8536C41.702 37.9816 41.5336 38.0461 41.3662 38.0461C41.1978 38.0461 41.0305 37.9816 40.9025 37.8536L38.3902 35.3412C38.1342 35.0853 38.1342 34.6697 38.3902 34.4137C38.6461 34.1578 39.0617 34.1578 39.3177 34.4137L41.3662 36.4623L45.6253 32.2033C45.8812 31.9473 46.2969 31.9473 46.5528 32.2033C46.8098 32.4592 46.8098 32.8748 46.5528 33.1308Z" fill="#1E1B19"/>
</svg>
