<svg width="57" height="56" viewBox="0 0 57 56" fill="none" xmlns="http://www.w3.org/2000/svg">
<g clip-path="url(#clip0_305_8679)">
<path d="M55.9492 27.6327L47.0263 6.27623L38.4168 9.87346C38.5248 8.85803 38.5248 7.4213 37.9739 6.38426C36.7424 4.08333 33.8689 3.20833 31.568 4.43981C29.2671 5.6713 28.3921 8.54475 29.6235 10.8457C30.0556 11.6559 30.7038 12.3148 31.5032 12.7577L22.2995 16.5926C22.0942 15.9444 21.781 15.3287 21.3813 14.7778C21.5001 14.713 21.5973 14.6373 21.6945 14.5401C21.9214 14.3133 22.0618 14.0108 22.0618 13.6867L22.0186 10.1219H22.7532C22.926 10.1219 23.088 10.0463 23.2069 9.92747C23.3365 9.80864 23.4013 9.6358 23.4013 9.46296L23.2717 0L21.9754 0.0216049L22.0942 8.82562L4.77786 8.95525L4.65904 0L3.36274 0.0216049L3.48157 9.625C3.49237 9.98148 3.77323 10.2515 4.12971 10.2623H4.88589C4.88589 10.2948 4.9291 13.8272 4.9291 13.8272C4.9399 14.2161 5.13434 14.5725 5.44762 14.7994L4.97231 15.5556C4.78867 15.8472 4.54021 16.571 4.54021 16.571H4.52941L2.63897 23.625L3.13589 25.159L2.43373 25.4722C1.78558 25.7639 1.26706 26.2932 1.0186 26.963C0.770146 27.6327 0.791751 28.3673 1.08342 29.0154L10.6868 50.4691L19.6853 46.4398C20.0093 46.2994 20.2362 45.9969 20.2686 45.6404C20.301 45.284 20.139 44.9383 19.8473 44.7438C18.6914 43.9336 17.8921 43.0586 17.6544 42.3457C17.0495 40.5525 18.0109 38.5972 19.8149 37.9923C21.6081 37.3873 23.5634 38.3488 24.1683 40.1528C24.46 41.0062 24.3951 41.946 23.9955 42.7562C23.8226 43.1019 23.8874 43.5123 24.1575 43.7824C24.4168 44.0633 24.8272 44.1497 25.1729 43.9877L32.6482 40.6389C33.0047 40.4877 33.3072 40.2284 33.5232 39.9043L34.6575 39.4398C34.7871 40.5093 35.1868 41.5247 35.8242 42.3997C35.7053 42.4645 35.6081 42.5509 35.5109 42.6481C35.2732 42.875 35.1436 43.1883 35.1436 43.5123L35.1976 47.0664H34.4631C34.2902 47.0664 34.1282 47.142 34.0093 47.2608C33.8797 47.3796 33.8149 47.5525 33.8257 47.7253L33.9445 55.8812H35.2408L35.122 48.3735L52.4384 48.233L52.5572 55.892H53.8535L53.7347 47.5849C53.7239 47.2284 53.443 46.9475 53.0865 46.9367H52.3303C52.3303 46.9151 52.3411 46.8827 52.3411 46.8611L52.2871 43.3827C52.2871 42.9938 52.0927 42.6265 51.7686 42.4105C52.0171 42.0108 52.2115 41.7083 52.2439 41.6435C52.4276 41.3627 52.568 41.0494 52.6544 40.7145L52.676 40.6389H52.6868L54.5772 33.5741L53.8859 31.392L54.5124 31.1327C55.8735 30.571 56.5217 29.0262 55.96 27.6651C55.96 27.6543 55.9492 27.6435 55.9492 27.6327ZM10.6976 21.7778L10.5896 21.9614C9.85502 23.2577 8.52632 23.8302 8.51552 23.8302L8.04021 24.0247C8.04021 24.0247 8.78558 28.5293 8.99083 29.8364C9.10965 30.6142 8.96922 31.4136 8.58033 32.0941C8.29947 32.4938 7.84576 32.7315 7.35965 32.7315C7.02478 32.7207 6.88434 32.5478 6.83033 32.4506L4.72385 25.8719L4.32416 24.6296L3.98928 23.5926L5.8149 16.7978C5.86891 16.6034 5.95533 16.4198 6.06336 16.2469C6.06336 16.2469 6.39823 15.7068 6.77632 15.1235L19.9121 15.0154C20.4739 15.6096 20.8843 16.3333 21.1112 17.1219L10.6976 21.7778ZM20.5279 13.7299H20.5063V13.7083L6.49545 13.8164C6.39823 13.8272 6.31181 13.7948 6.2362 13.7407V13.6111L6.19299 10.3488C6.2686 10.3056 6.35502 10.2731 6.44144 10.2731L20.4739 10.1651C20.5711 10.1543 20.6575 10.1867 20.7331 10.2407L20.7871 13.6543C20.7115 13.6975 20.6143 13.7299 20.5279 13.7299ZM32.1189 39.4506L25.497 42.4213C26.1343 39.8827 24.6004 37.3117 22.0618 36.6744C19.5232 36.037 16.9522 37.571 16.3149 40.1096C16.088 40.9846 16.1313 41.9136 16.4121 42.767C16.7794 43.8364 17.7624 44.787 18.659 45.4784L11.3242 48.7623L2.25008 28.4861C2.09885 28.1512 2.08805 27.7731 2.22848 27.4275C2.35811 27.0818 2.61737 26.8117 2.95225 26.6605L3.52478 26.4012L5.64206 33.0015C5.96613 33.6173 6.59268 34.017 7.29484 34.0278C7.29484 34.0278 8.98002 34.0602 9.67138 32.7747V32.7531C10.2115 31.8025 10.4168 30.7006 10.2439 29.6204C10.0819 28.5833 9.63897 25.8719 9.45533 24.7809C10.3195 24.3056 11.0541 23.6142 11.5942 22.7932L22.5587 17.8781C22.5587 17.8781 22.8612 17.7052 23.0989 17.7593C23.2393 17.8133 23.3689 17.9753 23.4337 18.1157L26.8257 25.8719C26.9661 26.2284 27.3226 26.4444 27.7007 26.4228C28.0788 26.4012 28.4029 26.142 28.5217 25.7855C28.8134 24.8025 29.5263 24.0139 30.4769 23.625C32.1621 22.8688 34.1498 23.6142 34.9059 25.2994C35.6081 26.8549 35.0356 28.6806 33.5664 29.5556C32.6266 30.0849 30.9847 29.9552 30.3257 29.8796C29.98 29.8364 29.6343 29.9877 29.4183 30.2685C29.4183 30.2793 29.105 30.6358 29.3103 31.2515L32.5186 38.4028C32.6374 38.6728 32.5942 38.9969 32.4106 39.2238C32.3458 39.321 32.2377 39.4074 32.1189 39.4506ZM50.9908 43.5664L51.0448 46.8287C50.9692 46.8827 50.8828 46.9151 50.7856 46.9043L36.7532 47.0123C36.6559 47.0232 36.5695 46.9907 36.4939 46.9367L36.4399 43.5772L50.9908 43.5664ZM51.4013 40.3796C51.3473 40.5741 51.2609 40.7577 51.1529 40.9306V40.9522C51.1529 40.9522 50.8288 41.4815 50.4507 42.0648L50.3211 42.2701H37.4121L37.3041 42.162C36.4723 41.2762 35.9754 40.1204 35.9106 38.8997L45.2655 35C45.0603 35.3673 44.8658 35.7562 44.6822 36.1451L45.8597 36.696C46.0973 36.1883 46.3566 35.6914 46.6266 35.216C46.8967 34.7407 47.264 34.3302 47.6853 33.9846C47.9985 33.7253 48.3334 33.5201 48.7007 33.3472L49.176 33.1528L49.1004 32.6451C49.0896 32.6343 49.0572 32.3966 48.9924 32.0401C48.7979 30.8735 48.3874 28.3457 48.2254 27.3519C48.1066 26.5741 48.247 25.7747 48.6359 25.0941C48.9168 24.6944 49.3705 24.446 49.8566 24.446C50.1914 24.4568 50.3319 24.6296 50.3859 24.7377L52.2871 30.6574L52.6868 31.8997L53.2269 33.5957L51.4013 40.3796ZM54.7609 29.1883C54.6205 29.5231 54.3504 29.7932 54.0155 29.9336L53.4862 30.1605L51.5634 24.1759C51.2393 23.5602 50.6127 23.1713 49.9214 23.1497C48.2578 23.1929 47.534 24.4136 47.534 24.4136C46.9939 25.3642 46.7887 26.466 46.9615 27.5463C47.1235 28.5941 47.5664 31.2948 47.7501 32.3858C47.5016 32.5262 47.264 32.6883 47.0371 32.8611L33.8581 38.3704C33.8257 38.1975 30.8226 31.4352 30.8226 31.4352C31.8921 31.5108 33.1235 31.4568 34.0418 30.9707L34.4522 30.7222C34.9492 30.3873 35.3813 29.966 35.7161 29.4691L35.8566 29.2531C36.105 28.8426 36.2887 28.3997 36.4075 27.9352C36.4183 27.9136 36.4183 27.892 36.4183 27.8704H36.4291C36.5479 27.4491 36.6019 27.017 36.6019 26.5741C36.6019 26.0988 36.5263 25.6127 36.3859 25.159C35.6081 22.6636 32.9507 21.2809 30.4553 22.0586C29.2563 22.4367 28.2516 23.2793 27.6683 24.4028L26.9013 22.6852C26.6529 22.0694 25.0001 18.4398 24.6328 17.5972C24.5464 17.4352 24.4492 17.2731 24.3303 17.1327L32.8751 13.6111C33.2316 13.4599 33.4476 13.1034 33.426 12.7253C33.4152 12.3472 33.1559 12.0231 32.7995 11.9151C30.9847 11.3642 29.9584 9.45216 30.5093 7.62654C30.5634 7.4537 30.6282 7.29167 30.7038 7.12963C31.1251 6.24383 31.9029 5.57407 32.8535 5.31482C34.409 4.87191 36.0618 5.56327 36.8288 6.9892C37.3365 7.93981 37.1637 9.57099 37.0664 10.2299C37.0232 10.5864 37.1637 10.9321 37.4445 11.1481C37.7254 11.3642 38.0927 11.4182 38.4168 11.2778L46.3242 7.97222L54.7501 28.1296C54.9013 28.4645 54.9013 28.8534 54.7609 29.1883Z" fill="#F8F8F8"/>
<path d="M15.3516 50.761L14.1997 51.3555L15.6958 54.2544L16.8477 53.6599L15.3516 50.761Z" fill="#F8F8F8"/>
<path d="M6.34523 50.814L4.84912 53.7129L6.00101 54.3074L7.49712 51.4085L6.34523 50.814Z" fill="#F8F8F8"/>
<path d="M10.2147 52.6703L10.135 55.9316L11.4309 55.9633L11.5106 52.7019L10.2147 52.6703Z" fill="#F8F8F8"/>
<path d="M42.7586 1.83032L41.6067 2.4248L43.1028 5.32373L44.2547 4.72924L42.7586 1.83032Z" fill="#F8F8F8"/>
<path d="M52.4566 1.87257L50.9604 4.77148L52.1123 5.36597L53.6084 2.46705L52.4566 1.87257Z" fill="#F8F8F8"/>
<path d="M46.9513 0.140975L46.8716 3.40234L48.1675 3.43402L48.2472 0.172647L46.9513 0.140975Z" fill="#F8F8F8"/>
</g>
<defs>
<clipPath id="clip0_305_8679">
<rect width="56" height="56" fill="white" transform="translate(0.5)"/>
</clipPath>
</defs>
</svg>
